<?xml version="1.0" standalone="no"?>
<!DOCTYPE svg PUBLIC "-//W3C//DTD SVG 1.1//EN" "http://www.w3.org/Graphics/SVG/1.1/DTD/svg11.dtd" >
<svg xmlns="http://www.w3.org/2000/svg" xmlns:xlink="http://www.w3.org/1999/xlink" version="1.1">
<metadata>
Created by FontForge 20190801 at Fri Sep  1 09:13:31 2023
 By www-data
Copyright (c) 2023 by Luzi Type. All rights reserved.
</metadata>
<defs>
<font id="SidaraRecifeTextBook" horiz-adv-x="639" >
  <font-face 
    font-family="SidaraRecifeTextBook"
    font-weight="350"
    font-stretch="normal"
    units-per-em="1030"
    panose-1="0 0 0 0 0 0 0 0 0 0"
    ascent="824"
    descent="-206"
    x-height="519"
    cap-height="721"
    bbox="-18 -271 1328 1105"
    underline-thickness="50"
    underline-position="-130"
    unicode-range="U+000D-FB02"
  />
<missing-glyph horiz-adv-x="530" 
 />
    <glyph glyph-name="fi" unicode="fi" horiz-adv-x="672" 
d="M50 0v40l33 2q55 3 55 51v383h-125v43h125v40q0 120 59 182.5t146 62.5q42 0 83 -13v-81q-57 21 -109 21q-59 0 -95.5 -30.5t-36.5 -87.5q0 -94 97 -94h271v-426q0 -48 56 -51l34 -2v-40h-248v40l33 1q53 5 53 52v383h-271v-383q0 -46 53 -51l51 -2v-40h-264z" />
    <glyph glyph-name="f_f_j" unicode="ffj" horiz-adv-x="989" 
d="M735 -210l-22 27l30 32q82 83 82 201v426h-272v-383q0 -20 14 -34.5t39 -16.5l51 -2v-40h-262v40l33 1q53 5 53 52v383h-271v-383q0 -46 53 -51l51 -2v-40h-264v40l33 2q55 3 55 51v383h-125v43h125v40q0 120 59 182.5t146 62.5q43 0 75 -12v-80q-51 19 -101 19
q-59 0 -95.5 -30.5t-36.5 -87.5q0 -94 97 -94h199v40q0 120 59 182.5t146 62.5q42 0 83 -13v-81q-57 21 -109 21q-59 0 -95 -30.5t-36 -87.5q0 -94 96 -94h272v-467q0 -88 -39.5 -145.5t-122.5 -116.5z" />
    <glyph glyph-name="f_f_t" unicode="fft" horiz-adv-x="1109" 
d="M953 -11q-59 0 -93 32t-34 95v360h-272v-380q0 -49 53 -54l51 -2v-40h-262v40l33 1q53 5 53 52v383h-272v-382q0 -47 53 -52l52 -3v-39h-265v40l33 2q55 3 55 51v383h-125v43h125v40q0 120 59 182.5t146 62.5q43 0 75 -12v-80q-51 19 -101 19q-59 0 -95.5 -30.5
t-36.5 -87.5q0 -94 97 -94h200v40q0 120 59 182.5t146 62.5q42 0 83 -13v-81q-55 21 -109 21q-59 0 -95 -30.5t-36 -87.5q0 -46 24.5 -70t71.5 -24h107q62 0 89.5 31t35.5 91h40v-122h183v-43h-183v-333q0 -96 95 -96q40 0 92 19v-41q-68 -36 -132 -36z" />
    <glyph glyph-name="f_j" unicode="fj" horiz-adv-x="647" 
d="M391 -210l-21 27l30 32q82 83 82 201v426h-272v-383q0 -46 53 -51l51 -2v-40h-264v40l33 2q55 3 55 51v383h-125v43h125v40q0 120 59 182.5t146 62.5q42 0 83 -13v-81q-57 21 -109 21q-59 0 -95.5 -30.5t-36.5 -87.5q0 -94 97 -94h272v-467q0 -88 -40 -146t-123 -116z
" />
    <glyph glyph-name="f_t" unicode="ft" horiz-adv-x="765" 
d="M609 -11q-59 0 -93 32t-34 95v360h-272v-383q0 -46 53 -51l51 -2v-40h-264v40l33 2q55 3 55 51v383h-125v43h125v40q0 120 59 182.5t146 62.5q42 0 83 -13v-81q-57 21 -109 21q-59 0 -95.5 -30.5t-36.5 -87.5q0 -94 97 -94h107q62 0 89.5 31t36.5 91h39v-122h183v-43
h-183v-333q0 -96 95 -96q40 0 92 19v-41q-68 -36 -132 -36z" />
    <glyph glyph-name="ff" unicode="ff" horiz-adv-x="747" 
d="M50 0v40l33 2q55 3 55 51v383h-125v43h125v40q0 120 59 182.5t146 62.5q43 0 75 -12v-80q-51 19 -101 19q-59 0 -95.5 -30.5t-36.5 -87.5q0 -94 97 -94h200v40q0 120 59 182.5t146 62.5q42 0 83 -13v-81q-55 21 -109 21q-59 0 -95 -30.5t-36 -87.5q0 -46 24.5 -70
t71.5 -24h104v-43h-176v-383q0 -20 15 -34.5t41 -15.5l54 -3v-40h-268v40l33 1q53 5 53 52v383h-272v-383q0 -46 53 -51l51 -2v-40h-264z" />
    <glyph glyph-name="ffi" unicode="ffi" horiz-adv-x="1015" 
d="M50 0v40l33 2q55 3 55 51v383h-125v43h125v40q0 120 59 182.5t146 62.5q43 0 75 -12v-80q-51 19 -101 19q-59 0 -95.5 -30.5t-36.5 -87.5q0 -94 97 -94h200v40q0 120 59 182.5t146 62.5q42 0 83 -13v-81q-55 21 -109 21q-59 0 -95 -30.5t-36 -87.5q0 -46 24.5 -70
t71.5 -24h271v-426q0 -48 56 -51l34 -2v-40h-248v40l33 1q53 5 53 52v383h-271v-383q0 -21 14 -35t39 -16l51 -2v-40h-262v40l33 1q53 5 53 52v383h-272v-383q0 -46 53 -51l51 -2v-40h-264z" />
    <glyph glyph-name=".notdef" horiz-adv-x="530" 
 />
    <glyph glyph-name=".null" horiz-adv-x="294" 
 />
    <glyph glyph-name="nonmarkingreturn" horiz-adv-x="343" 
 />
    <glyph glyph-name="CR" unicode="&#xd;" horiz-adv-x="534" 
 />
    <glyph glyph-name="space" unicode=" " horiz-adv-x="256" 
 />
    <glyph glyph-name="space" unicode="&#xa0;" horiz-adv-x="256" 
 />
    <glyph glyph-name="exclam" unicode="!" horiz-adv-x="336" 
d="M151 195l-29 526h93l-30 -526h-34zM106 49q0 25 17.5 42.5t44.5 17.5q28 0 45 -17.5t17 -42.5t-17 -42t-45 -17q-27 0 -44.5 17t-17.5 42z" />
    <glyph glyph-name="quotedbl" unicode="&#x22;" horiz-adv-x="348" 
d="M67 475l-17 282h73l-17 -282h-39zM221 757h73l-17 -282h-39z" />
    <glyph glyph-name="numbersign" unicode="#" horiz-adv-x="612" 
d="M126 0l37 244h-129v43h136l24 154h-144v44h150l35 226h52l-34 -226h133l35 226h53l-34 -226h139v-44h-146l-23 -154h152v-43h-159l-37 -244h-54l37 244h-133l-37 -244h-53zM223 287h133l24 154h-134z" />
    <glyph glyph-name="dollar" unicode="$" horiz-adv-x="659" 
d="M316 -131v133q-83 10 -146.5 59.5t-81.5 132.5h95q9 -58 45.5 -95.5t87.5 -51.5v281l-15 5q-33 12 -55.5 21.5t-50.5 26.5t-44.5 36.5t-28.5 49.5t-12 66q0 83 56.5 134t149.5 54v104h42v-106q79 -8 136 -53.5t75 -121.5h-95q-21 109 -116 130v-274l48 -17
q23 -8 37.5 -14t42 -23t44 -35t30 -49t13.5 -67q0 -85 -59 -139.5t-156 -55.5v-131h-42zM177 558q0 -33 13 -58t36.5 -42t43 -26t46.5 -18v265h-1q-62 0 -100 -32.5t-38 -88.5zM358 41h7q60 0 100 32.5t40 91.5q0 34 -14 61t-40 43.5t-43.5 24.5t-43.5 17l-6 2v-272z" />
    <glyph glyph-name="percent" unicode="%" horiz-adv-x="881" 
d="M217 394q-74 0 -123.5 48t-49.5 122t49.5 122t123.5 48q75 0 124.5 -48t49.5 -122t-49.5 -122t-124.5 -48zM112 564q0 -60 28 -97t77 -37t77.5 37t28.5 97q0 61 -28.5 97t-77.5 36t-77 -36t-28 -97zM185 0l461 721h54l-462 -721h-53zM490 159q0 74 49.5 122t123.5 48
q75 0 124.5 -48t49.5 -122t-49.5 -122t-124.5 -48q-74 0 -123.5 48t-49.5 122zM558 159q0 -60 28 -97t77 -37t77.5 37t28.5 97q0 61 -28.5 97t-77.5 36t-77 -36t-28 -97z" />
    <glyph glyph-name="ampersand" unicode="&#x26;" horiz-adv-x="757" 
d="M293 -19q-100 0 -159 57t-59 138q0 65 43.5 120t128.5 85l-34 35q-78 78 -78 157q0 69 52 117.5t142 48.5q86 0 134 -43t48 -110q0 -124 -170 -203l194 -201q35 57 35 116q0 44 -53 48l-27 2v39h233v-39l-44 -2q-15 -1 -24 -3.5t-19 -14t-16 -33.5l-5 -19
q-22 -77 -53 -124l109 -112v-40h-59l-90 94q-96 -113 -229 -113zM155 194q0 -66 44.5 -111t125.5 -45q109 0 169 84l-221 231q-118 -47 -118 -159zM216 583q0 -66 59 -131l38 -41q61 25 90.5 71.5t29.5 99.5q0 54 -28.5 86.5t-80.5 32.5t-80 -33t-28 -85z" />
    <glyph glyph-name="quotesingle" unicode="'" horiz-adv-x="177" 
d="M67 475l-17 282h73l-17 -282h-39z" />
    <glyph glyph-name="parenleft" unicode="(" horiz-adv-x="356" 
d="M302 -177q-119 75 -191 207.5t-72 297.5q0 164 72 296.5t191 206.5l31 -38q-105 -79 -165.5 -200t-60.5 -265q0 -146 61 -267.5t165 -199.5z" />
    <glyph glyph-name="parenright" unicode=")" horiz-adv-x="356" 
d="M23 -139q104 78 165 199.5t61 267.5q0 144 -60.5 265t-165.5 200l31 38q119 -74 191 -206.5t72 -296.5q0 -165 -72 -297.5t-191 -207.5z" />
    <glyph glyph-name="asterisk" unicode="*" horiz-adv-x="374" 
d="M127 467l-55 40l80 88l-118 28l21 63l111 -49l-12 123h68l-14 -123l111 47l22 -58l-120 -31l81 -88l-53 -38l-62 102z" />
    <glyph glyph-name="plus" unicode="+" 
d="M293 60v194h-186v54h186v195h54v-195h184v-54h-184v-194h-54z" />
    <glyph glyph-name="comma" unicode="," horiz-adv-x="259" 
d="M51 -124q50 7 78 34t28 58q0 32 -33 37l-15 2q-20 4 -31 17t-11 30q0 22 15.5 38.5t42.5 16.5q36 0 58.5 -31t22.5 -81q0 -42 -16 -74t-41.5 -50t-50 -27t-47.5 -11v41z" />
    <glyph glyph-name="hyphen" unicode="-" horiz-adv-x="415" 
d="M60 303v66h296v-66h-296z" />
    <glyph glyph-name="period" unicode="." horiz-adv-x="244" 
d="M121 -10q-27 0 -44 17t-17 42t17 42.5t44 17.5q28 0 45.5 -17.5t17.5 -42.5t-17 -42t-46 -17z" />
    <glyph glyph-name="slash" unicode="/" horiz-adv-x="425" 
d="M24 -89l317 886h61l-319 -886h-59z" />
    <glyph glyph-name="zero" unicode="0" horiz-adv-x="634" 
d="M317 -11q-117 0 -184 99.5t-67 267.5q0 169 67 267t183 98q118 0 185 -99.5t67 -268.5t-67.5 -266.5t-183.5 -97.5zM151 399q0 -172 46.5 -269.5t137.5 -97.5q151 0 151 279q0 172 -47 269.5t-138 97.5q-150 0 -150 -279z" />
    <glyph glyph-name="one" unicode="1" horiz-adv-x="530" 
d="M96 0v40l92 4q55 2 55 51v533q-63 -39 -146 -39v44q112 0 181 78h37v-616q0 -22 15 -35.5t41 -15.5l83 -4v-40h-358z" />
    <glyph glyph-name="two" unicode="2" horiz-adv-x="634" 
d="M78 0v45l118 110q136 126 192.5 203t56.5 170q0 70 -32.5 112.5t-91.5 42.5q-64 0 -108 -60t-47 -181h-92q13 146 83 212.5t167 66.5q93 0 148.5 -50t55.5 -137q0 -49 -17.5 -94t-57 -92.5t-69.5 -77t-88 -81.5l-138 -123h400v-66h-480z" />
    <glyph glyph-name="three" unicode="3" horiz-adv-x="634" 
d="M328 -11q-96 0 -162.5 49.5t-88.5 137.5h95q9 -69 54.5 -109t108.5 -40q62 0 100.5 37t38.5 98q0 84 -73.5 129t-199.5 45v51q264 2 264 166q0 63 -36 96.5t-93 33.5q-63 0 -108.5 -40t-55.5 -109h-94q22 89 88 138t165 49t157 -49t58 -129q0 -72 -48 -117.5t-129 -63.5
q86 -23 136.5 -70.5t50.5 -113.5q0 -75 -60 -132t-168 -57z" />
    <glyph glyph-name="four" unicode="4" horiz-adv-x="634" 
d="M381 0v227h-323v58l335 426h60v-417h124v-67h-124v-227h-72zM125 294h256v325z" />
    <glyph glyph-name="five" unicode="5" horiz-adv-x="634" 
d="M319 -11q-91 0 -153.5 55.5t-73.5 165.5h94q0 -89 40.5 -136t107.5 -47q61 0 99 37.5t38 104.5q0 99 -85.5 158.5t-248.5 66.5l28 317h335v-67h-295l-17 -177q179 -14 267 -86t88 -180q0 -96 -63 -154t-161 -58z" />
    <glyph glyph-name="six" unicode="6" horiz-adv-x="634" 
d="M333 -11q-89 0 -151 48t-90 124.5t-28 173.5q0 99 29.5 184.5t96 143.5t157.5 58t150 -53.5t66 -133.5h-95q-2 60 -38 104.5t-91 44.5q-82 0 -134.5 -99t-57.5 -234q76 92 198 92q93 0 159 -58.5t66 -156.5q0 -94 -61 -166t-176 -72zM147 316q2 -129 50 -209t140 -80
q75 0 114.5 52t39.5 127q0 88 -50.5 135t-126.5 47q-99 0 -167 -72z" />
    <glyph glyph-name="seven" unicode="7" horiz-adv-x="586" 
d="M145 0l349 644h-464v67h526v-45l-337 -666h-74z" />
    <glyph glyph-name="eight" unicode="8" horiz-adv-x="634" 
d="M325 -11q-109 0 -176.5 48.5t-67.5 133.5q0 64 43 113t126 67q-73 37 -113 80t-40 112q0 86 62.5 132t150.5 46q89 0 152 -46t63 -121q0 -60 -43 -109.5t-110 -70.5l28 -14q72 -34 113 -78t41 -115q0 -85 -62.5 -131.5t-166.5 -46.5zM161 173q0 -64 42 -105t122 -41
q71 0 110 33t39 91q0 57 -37 93.5t-107 69.5l-50 23q-60 -23 -89.5 -67t-29.5 -97zM175 561q0 -34 12.5 -61t38.5 -48t50 -34t64 -30q106 54 106 156q0 64 -37 101t-104 37q-60 0 -95 -31t-35 -90z" />
    <glyph glyph-name="nine" unicode="9" horiz-adv-x="634" 
d="M300 -11q-92 0 -157 54t-72 133h94q3 -59 44.5 -104t97.5 -45q55 0 96 49t60.5 122t22.5 161q-75 -91 -197 -91q-93 0 -159 58t-66 157q0 94 61 166t176 72q89 0 151 -48t90 -124.5t28 -173.5q0 -74 -16 -141t-47 -123t-84.5 -89t-122.5 -33zM143 504q0 -88 50.5 -135
t126.5 -47q98 0 166 71q-2 130 -50 210t-140 80q-75 0 -114 -52t-39 -127z" />
    <glyph glyph-name="colon" unicode=":" horiz-adv-x="244" 
d="M121 -10q-27 0 -44 17t-17 42t17 42.5t44 17.5q28 0 45.5 -17.5t17.5 -42.5t-17 -42t-46 -17zM60 401q0 25 17 42.5t44 17.5q28 0 45.5 -17.5t17.5 -42.5t-17 -42t-46 -17q-27 0 -44 17t-17 42z" />
    <glyph glyph-name="semicolon" unicode=";" horiz-adv-x="259" 
d="M51 -124q50 7 78 34t28 58q0 32 -33 37l-15 2q-20 4 -31 17t-11 30q0 22 15.5 38.5t42.5 16.5q36 0 58.5 -31t22.5 -81q0 -42 -16 -74t-41.5 -50t-50 -27t-47.5 -11v41zM74 401q0 25 17 42.5t44 17.5q28 0 45.5 -17.5t17.5 -42.5t-17 -42t-46 -17q-27 0 -44 17t-17 42z
" />
    <glyph glyph-name="less" unicode="&#x3c;" 
d="M569 36l-515 207v55l515 209l16 -50l-465 -186l465 -186z" />
    <glyph glyph-name="equal" unicode="=" 
d="M117 330v52h404v-52h-404zM117 178v53h404v-53h-404z" />
    <glyph glyph-name="greater" unicode="&#x3e;" 
d="M70 36l-16 49l465 186l-465 186l16 50l515 -209v-55z" />
    <glyph glyph-name="question" unicode="?" horiz-adv-x="489" 
d="M177 267q-5 22 -5 37q0 68 93 147l40 34q23 19 35.5 31.5t25.5 37t13 50.5q0 42 -31 67t-74 25q-51 0 -89.5 -36.5t-41.5 -106.5h-93q8 87 73 136.5t146 49.5q72 0 121 -40t49 -113q0 -36 -15 -67t-29.5 -45t-41.5 -37l-39 -32q-41 -33 -63.5 -66.5t-22.5 -82.5v-52h-36z
M149 49q0 25 17 42.5t44 17.5q28 0 45.5 -17.5t17.5 -42.5t-17 -42t-46 -17q-27 0 -44 17t-17 42z" />
    <glyph glyph-name="at" unicode="@" horiz-adv-x="940" 
d="M432 -124q-166 0 -271.5 102.5t-105.5 269.5q0 129 63.5 234t168.5 163t228 58q54 0 106 -11.5t100.5 -37.5t85 -64t58.5 -95.5t22 -127.5q0 -127 -63 -210t-148 -83q-42 0 -76.5 21.5t-48.5 61.5q-60 -85 -144 -85q-69 0 -112 50.5t-43 130.5q0 99 60 176t155 77
q39 0 74 -14.5t54 -38.5l9 45h64l-55 -244q-7 -31 -7 -52q0 -81 77 -81q70 0 112 69.5t42 163.5q0 139 -95.5 221.5t-233.5 82.5q-115 0 -209 -59.5t-144.5 -153t-50.5 -197.5q0 -143 97 -234.5t243 -91.5q54 0 102 14l7 -39q-48 -21 -121 -21zM322 263q0 -60 27 -99t79 -39
q32 0 60.5 14.5t43.5 38.5l47 220q-11 30 -36.5 50.5t-62.5 20.5q-67 0 -112.5 -63t-45.5 -143z" />
    <glyph glyph-name="A" unicode="A" horiz-adv-x="785" 
d="M24 43q42 9 62.5 22.5t34.5 47.5l251 608h37l260 -624q21 -49 92 -54v-43h-271v43q50 0 73 9t23 30q0 14 -7 29l-54 134h-296l-50 -125q-9 -21 -9 -36q0 -22 23.5 -31.5t80.5 -9.5v-43h-250v43zM246 289h260l-131 318z" />
    <glyph glyph-name="B" unicode="B" horiz-adv-x="677" 
d="M39 0v43l46 2q60 3 60 57v517q0 54 -60 57l-46 2v43h347q95 0 147.5 -47t52.5 -116q0 -62 -47.5 -110t-134.5 -63q109 -11 163.5 -62t54.5 -120q0 -81 -70.5 -142t-184.5 -61h-328zM222 101q0 -26 18.5 -41.5t49.5 -15.5h70q77 0 123 44t46 106q0 68 -61.5 116.5
t-174.5 48.5h-71v-258zM222 403h78q94 0 145 42t51 100q0 56 -43.5 94t-118.5 38h-112v-274z" />
    <glyph glyph-name="C" unicode="C" horiz-adv-x="736" 
d="M376 -19q-104 0 -178.5 53t-108.5 133t-34 175q0 101 38 189.5t119.5 148t191.5 59.5q113 0 185 -63t88 -178h-101q-11 85 -59 140.5t-135 55.5q-78 0 -136 -47t-85 -117.5t-27 -153.5t27.5 -153t88 -117t144.5 -47q85 0 151 47t86 141h42q-19 -128 -99 -197t-198 -69z
" />
    <glyph glyph-name="D" unicode="D" horiz-adv-x="778" 
d="M39 0v43l46 2q60 3 60 57v517q0 54 -60 57l-46 2v43h309q177 0 277 -98t100 -238q0 -71 -26 -138.5t-74.5 -123t-126.5 -89.5t-173 -34h-286zM222 101q0 -26 19 -41.5t51 -15.5h42q95 0 164.5 49t101.5 121.5t32 154.5q0 128 -80 218t-223 90h-107v-576z" />
    <glyph glyph-name="E" unicode="E" horiz-adv-x="687" 
d="M39 0v43l46 2q60 3 60 57v517q0 54 -60 57l-46 2v43h556v-188h-37q-5 77 -38.5 110.5t-107.5 33.5h-190v-289h120q57 0 76.5 23.5t22.5 82.5h40v-255h-40q-3 59 -22.5 82.5t-76.5 23.5h-120v-244q0 -26 19 -41.5t51 -15.5h107q87 0 127.5 45t60.5 139h40l-28 -228h-560z
" />
    <glyph glyph-name="F" unicode="F" horiz-adv-x="644" 
d="M39 0v43l46 2q60 3 60 57v517q0 54 -60 57l-46 2v43h556v-188h-37q-5 77 -38.5 110.5t-107.5 33.5h-190v-289h120q57 0 76.5 23.5t22.5 82.5h40v-255h-40q-3 59 -22.5 82.5t-76.5 23.5h-120v-243q0 -24 16.5 -40t44.5 -17l66 -2v-43h-310z" />
    <glyph glyph-name="G" unicode="G" horiz-adv-x="768" 
d="M388 -19q-106 0 -183.5 53t-113.5 134t-36 177q0 59 14 115.5t43 107t69.5 88.5t98 60.5t124.5 22.5q113 0 185 -63t88 -178h-101q-11 85 -59 140.5t-135 55.5q-116 0 -182 -94.5t-66 -223.5q0 -88 30.5 -163.5t97 -126t157.5 -50.5q85 0 157 47v208h-150v45h294v-45h-68
v-212q-134 -98 -264 -98z" />
    <glyph glyph-name="H" unicode="H" horiz-adv-x="841" 
d="M39 0v43l46 2q60 3 60 57v517q0 54 -60 57l-46 2v43h289v-43l-45 -2q-29 -1 -45 -16t-16 -41v-229h397v229q0 54 -60 57l-46 2v43h290v-43l-46 -2q-29 -1 -45 -16t-16 -41v-517q0 -54 61 -57l46 -2v-43h-290v43l46 2q60 3 60 57v244h-397v-244q0 -26 16 -41t45 -16l45 -2
v-43h-289z" />
    <glyph glyph-name="I" unicode="I" horiz-adv-x="388" 
d="M39 0v43l56 2q28 1 44.5 17t16.5 40v517q0 24 -16.5 40t-44.5 17l-56 2v43h310v-43l-56 -2q-28 -1 -44.5 -17t-16.5 -40v-517q0 -24 16.5 -40t44.5 -17l56 -2v-43h-310z" />
    <glyph glyph-name="J" unicode="J" horiz-adv-x="534" 
d="M218 -19q-90 0 -145.5 50.5t-62.5 152.5h92q0 -73 29.5 -116t88.5 -43q113 0 113 173v421q0 24 -16.5 40t-44.5 17l-56 2v43h299v-43l-45 -2q-29 -1 -45 -16t-16 -41v-390q0 -118 -43 -183t-148 -65z" />
    <glyph glyph-name="K" unicode="K" horiz-adv-x="721" 
d="M630 -6l-385 385l245 229q24 23 24 40q0 28 -54 30l-31 1v42h257v-43q-52 -6 -100 -50l-260 -232l372 -359v-43h-68zM39 0v43l46 2q60 3 60 57v517q0 54 -60 57l-46 2v43h289v-43l-45 -2q-29 -1 -45 -16t-16 -41v-517q0 -26 16 -41t45 -16l45 -2v-43h-289z" />
    <glyph glyph-name="L" unicode="L" horiz-adv-x="671" 
d="M39 0v43l46 2q60 3 60 57v517q0 54 -60 57l-46 2v43h299v-43l-55 -2q-28 -1 -44.5 -17t-16.5 -40v-518q0 -26 19 -41.5t51 -15.5h107q87 0 127.5 45t60.5 139h40l-28 -228h-560z" />
    <glyph glyph-name="M" unicode="M" horiz-adv-x="946" 
d="M39 0v43l49 2q35 1 51.5 22.5t16.5 54.5v497q0 26 -16 41t-45 16l-45 2v43h195l233 -603l231 603h198v-43l-45 -2q-29 -2 -45.5 -17t-16.5 -40v-517q0 -54 63 -57l44 -2v-43h-290v43l45 2q62 3 62 57v514l-240 -605h-43l-234 592v-481q0 -32 17 -54t51 -23l59 -2v-43
h-295z" />
    <glyph glyph-name="N" unicode="N" horiz-adv-x="855" 
d="M45 0v43l50 2q31 2 49 22t18 55v508l-4 6q-20 26 -48 33.5t-71 8.5v43h175l445 -589v467q0 35 -18.5 55.5t-48.5 21.5l-60 2v43h295v-43l-49 -2q-32 -2 -50 -22t-18 -55v-599h-44l-453 595v-473q0 -34 18.5 -55t47.5 -22l61 -2v-43h-295z" />
    <glyph glyph-name="O" unicode="O" horiz-adv-x="798" 
d="M400 -19q-150 0 -247.5 109.5t-97.5 271.5q0 161 96.5 269t247.5 108q150 0 248 -110t98 -271t-97.5 -269t-247.5 -108zM146 397q0 -156 79.5 -263.5t199.5 -107.5q103 0 165 81t62 215q0 157 -79 265t-199 108q-103 0 -165.5 -82t-62.5 -216z" />
    <glyph glyph-name="P" unicode="P" horiz-adv-x="662" 
d="M39 0v43l46 2q60 3 60 57v517q0 54 -60 57l-46 2v43h335q111 0 172 -55.5t61 -133.5q0 -89 -72 -155.5t-198 -66.5h-115v-208q0 -23 16.5 -39.5t44.5 -17.5l55 -2v-43h-299zM222 353h107q87 0 137 50t50 117q0 64 -49 110.5t-135 46.5h-110v-324z" />
    <glyph glyph-name="Q" unicode="Q" horiz-adv-x="808" 
d="M400 -19q-150 0 -247.5 109.5t-97.5 271.5q0 161 96.5 269t247.5 108q150 0 248 -110t98 -271q0 -101 -41 -185t-113 -134l105 -152v-43h-60l-110 160q-58 -23 -126 -23zM146 397q0 -156 79.5 -263.5t199.5 -107.5q40 0 77 14l-120 174v43h60l122 -178q88 80 88 243
q0 157 -79 265t-199 108q-103 0 -165.5 -82t-62.5 -216z" />
    <glyph glyph-name="R" unicode="R" horiz-adv-x="709" 
d="M619 -6l-297 336h-100v-228q0 -26 16 -41t45 -16l45 -2v-43h-289v43l46 2q60 3 60 57v517q0 54 -60 57l-46 2v43h328q110 0 171 -53t61 -127q0 -69 -51 -126t-141 -72l279 -306v-43h-67zM222 374h105q84 0 131.5 45t47.5 107t-48 106.5t-136 44.5h-100v-303z" />
    <glyph glyph-name="S" unicode="S" horiz-adv-x="614" 
d="M327 -19q-97 0 -176.5 53.5t-100.5 149.5h100q11 -75 66 -117t125 -42q62 0 104 34t42 96q0 29 -11.5 54t-25 39.5t-38 28.5t-37 19t-35.5 13l-66 23q-34 12 -58.5 22t-53.5 28t-46.5 38.5t-30 51.5t-12.5 68q0 90 63 144.5t165 54.5q95 0 164.5 -48.5t90.5 -137.5h-99
q-14 66 -57.5 103.5t-111.5 37.5q-65 0 -104.5 -33.5t-39.5 -92.5q0 -35 14 -62t40 -45t45.5 -27t48.5 -19l92 -32q25 -9 39.5 -15t44 -23.5t46.5 -36.5t31 -51t14 -71q0 -90 -64 -147.5t-168 -57.5z" />
    <glyph glyph-name="T" unicode="T" horiz-adv-x="716" 
d="M203 0v43l56 2q28 1 44.5 17t16.5 40v575h-96q-70 0 -106 -33.5t-48 -110.5h-36l13 188h621l14 -188h-37q-13 77 -48.5 110.5t-106.5 33.5h-94v-575q0 -24 16.5 -40t44.5 -17l56 -2v-43h-310z" />
    <glyph glyph-name="U" unicode="U" horiz-adv-x="845" 
d="M425 -19q-120 0 -202.5 72.5t-82.5 203.5v362q0 54 -61 57l-45 2v43h289v-43l-45 -2q-61 -3 -61 -57v-370q0 -103 62.5 -159t156.5 -56q89 0 148 52.5t59 148.5v364q0 35 -18 55.5t-48 21.5l-62 2v43h296v-43l-50 -2q-32 -2 -49.5 -22t-17.5 -55v-360q0 -123 -77 -190.5
t-192 -67.5z" />
    <glyph glyph-name="V" unicode="V" horiz-adv-x="790" 
d="M113 624q-20 48 -89 54v43h261v-43q-45 0 -67.5 -7t-22.5 -29q0 -10 6 -27l203 -501l193 476q10 24 10 43q0 26 -24 35.5t-77 9.5v43h261v-43q-43 -7 -68.5 -23t-42.5 -57l-249 -598h-36z" />
    <glyph glyph-name="W" unicode="W" horiz-adv-x="1094" 
d="M114 624q-17 49 -90 54v43h257v-43q-44 0 -65.5 -7t-21.5 -29q0 -8 3 -20l174 -501l146 441l-24 63q-9 27 -30.5 39t-59.5 14v43h258v-43q-44 0 -65.5 -7t-21.5 -30q0 -10 4 -21l171 -497l152 465q9 27 9 43q0 28 -22.5 37.5t-70.5 9.5v43h253v-43q-48 -4 -72 -21
t-40 -61l-202 -596h-36l-175 484l-169 -484h-36z" />
    <glyph glyph-name="X" unicode="X" horiz-adv-x="761" 
d="M29 43q38 5 58 16.5t46 44.5l209 257l-201 268q-20 27 -41.5 37t-53.5 12v43h267v-43q-43 0 -62.5 -5.5t-19.5 -19.5q0 -15 21 -43l144 -191l143 189q12 15 12 28q0 20 -26.5 31t-68.5 11v43h261v-43q-39 -6 -61 -19.5t-44 -41.5l-189 -234l217 -291q35 -46 92 -49v-43
h-265v43q84 0 84 26q0 15 -21 42l-161 214l-163 -212q-13 -17 -13 -31q0 -39 96 -39v-43h-260v43z" />
    <glyph glyph-name="Y" unicode="Y" horiz-adv-x="702" 
d="M199 0v43l56 2q28 1 44.5 17t16.5 40v172l-208 350q-30 49 -89 54v43h253v-43q-77 0 -77 -38q0 -12 9 -27l161 -275l150 260q14 25 14 41q0 40 -98 40v42h253v-43q-44 -8 -63.5 -21.5t-37.5 -44.5l-191 -317v-193q0 -23 17 -39.5t45 -17.5l56 -2v-43h-311z" />
    <glyph glyph-name="Z" unicode="Z" horiz-adv-x="663" 
d="M55 0v38l438 639h-236q-73 0 -107 -33.5t-39 -110.5h-36v188h513v-38l-438 -639h228q88 0 128.5 45t59.5 139h40l-27 -228h-524z" />
    <glyph glyph-name="bracketleft" unicode="[" horiz-adv-x="342" 
d="M101 -156v967h193v-47h-131v-873h131v-47h-193z" />
    <glyph glyph-name="backslash" unicode="\" horiz-adv-x="425" 
d="M341 -89l-317 886h59l319 -886h-61z" />
    <glyph glyph-name="bracketright" unicode="]" horiz-adv-x="342" 
d="M241 -156h-193v47h131v873h-131v47h193v-967z" />
    <glyph glyph-name="asciicircum" unicode="^" horiz-adv-x="513" 
d="M60 449l185 283h24l185 -283h-44l-153 167l-153 -167h-44z" />
    <glyph glyph-name="underscore" unicode="_" horiz-adv-x="599" 
d="M60 -76v55h480v-55h-480z" />
    <glyph glyph-name="grave" unicode="`" horiz-adv-x="178" 
d="M130 606l-130 150h98l80 -150h-48z" />
    <glyph glyph-name="a" unicode="a" horiz-adv-x="540" 
d="M185 -11q-59 0 -97 34.5t-38 98.5q0 29 9.5 51t23 36.5t41.5 27.5t51.5 21t67.5 21q36 10 54 16.5t40 19.5t31.5 32.5t9.5 47.5q0 47 -28 70.5t-74 23.5q-53 0 -88 -34t-44 -101h-88q14 86 73.5 129.5t145.5 43.5q81 0 124 -39t43 -110v-276q0 -68 45 -68q13 0 31 5v-30
q-29 -20 -62 -20q-35 0 -59 26t-25 76q-34 -48 -85.5 -75t-101.5 -27zM130 139q0 -93 94 -93q45 0 85 23t61 56v172q-39 -25 -96 -43l-38 -12q-59 -18 -82.5 -39.5t-23.5 -63.5z" />
    <glyph glyph-name="b" unicode="b" horiz-adv-x="624" 
d="M313 -11q-105 0 -209 66v597q0 23 -15 37t-41 14h-29v39l157 38v-360q21 45 70 76t115 31q102 0 160.5 -75t58.5 -179q0 -113 -71 -198.5t-196 -85.5zM176 89q46 -65 137 -65q89 0 138 66.5t49 157.5t-46 156t-125 65q-96 0 -153 -83v-297z" />
    <glyph glyph-name="c" unicode="c" horiz-adv-x="504" 
d="M266 -11q-102 0 -162 74t-60 181q0 114 66 198.5t174 84.5q76 0 125.5 -45.5t55.5 -127.5h-88q-1 59 -29.5 97t-81.5 38q-71 0 -110.5 -64.5t-39.5 -150.5q0 -93 45.5 -155t127.5 -62q50 0 85.5 25t51.5 71h37q-17 -75 -68.5 -119.5t-128.5 -44.5z" />
    <glyph glyph-name="d" unicode="d" horiz-adv-x="629" 
d="M269 -11q-101 0 -163 73t-62 184q0 116 67.5 198.5t185.5 82.5q89 0 142 -40v165q0 24 -15 37.5t-42 13.5h-29v39l157 38v-664q0 -24 15 -37.5t42 -13.5h34v-38l-158 -38v97q-23 -41 -67.5 -69t-106.5 -28zM123 271q0 -95 49.5 -158t125.5 -63q43 0 82 20t59 45v269
q-17 43 -56 74.5t-92 31.5q-78 0 -123 -64.5t-45 -154.5z" />
    <glyph glyph-name="e" unicode="e" horiz-adv-x="514" 
d="M266 -11q-102 0 -162 74t-60 181q0 114 66 198.5t178 84.5q91 0 136 -62t45 -178h-353v-16q0 -91 44 -152.5t127 -61.5q50 0 86.5 25t52.5 71h37q-17 -75 -68.5 -119.5t-128.5 -44.5zM121 330h260q-1 73 -30.5 116t-84.5 43q-58 0 -95.5 -45t-49.5 -114z" />
    <glyph glyph-name="f" unicode="f" horiz-adv-x="403" 
d="M50 0v40l33 2q55 3 55 51v383h-125v43h125v40q0 120 59 182.5t146 62.5q42 0 83 -13v-81q-57 21 -109 21q-59 0 -95.5 -30.5t-36.5 -87.5q0 -94 97 -94h104v-43h-176v-383q0 -21 15 -35.5t41 -15.5l54 -2v-40h-270z" />
    <glyph glyph-name="g" unicode="g" horiz-adv-x="608" 
d="M251 -217q-89 0 -150.5 31.5t-61.5 89.5q0 39 27.5 71t72.5 46q-30 9 -50.5 33t-20.5 55q0 33 24 60.5t61 44.5q-79 50 -79 134q0 77 58.5 128t146.5 51q24 0 84 -9.5t120 -9.5h91v-60q-62 1 -148 20q61 -50 61 -114q0 -74 -59 -123.5t-151 -49.5q-54 0 -95 19
q-57 -28 -57 -70q0 -27 23 -39.5t56 -12.5h181q68 0 111.5 -27.5t43.5 -85.5t-44.5 -100.5t-108.5 -62t-136 -19.5zM112 -72q0 -48 52 -75t123 -27q75 0 129.5 29t54.5 81q0 33 -25 53t-66 20h-218q-19 -11 -34.5 -32.5t-15.5 -48.5zM158 363q0 -66 35.5 -106t95.5 -40
q57 0 87 34.5t30 93.5q0 67 -35.5 106.5t-96.5 39.5q-58 0 -87 -34t-29 -94z" />
    <glyph glyph-name="h" unicode="h" horiz-adv-x="645" 
d="M29 0v40l33 2q57 3 57 54v556q0 24 -15 38t-42 14h-29v38l157 38v-343q35 42 88.5 66t103.5 24q71 0 112.5 -46t41.5 -131v-256q0 -21 15.5 -36t41.5 -16l28 -2v-40h-244v40l34 1q54 5 54 53v233q0 70 -31.5 106t-88.5 36q-39 0 -82.5 -18t-72.5 -54v-303q0 -48 54 -53
l34 -1v-40h-249z" />
    <glyph glyph-name="i" unicode="i" horiz-adv-x="313" 
d="M34 0v40l33 2q56 3 56 51v308q0 23 -14.5 36.5t-41.5 13.5h-29v39l157 37v-434q0 -48 56 -51l33 -2v-40h-250zM94 693q0 25 16.5 41t43.5 16q29 0 44 -15.5t15 -41.5t-15.5 -40.5t-43.5 -14.5t-44 15t-16 40z" />
    <glyph glyph-name="j" unicode="j" horiz-adv-x="280" 
d="M24 -210l-21 27l30 32q82 85 82 201v351q0 23 -14.5 36.5t-41.5 13.5h-29v39l157 37v-475q0 -88 -40 -146t-123 -116zM86 693q0 25 16 40.5t43 15.5q29 0 44.5 -15.5t15.5 -40.5q0 -56 -60 -56q-27 0 -43 15t-16 41z" />
    <glyph glyph-name="k" unicode="k" horiz-adv-x="580" 
d="M29 0v40l33 2q57 3 57 52v558q0 24 -15 37.5t-42 13.5h-29v39l157 38v-686q0 -23 15 -36.5t41 -15.5l35 -2v-40h-252zM211 280l138 134q21 21 21 36q0 28 -71 28v41h244v-41q-40 -6 -67 -20t-58 -42l-129 -120l268 -262v-40h-67z" />
    <glyph glyph-name="l" unicode="l" horiz-adv-x="308" 
d="M29 0v40l33 2q56 3 56 51v559q0 24 -14.5 38t-41.5 14h-29v38l157 38v-687q0 -48 56 -51l33 -2v-40h-250z" />
    <glyph glyph-name="m" unicode="m" horiz-adv-x="984" 
d="M29 0v40l33 2q57 3 57 52v307q0 23 -15 36.5t-42 13.5h-29v39l153 37v-97q34 46 89.5 71.5t106.5 25.5q112 0 142 -103q34 49 90.5 76t110.5 27q70 0 110.5 -46t40.5 -131v-256q0 -21 15 -36t41 -16l28 -2v-40h-243v40l33 1q54 3 54 53v242q0 68 -33.5 100.5t-84.5 32.5
q-42 0 -84.5 -20t-68.5 -52v-303q0 -50 54 -53l33 -1v-40h-246v40l34 1q53 3 53 53v242q0 68 -33 100.5t-85 32.5q-42 0 -84.5 -20t-68.5 -52v-303q0 -50 54 -53l34 -1v-40h-249z" />
    <glyph glyph-name="n" unicode="n" horiz-adv-x="645" 
d="M29 0v40l33 2q57 3 57 54v305q0 23 -15 36.5t-42 13.5h-29v39l153 37v-97q34 46 89 71.5t107 25.5q71 0 112.5 -46t41.5 -131v-256q0 -21 15.5 -36t41.5 -16l28 -2v-40h-244v40l34 1q54 5 54 53v233q0 70 -31.5 106t-88.5 36q-39 0 -82.5 -18t-72.5 -54v-303
q0 -48 54 -53l34 -1v-40h-249z" />
    <glyph glyph-name="o" unicode="o" horiz-adv-x="579" 
d="M289 -11q-115 0 -180 77t-65 190q0 115 67 193t178 78q116 0 180.5 -77t64.5 -191q0 -115 -66 -192.5t-179 -77.5zM127 292q0 -73 19 -131.5t60.5 -96t100.5 -37.5q74 0 109.5 56t35.5 142q0 72 -18.5 130t-60 96t-99.5 38q-76 0 -111.5 -55.5t-35.5 -141.5z" />
    <glyph glyph-name="p" unicode="p" 
d="M29 -207v40l33 2q57 3 57 52v514q0 23 -15 37t-42 14h-29v38l153 37v-107q27 50 77.5 78.5t110.5 28.5q102 0 161.5 -74.5t59.5 -184.5q0 -124 -72 -196t-181 -72q-92 0 -152 45v-158q0 -23 15.5 -37t40.5 -15l45 -2v-40h-262zM190 122q16 -34 54.5 -59.5t89.5 -25.5
q76 0 127 57t51 158q0 93 -44 155.5t-125 62.5q-50 0 -90 -25t-63 -62v-261z" />
    <glyph glyph-name="q" unicode="q" horiz-adv-x="613" 
d="M337 -207v40l43 2q25 1 41 16t16 36v203q-24 -37 -69.5 -63.5t-104.5 -26.5q-101 0 -160 74t-59 179q0 112 66 193t187 81q90 0 144 -44l29 36h38v-632q0 -47 57 -52l24 -2v-40h-252zM123 275q0 -93 49 -153.5t125 -60.5q44 0 81.5 19.5t58.5 45.5v271q-21 37 -59.5 65.5
t-90.5 28.5q-77 0 -120.5 -65t-43.5 -151z" />
    <glyph glyph-name="r" unicode="r" horiz-adv-x="433" 
d="M29 0v40l33 2q57 3 57 52v307q0 23 -15 36.5t-42 13.5h-29v39l153 37v-146q27 78 76.5 112t101.5 34q18 0 45 -6v-78q-38 10 -61 10q-118 0 -158 -107v-252q0 -22 15.5 -36.5t40.5 -15.5l45 -2v-40h-262z" />
    <glyph glyph-name="s" unicode="s" horiz-adv-x="480" 
d="M259 -11q-84 0 -142.5 44t-72.5 117h87q27 -124 139 -124q46 0 75 22.5t29 64.5q0 43 -28.5 65t-71.5 34l-53 15q-37 11 -58.5 20t-47.5 26t-38.5 43t-12.5 62q0 72 50.5 110.5t125.5 38.5q73 0 123.5 -36.5t66.5 -100.5h-88q-7 47 -40.5 73t-76.5 26t-72.5 -23
t-29.5 -65t29 -64t82 -37l65 -18q26 -8 45.5 -16.5t42.5 -25t36 -43.5t13 -62q0 -68 -47.5 -107t-129.5 -39z" />
    <glyph glyph-name="t" unicode="t" horiz-adv-x="401" 
d="M245 -11q-59 0 -92.5 32t-33.5 95v362h-95v41q57 3 85 33.5t40 88.5h41v-122h183v-43h-183v-333q0 -96 95 -96q40 0 92 19v-41q-66 -36 -132 -36z" />
    <glyph glyph-name="u" unicode="u" 
d="M268 -11q-71 0 -115 49t-44 134v228q0 23 -15 37t-41 14h-29v38l157 38v-339q0 -69 31 -105.5t90 -36.5q89 0 147 73v281q0 23 -14.5 37t-40.5 14h-30v38l157 38v-411q0 -24 14.5 -37.5t41.5 -13.5h35v-38l-159 -38v97q-34 -46 -84.5 -71.5t-100.5 -25.5z" />
    <glyph glyph-name="v" unicode="v" horiz-adv-x="609" 
d="M109 421q-23 55 -85 57v41h220v-41q-61 0 -61 -30q0 -12 8 -33l129 -322l122 311q10 28 10 40q0 20 -18 27t-59 7v41h210v-41q-58 -5 -88 -74l-173 -404h-36z" />
    <glyph glyph-name="w" unicode="w" horiz-adv-x="859" 
d="M92 421q-23 55 -68 57v41h206v-41q-63 0 -63 -33q0 -9 7 -30l126 -321l106 265l-25 62q-20 54 -67 57v41h205v-41q-63 0 -63 -34q0 -10 7 -29l117 -322l121 311q9 23 9 37q0 37 -73 37v41h198v-41q-22 -2 -45.5 -22.5t-35.5 -51.5l-169 -404h-36l-119 298l-125 -298h-36z
" />
    <glyph glyph-name="x" unicode="x" horiz-adv-x="567" 
d="M24 40q25 6 44.5 20.5t46.5 48.5l128 159l-108 143q-50 62 -103 67v41h229v-41q-53 0 -53 -30q0 -16 17 -38l77 -101l69 96q23 32 23 48q0 25 -62 25v41h198v-41q-27 -6 -46.5 -21.5t-46.5 -46.5l-109 -135l132 -170q46 -59 83 -65v-40h-223v40q67 0 67 28q0 14 -18 37
l-99 129l-90 -120q-22 -31 -22 -48q0 -26 62 -26v-40h-196v40z" />
    <glyph glyph-name="y" unicode="y" horiz-adv-x="617" 
d="M102 -188q-30 0 -78 9v76q45 -15 93 -15q58 0 107 31t72 87l-178 411q-28 63 -91 68v40h226v-40q-60 0 -60 -42q0 -17 11 -44l129 -312l125 307q10 24 10 43q0 48 -85 48v40h211v-40q-28 -3 -44.5 -22t-30.5 -52l-171 -400q-10 -25 -19 -43t-31 -49t-46.5 -50.5t-64 -35
t-85.5 -15.5z" />
    <glyph glyph-name="z" unicode="z" horiz-adv-x="508" 
d="M44 0v32l310 443h-133q-64 0 -92 -24t-36 -88h-36v156h391v-32l-311 -444h141q64 0 95 27.5t47 107.5h37l-20 -178h-393z" />
    <glyph glyph-name="braceleft" unicode="{" horiz-adv-x="359" 
d="M333 -179q-98 2 -148.5 45.5t-50.5 138.5v167q0 62 -24 89t-86 42v49q62 13 86 40t24 89v168q0 95 50.5 138t148.5 45l2 -43q-74 -3 -107 -33t-33 -107v-192q0 -62 -29.5 -91t-87.5 -39q58 -11 87.5 -40t29.5 -91v-191q0 -76 33 -106.5t107 -34.5z" />
    <glyph glyph-name="bar" unicode="|" horiz-adv-x="211" 
d="M75 -115v951h61v-951h-61z" />
    <glyph glyph-name="braceright" unicode="}" horiz-adv-x="359" 
d="M24 -136q74 4 107 34.5t33 106.5v191q0 62 29.5 91t87.5 40q-58 10 -87.5 39t-29.5 91v192q0 77 -33 107t-107 33l2 43q98 -2 148.5 -45t50.5 -138v-168q0 -62 24 -89t86 -40v-49q-62 -15 -86 -42t-24 -89v-167q0 -95 -50.5 -138.5t-148.5 -45.5z" />
    <glyph glyph-name="asciitilde" unicode="~" 
d="M416 258q-32 0 -66 23t-66 45.5t-60 22.5q-56 0 -84 -83h-35q3 71 40 113t85 42q32 0 67.5 -23.5t68 -46.5t57.5 -23q28 0 47.5 26t26.5 75h36q-1 -78 -34.5 -124.5t-82.5 -46.5z" />
    <glyph glyph-name="exclamdown" unicode="&#xa1;" horiz-adv-x="336" 
d="M151 301h34l30 -526h-93zM106 447q0 25 17.5 42t44.5 17q28 0 45 -17t17 -42t-17 -42.5t-45 -17.5q-27 0 -44.5 17.5t-17.5 42.5z" />
    <glyph glyph-name="cent" unicode="&#xa2;" horiz-adv-x="659" 
d="M339 -11h-6l-8 -120h-42l9 124q-93 15 -143 85t-50 163q0 105 61.5 187.5t168.5 93.5l8 120h42l-8 -118q81 -3 132.5 -48t57.5 -124h-87q-2 51 -29.5 87t-76.5 45l-30 -429q8 -1 24 -1q57 0 98.5 26.5t59.5 71.5h37q-20 -75 -77 -119t-141 -44zM171 269q0 -71 32 -127.5
t94 -77.5l29 421q-72 -6 -113.5 -70t-41.5 -146z" />
    <glyph glyph-name="sterling" unicode="&#xa3;" horiz-adv-x="659" 
d="M157 -11q-55 0 -87.5 31.5t-32.5 78.5t33 80.5t86 33.5q58 0 111 -49q13 65 13 150v96h-125v43h125v41q0 120 58.5 182.5t145.5 62.5q41 0 83 -14v-81q-53 22 -109 22q-59 0 -95 -30.5t-36 -87.5q0 -95 96 -95h104v-43h-175v-80q0 -118 -36 -201q78 -71 150 -71
q104 0 124 121h33q-2 -88 -44.5 -139t-114.5 -51q-44 0 -82.5 23t-89.5 74q-52 -97 -135 -97zM90 102q0 -28 19.5 -46.5t53.5 -18.5q66 0 94 81q-46 49 -96 49q-33 0 -52 -19t-19 -46z" />
    <glyph glyph-name="currency" unicode="&#xa4;" horiz-adv-x="659" 
d="M130 0l-45 35l97 120q-52 57 -52 135q0 81 55 139l-100 123l45 34l99 -123q45 27 102 27q56 0 100 -26l99 122l45 -34l-99 -122q55 -58 55 -140q0 -79 -52 -136l96 -119l-45 -35l-95 117q-48 -27 -104 -27t-104 27zM186 290q0 -60 42 -102.5t103 -42.5q60 0 101.5 42.5
t41.5 102.5t-41.5 102t-101.5 42q-61 0 -103 -42t-42 -102z" />
    <glyph glyph-name="yen" unicode="&#xa5;" horiz-adv-x="659" 
d="M178 0v43l56 2q29 1 45.5 16t16.5 41v59h-172v43h172v90h-172v43h172v9l-168 279q-29 48 -88 53v43h246v-43q-74 0 -74 -38q0 -10 8 -26l122 -212l112 197q13 22 13 38q0 42 -94 42v42h246v-43q-48 -10 -65 -23t-42 -54l-140 -233v-31h171v-43h-171v-90h171v-43h-171v-59
q0 -25 16 -40.5t45 -16.5l56 -2v-43h-311z" />
    <glyph glyph-name="brokenbar" unicode="&#xa6;" horiz-adv-x="211" 
d="M75 436v400h61v-400h-61zM75 -115v400h61v-400h-61z" />
    <glyph glyph-name="section" unicode="&#xa7;" horiz-adv-x="491" 
d="M263 -11q-85 0 -142.5 43.5t-70.5 115.5h83q26 -122 138 -122q48 0 77 22.5t29 64.5t-28 64.5t-79 36.5l-55 16q-34 9 -55.5 18t-44.5 24.5t-34 39.5t-11 57q0 66 55 100q-54 35 -54 104q0 71 49.5 109.5t125.5 38.5q70 0 119 -36t66 -99h-83q-8 47 -41.5 73t-76.5 26
t-72.5 -24.5t-29.5 -66.5t29 -64t85 -39l62 -18q63 -19 97.5 -48.5t34.5 -87.5q0 -66 -55 -100q54 -37 54 -104q0 -68 -46.5 -106t-125.5 -38zM127 391q0 -40 28 -62.5t78 -37.5l45 -13q36 -9 72 -25q28 23 28 63q0 42 -28.5 64.5t-79.5 36.5l-45 13q-37 9 -73 23
q-25 -22 -25 -62z" />
    <glyph glyph-name="dieresis" unicode="&#xa8;" horiz-adv-x="292" 
d="M242 627q-23 0 -37 14.5t-14 38.5q0 22 14.5 36.5t36.5 14.5q23 0 36.5 -14t13.5 -37q0 -25 -13.5 -39t-36.5 -14zM0 680q0 22 14 36.5t37 14.5q22 0 36 -14.5t14 -36.5q0 -24 -14 -38.5t-36 -14.5q-23 0 -37 14.5t-14 38.5z" />
    <glyph glyph-name="copyright" unicode="&#xa9;" horiz-adv-x="848" 
d="M425 -11q-158 0 -264 104.5t-106 267.5q0 162 106 266.5t264 104.5q157 0 263 -104.5t106 -266.5q0 -163 -106 -267.5t-263 -104.5zM100 361q0 -146 93.5 -238.5t231.5 -92.5t230.5 92.5t92.5 238.5q0 145 -93 237.5t-230 92.5t-231 -92.5t-94 -237.5zM232 356
q0 95 55.5 166t147.5 71q63 0 104.5 -36.5t48.5 -104.5h-80q-3 46 -27 72.5t-63 26.5q-55 0 -86.5 -51t-31.5 -122q0 -75 36 -126.5t103 -51.5q40 0 69 21.5t41 60.5h38q-15 -66 -59.5 -103.5t-108.5 -37.5q-86 0 -136.5 63t-50.5 152z" />
    <glyph glyph-name="ordfeminine" unicode="&#xaa;" horiz-adv-x="434" 
d="M142 324q-45 0 -71.5 26.5t-26.5 70.5q0 28 9.5 48t30.5 33t37 19.5t45 14.5q27 8 41 13t32 15t26 25t8 35q0 30 -17.5 47.5t-48.5 17.5q-36 0 -59 -23.5t-30 -66.5l-70 2q10 56 52.5 88t104.5 32q58 0 89.5 -29t31.5 -82v-202q0 -44 28 -44q17 0 35 10v-29
q-26 -21 -56 -21q-27 0 -43.5 17.5t-19.5 48.5q-50 -66 -128 -66zM109 434q0 -62 60 -62q30 0 57.5 16.5t41.5 39.5v118q-23 -16 -68 -32l-24 -8q-34 -11 -50.5 -25.5t-16.5 -46.5z" />
    <glyph glyph-name="guillemotleft" unicode="&#xab;" horiz-adv-x="521" 
d="M207 71l-168 191v44l168 190l35 -29l-130 -184l130 -183zM258 262v44l168 190l35 -29l-130 -184l130 -183l-35 -29z" />
    <glyph glyph-name="logicalnot" unicode="&#xac;" 
d="M465 107v149h-348v53h404v-202h-56z" />
    <glyph glyph-name="registered" unicode="&#xae;" horiz-adv-x="535" 
d="M268 288q-94 0 -158 63t-64 159q0 97 64 159.5t158 62.5q93 0 156.5 -62.5t63.5 -159.5q0 -96 -63.5 -159t-156.5 -63zM79 510q0 -84 54.5 -138t134.5 -54t133.5 54t53.5 138t-53.5 138t-133.5 54t-134.5 -54t-54.5 -138zM167 404v21l10 1q21 2 21 21v142q0 19 -21 21
l-10 1v21h114q39 0 60.5 -17t21.5 -43q0 -21 -12.5 -39t-36.5 -25l43 -59q14 -18 24 -21v-24h-45q-14 15 -22 28l-44 62h-27v-47q0 -18 21 -23l4 -1v-19h-101zM243 519h24q21 0 34 14t13 30q0 17 -12.5 31t-35.5 14h-23v-89z" />
    <glyph glyph-name="macron" unicode="&#xaf;" horiz-adv-x="307" 
d="M0 616v56h307v-56h-307z" />
    <glyph glyph-name="degree" unicode="&#xb0;" horiz-adv-x="436" 
d="M217 438q-74 0 -123.5 48t-49.5 122t49.5 122t123.5 48q75 0 124.5 -48t49.5 -122t-49.5 -122t-124.5 -48zM112 608q0 -60 28 -97t77 -37t77.5 37t28.5 97q0 61 -28.5 97t-77.5 36t-77 -36t-28 -97z" />
    <glyph glyph-name="plusminus" unicode="&#xb1;" 
d="M107 125v54h424v-54h-424zM107 470v54h186v195h54v-195h184v-54h-184v-194h-54v194h-186z" />
    <glyph glyph-name="uni00B2" unicode="&#xb2;" horiz-adv-x="373" 
d="M40 272v36l73 68q80 77 115 124t35 102q0 38 -19 60.5t-53 22.5q-39 0 -64.5 -34t-27.5 -110h-67q7 95 52 137.5t110 42.5q60 0 95.5 -32.5t35.5 -85.5q0 -30 -11 -58t-35.5 -57.5t-43 -47.5t-54.5 -51l-74 -66h232v-51h-299z" />
    <glyph glyph-name="uni00B3" unicode="&#xb3;" horiz-adv-x="371" 
d="M193 265q-61 0 -103 33.5t-55 93.5h70q4 -43 29.5 -67.5t63.5 -24.5q36 0 56.5 20.5t20.5 57.5q0 98 -164 98v44q158 0 158 93q0 35 -19.5 53.5t-51.5 18.5q-38 0 -63.5 -23.5t-29.5 -65.5h-70q13 59 54.5 92t105.5 33q62 0 98.5 -32t36.5 -83q0 -82 -110 -108
q54 -7 85 -38t31 -72q0 -50 -38 -86.5t-105 -36.5z" />
    <glyph glyph-name="acute" unicode="&#xb4;" horiz-adv-x="178" 
d="M48 606h-48l80 150h98z" />
    <glyph glyph-name="paragraph" unicode="&#xb6;" horiz-adv-x="588" 
d="M295 -135v488h-27q-103 0 -158 53.5t-55 130.5q0 74 54 129t158 55h282v-19l-34 -3q-73 -5 -73 -71v-763h-37v838h-73v-838h-37zM135 542q0 -76 41 -123.5t119 -48.5v336q-79 -1 -119.5 -47t-40.5 -117z" />
    <glyph glyph-name="periodcentered" unicode="&#xb7;" horiz-adv-x="244" 
d="M121 300q-27 0 -44 17t-17 42t17 42.5t44 17.5q28 0 45.5 -17.5t17.5 -42.5t-17 -42t-46 -17z" />
    <glyph glyph-name="cedilla" unicode="&#xb8;" horiz-adv-x="198" 
d="M101 -219q-57 0 -101 39l23 34q39 -36 79 -36q51 0 51 40q0 51 -98 51l14 92h32v-68q44 1 70.5 -20t26.5 -53t-25 -55.5t-72 -23.5z" />
    <glyph glyph-name="uni00B9" unicode="&#xb9;" horiz-adv-x="371" 
d="M42 272v36l91 3q28 2 28 29v315q-52 -31 -119 -31v36q90 0 144 61h28v-381q0 -27 28 -29l91 -3v-36h-291z" />
    <glyph glyph-name="ordmasculine" unicode="&#xba;" horiz-adv-x="452" 
d="M226 324q-85 0 -133.5 57t-48.5 140q0 89 50.5 144.5t131.5 55.5q84 0 132.5 -57t48.5 -140q0 -88 -50.5 -144t-130.5 -56zM112 536q0 -76 30.5 -127t91.5 -51q55 0 80.5 42.5t25.5 109.5q0 76 -30.5 126.5t-91.5 50.5q-55 0 -80.5 -42t-25.5 -109z" />
    <glyph glyph-name="guillemotright" unicode="&#xbb;" horiz-adv-x="521" 
d="M95 71l-35 29l130 183l-130 184l35 29l168 -190v-44zM279 100l130 183l-130 184l35 29l168 -190v-44l-168 -191z" />
    <glyph glyph-name="onequarter" unicode="&#xbc;" horiz-adv-x="1011" 
d="M75 271v36l91 3q28 2 28 29v315q-52 -31 -119 -31v36q90 0 144 61h28v-381q0 -27 28 -29l91 -3v-36h-291zM264 0l461 721h54l-462 -721h-53zM607 120v43l211 277h46v-268h75v-52h-75v-120h-54v120h-203zM662 172h148v194z" />
    <glyph glyph-name="onehalf" unicode="&#xbd;" horiz-adv-x="1016" 
d="M75 271v36l91 3q28 2 28 29v315q-52 -31 -119 -31v36q90 0 144 61h28v-381q0 -27 28 -29l91 -3v-36h-291zM264 0l461 721h54l-462 -721h-53zM639 269q7 95 52 137.5t110 42.5q60 0 95.5 -32.5t35.5 -85.5q0 -30 -11 -58t-35.5 -57.5t-43 -47.5t-54.5 -51l-74 -66h232v-51
h-299v36l73 68q80 77 115 124t35 102q0 38 -19 60.5t-53 22.5q-39 0 -64.5 -34t-27.5 -110h-67z" />
    <glyph glyph-name="threequarters" unicode="&#xbe;" horiz-adv-x="1019" 
d="M232 265q-61 0 -103 33.5t-55 93.5h70q4 -43 29.5 -67.5t63.5 -24.5q36 0 56.5 20.5t20.5 57.5q0 98 -164 98v44q158 0 158 93q0 35 -19.5 53.5t-51.5 18.5q-38 0 -63.5 -23.5t-29.5 -65.5h-70q13 59 54.5 92t105.5 33q62 0 98.5 -32t36.5 -83q0 -82 -110 -108
q54 -7 85 -38t31 -72q0 -50 -38 -86.5t-105 -36.5zM297 0l461 721h54l-462 -721h-53zM614 120v43l211 277h46v-268h75v-52h-75v-120h-54v120h-203zM669 172h148v194z" />
    <glyph glyph-name="questiondown" unicode="&#xbf;" horiz-adv-x="489" 
d="M312 229q5 -22 5 -37q0 -68 -93 -147l-40 -34q-23 -19 -35.5 -31.5t-25.5 -37t-13 -50.5q0 -42 31 -67t74 -25q51 0 89.5 36.5t41.5 106.5h93q-8 -87 -73 -136.5t-146 -49.5q-72 0 -121 40t-49 113q0 36 15 67t29.5 45t41.5 37l39 32q41 33 63.5 66.5t22.5 82.5v52h36z
M216 447q0 25 17 42t46 17q27 0 44 -17t17 -42t-17 -42.5t-44 -17.5q-28 0 -45.5 17.5t-17.5 42.5z" />
    <glyph glyph-name="Agrave" unicode="&#xc0;" horiz-adv-x="785" 
d="M24 43q42 9 62.5 22.5t34.5 47.5l251 608h37l260 -624q21 -49 92 -54v-43h-271v43q50 0 73 9t23 30q0 14 -7 29l-54 134h-296l-50 -125q-9 -21 -9 -36q0 -22 23.5 -31.5t80.5 -9.5v-43h-250v43zM228 949h98l80 -150h-48zM246 289h260l-131 318z" />
    <glyph glyph-name="Aacute" unicode="&#xc1;" horiz-adv-x="785" 
d="M24 43q42 9 62.5 22.5t34.5 47.5l251 608h37l260 -624q21 -49 92 -54v-43h-271v43q50 0 73 9t23 30q0 14 -7 29l-54 134h-296l-50 -125q-9 -21 -9 -36q0 -22 23.5 -31.5t80.5 -9.5v-43h-250v43zM246 289h260l-131 318zM369 799l78 150h100l-130 -150h-48z" />
    <glyph glyph-name="Acircumflex" unicode="&#xc2;" horiz-adv-x="785" 
d="M24 43q42 9 62.5 22.5t34.5 47.5l251 608h37l260 -624q21 -49 92 -54v-43h-271v43q50 0 73 9t23 30q0 14 -7 29l-54 134h-296l-50 -125q-9 -21 -9 -36q0 -22 23.5 -31.5t80.5 -9.5v-43h-250v43zM242 799l128 162h45l127 -162h-61l-89 98l-87 -98h-63zM246 289h260
l-131 318z" />
    <glyph glyph-name="Atilde" unicode="&#xc3;" horiz-adv-x="785" 
d="M24 43q42 9 62.5 22.5t34.5 47.5l251 608h37l260 -624q21 -49 92 -54v-43h-271v43q50 0 73 9t23 30q0 14 -7 29l-54 134h-296l-50 -125q-9 -21 -9 -36q0 -22 23.5 -31.5t80.5 -9.5v-43h-250v43zM244 803q4 59 29.5 92.5t62.5 33.5q29 0 72 -33t64 -33q17 0 32.5 15
t18.5 51h32q0 -60 -25.5 -95t-63.5 -35q-28 0 -71 32.5t-63 32.5q-43 0 -53 -61h-35zM246 289h260l-131 318z" />
    <glyph glyph-name="Adieresis" unicode="&#xc4;" horiz-adv-x="785" 
d="M24 43q42 9 62.5 22.5t34.5 47.5l251 608h37l260 -624q21 -49 92 -54v-43h-271v43q50 0 73 9t23 30q0 14 -7 29l-54 134h-296l-50 -125q-9 -21 -9 -36q0 -22 23.5 -31.5t80.5 -9.5v-43h-250v43zM240 852q0 22 14 36t37 14q22 0 36 -14t14 -36q0 -24 -14 -38.5t-36 -14.5
q-23 0 -37 14.5t-14 38.5zM246 289h260l-131 318zM443 852q0 22 13.5 36t35.5 14q23 0 37 -13.5t14 -36.5q0 -24 -14 -38.5t-37 -14.5q-22 0 -35.5 14.5t-13.5 38.5z" />
    <glyph glyph-name="Aring" unicode="&#xc5;" horiz-adv-x="785" 
d="M24 43q42 9 62.5 22.5t34.5 47.5l251 608h37l260 -624q21 -49 92 -54v-43h-271v43q50 0 73 9t23 30q0 14 -7 29l-54 134h-296l-50 -125q-9 -21 -9 -36q0 -22 23.5 -31.5t80.5 -9.5v-43h-250v43zM246 289h260l-131 318zM298 884q0 41 27.5 67.5t67.5 26.5t67 -26.5
t27 -67.5t-27.5 -68.5t-66.5 -27.5q-41 0 -68 27.5t-27 68.5zM339 884q0 -24 15.5 -41t38.5 -17q22 0 37.5 17t15.5 41q0 23 -15.5 39t-37.5 16q-23 0 -38.5 -16t-15.5 -39z" />
    <glyph glyph-name="AE" unicode="&#xc6;" horiz-adv-x="1061" 
d="M24 43q31 4 48 18.5t40 51.5l309 489q20 32 20 47q0 24 -62 27l-45 2v43h635v-188h-36q-5 77 -39 110.5t-107 33.5h-190v-289h120q56 0 75.5 23.5t23.5 82.5h40v-255h-40q-4 59 -23.5 82.5t-75.5 23.5h-120v-244q0 -26 16 -41.5t45 -15.5h115q88 0 128.5 45t59.5 139h41
l-29 -228h-560v43l46 2q29 1 45 16t16 41v133h-273l-73 -119q-16 -25 -16 -40q0 -20 24.5 -26.5t77.5 -6.5v-43h-236v43zM276 279h244v391z" />
    <glyph glyph-name="Ccedilla" unicode="&#xc7;" horiz-adv-x="736" 
d="M389 -219q-57 0 -101 39l23 34q39 -36 79 -36q51 0 51 40q0 51 -98 51l11 73q-143 8 -221 112.5t-78 247.5q0 101 38 189.5t119.5 148t191.5 59.5q113 0 185 -63t88 -178h-101q-11 85 -59 140.5t-135 55.5q-78 0 -136 -47t-85 -117.5t-27 -153.5t27.5 -153t88 -117
t144.5 -47q85 0 151 47t86 141h42q-18 -125 -94 -193.5t-190 -72.5v-48q44 1 70.5 -20t26.5 -53t-25 -55.5t-72 -23.5z" />
    <glyph glyph-name="Egrave" unicode="&#xc8;" horiz-adv-x="687" 
d="M39 0v43l46 2q60 3 60 57v517q0 54 -60 57l-46 2v43h556v-188h-37q-5 77 -38.5 110.5t-107.5 33.5h-190v-289h120q57 0 76.5 23.5t22.5 82.5h40v-255h-40q-3 59 -22.5 82.5t-76.5 23.5h-120v-244q0 -26 19 -41.5t51 -15.5h107q87 0 127.5 45t60.5 139h40l-28 -228h-560z
M224 949h98l80 -150h-48z" />
    <glyph glyph-name="Eacute" unicode="&#xc9;" horiz-adv-x="687" 
d="M39 0v43l46 2q60 3 60 57v517q0 54 -60 57l-46 2v43h556v-188h-37q-5 77 -38.5 110.5t-107.5 33.5h-190v-289h120q57 0 76.5 23.5t22.5 82.5h40v-255h-40q-3 59 -22.5 82.5t-76.5 23.5h-120v-244q0 -26 19 -41.5t51 -15.5h107q87 0 127.5 45t60.5 139h40l-28 -228h-560z
M322 799l80 150h98l-130 -150h-48z" />
    <glyph glyph-name="Ecircumflex" unicode="&#xca;" horiz-adv-x="687" 
d="M39 0v43l46 2q60 3 60 57v517q0 54 -60 57l-46 2v43h556v-188h-37q-5 77 -38.5 110.5t-107.5 33.5h-190v-289h120q57 0 76.5 23.5t22.5 82.5h40v-255h-40q-3 59 -22.5 82.5t-76.5 23.5h-120v-244q0 -26 19 -41.5t51 -15.5h107q87 0 127.5 45t60.5 139h40l-28 -228h-560z
M204 799l128 162h45l127 -162h-61l-89 98l-87 -98h-63z" />
    <glyph glyph-name="Edieresis" unicode="&#xcb;" horiz-adv-x="687" 
d="M39 0v43l46 2q60 3 60 57v517q0 54 -60 57l-46 2v43h556v-188h-37q-5 77 -38.5 110.5t-107.5 33.5h-190v-289h120q57 0 76.5 23.5t22.5 82.5h40v-255h-40q-3 59 -22.5 82.5t-76.5 23.5h-120v-244q0 -26 19 -41.5t51 -15.5h107q87 0 127.5 45t60.5 139h40l-28 -228h-560z
M196 852q0 22 14 36t37 14q22 0 36 -14t14 -36q0 -24 -14 -38.5t-36 -14.5q-23 0 -37 14.5t-14 38.5zM399 852q0 22 13.5 36t35.5 14q23 0 37 -13.5t14 -36.5q0 -24 -14 -38.5t-37 -14.5q-22 0 -35.5 14.5t-13.5 38.5z" />
    <glyph glyph-name="Igrave" unicode="&#xcc;" horiz-adv-x="388" 
d="M39 0v43l56 2q28 1 44.5 17t16.5 40v517q0 24 -16.5 40t-44.5 17l-56 2v43h310v-43l-56 -2q-28 -1 -44.5 -17t-16.5 -40v-517q0 -24 16.5 -40t44.5 -17l56 -2v-43h-310zM40 949h98l80 -150h-48z" />
    <glyph glyph-name="Iacute" unicode="&#xcd;" horiz-adv-x="388" 
d="M39 0v43l56 2q28 1 44.5 17t16.5 40v517q0 24 -16.5 40t-44.5 17l-56 2v43h310v-43l-56 -2q-28 -1 -44.5 -17t-16.5 -40v-517q0 -24 16.5 -40t44.5 -17l56 -2v-43h-310zM172 799l80 150h98l-130 -150h-48z" />
    <glyph glyph-name="Icircumflex" unicode="&#xce;" horiz-adv-x="388" 
d="M39 0v43l56 2q28 1 44.5 17t16.5 40v517q0 24 -16.5 40t-44.5 17l-56 2v43h310v-43l-56 -2q-28 -1 -44.5 -17t-16.5 -40v-517q0 -24 16.5 -40t44.5 -17l56 -2v-43h-310zM44 799l128 162h45l127 -162h-61l-89 98l-87 -98h-63z" />
    <glyph glyph-name="Idieresis" unicode="&#xcf;" horiz-adv-x="388" 
d="M39 0v43l56 2q28 1 44.5 17t16.5 40v517q0 24 -16.5 40t-44.5 17l-56 2v43h310v-43l-56 -2q-28 -1 -44.5 -17t-16.5 -40v-517q0 -24 16.5 -40t44.5 -17l56 -2v-43h-310zM39 852q0 22 14 36t37 14q22 0 36 -14t14 -36q0 -24 -14 -38.5t-36 -14.5q-23 0 -37 14.5t-14 38.5z
M242 852q0 22 13.5 36t35.5 14q23 0 37 -13.5t14 -36.5q0 -24 -14 -38.5t-37 -14.5q-22 0 -35.5 14.5t-13.5 38.5z" />
    <glyph glyph-name="Eth" unicode="&#xd0;" horiz-adv-x="778" 
d="M40 340v42h105v237q0 54 -60 57l-46 2v43h309q177 0 277 -98t100 -238q0 -71 -26 -138.5t-74.5 -123t-126.5 -89.5t-173 -34h-286v43l46 2q60 3 60 57v238h-105zM222 101q0 -26 19 -41.5t51 -15.5h42q95 0 164.5 49t101.5 121.5t32 154.5q0 128 -80 218t-223 90h-107
v-295h183v-42h-183v-239z" />
    <glyph glyph-name="Ntilde" unicode="&#xd1;" horiz-adv-x="855" 
d="M45 0v43l50 2q31 2 49 22t18 55v508l-4 6q-20 26 -48 33.5t-71 8.5v43h175l445 -589v467q0 35 -18.5 55.5t-48.5 21.5l-60 2v43h295v-43l-49 -2q-32 -2 -50 -22t-18 -55v-599h-44l-453 595v-473q0 -34 18.5 -55t47.5 -22l61 -2v-43h-295zM279 803q4 59 29.5 92.5
t62.5 33.5q29 0 72 -33t64 -33q17 0 32.5 15t18.5 51h32q0 -60 -25.5 -95t-63.5 -35q-28 0 -71 32.5t-63 32.5q-43 0 -53 -61h-35z" />
    <glyph glyph-name="Ograve" unicode="&#xd2;" horiz-adv-x="798" 
d="M400 -19q-150 0 -247.5 109.5t-97.5 271.5q0 161 96.5 269t247.5 108q150 0 248 -110t98 -271t-97.5 -269t-247.5 -108zM146 397q0 -156 79.5 -263.5t199.5 -107.5q103 0 165 81t62 215q0 157 -79 265t-199 108q-103 0 -165.5 -82t-62.5 -216zM256 949h98l80 -150h-48z
" />
    <glyph glyph-name="Oacute" unicode="&#xd3;" horiz-adv-x="798" 
d="M400 -19q-150 0 -247.5 109.5t-97.5 271.5q0 161 96.5 269t247.5 108q150 0 248 -110t98 -271t-97.5 -269t-247.5 -108zM146 397q0 -156 79.5 -263.5t199.5 -107.5q103 0 165 81t62 215q0 157 -79 265t-199 108q-103 0 -165.5 -82t-62.5 -216zM379 799l80 150h98
l-130 -150h-48z" />
    <glyph glyph-name="Ocircumflex" unicode="&#xd4;" horiz-adv-x="798" 
d="M400 -19q-150 0 -247.5 109.5t-97.5 271.5q0 161 96.5 269t247.5 108q150 0 248 -110t98 -271t-97.5 -269t-247.5 -108zM146 397q0 -156 79.5 -263.5t199.5 -107.5q103 0 165 81t62 215q0 157 -79 265t-199 108q-103 0 -165.5 -82t-62.5 -216zM249 799l128 162h45
l127 -162h-61l-89 98l-87 -98h-63z" />
    <glyph glyph-name="Otilde" unicode="&#xd5;" horiz-adv-x="798" 
d="M400 -19q-150 0 -247.5 109.5t-97.5 271.5q0 161 96.5 269t247.5 108q150 0 248 -110t98 -271t-97.5 -269t-247.5 -108zM146 397q0 -156 79.5 -263.5t199.5 -107.5q103 0 165 81t62 215q0 157 -79 265t-199 108q-103 0 -165.5 -82t-62.5 -216zM246 803q4 59 29.5 92.5
t62.5 33.5q29 0 72 -33t64 -33q17 0 32.5 15t18.5 51h32q0 -60 -25.5 -95t-63.5 -35q-28 0 -71 32.5t-63 32.5q-43 0 -53 -61h-35z" />
    <glyph glyph-name="Odieresis" unicode="&#xd6;" horiz-adv-x="798" 
d="M400 -19q-150 0 -247.5 109.5t-97.5 271.5q0 161 96.5 269t247.5 108q150 0 248 -110t98 -271t-97.5 -269t-247.5 -108zM146 397q0 -156 79.5 -263.5t199.5 -107.5q103 0 165 81t62 215q0 157 -79 265t-199 108q-103 0 -165.5 -82t-62.5 -216zM248 852q0 22 14 36t37 14
q22 0 36 -14t14 -36q0 -24 -14 -38.5t-36 -14.5q-23 0 -37 14.5t-14 38.5zM451 852q0 22 13.5 36t35.5 14q23 0 37 -13.5t14 -36.5q0 -24 -14 -38.5t-37 -14.5q-22 0 -35.5 14.5t-13.5 38.5z" />
    <glyph glyph-name="multiply" unicode="&#xd7;" 
d="M456 105l-137 138l-131 -131l-38 38l131 131l-138 137l39 39l138 -137l130 130l38 -38l-130 -130l137 -138z" />
    <glyph glyph-name="Oslash" unicode="&#xd8;" horiz-adv-x="798" 
d="M129 -28l-40 32l65 84q-99 110 -99 274q0 161 96.5 269t247.5 108q117 0 207 -71l64 83l42 -32l-68 -87q101 -109 101 -274q0 -161 -97.5 -269t-247.5 -108q-118 0 -208 72zM146 397q0 -137 63 -239l348 448q-76 89 -183 89q-103 0 -165.5 -82t-62.5 -216zM241 115
q76 -89 184 -89q103 0 165 81t62 215q0 138 -63 240z" />
    <glyph glyph-name="Ugrave" unicode="&#xd9;" horiz-adv-x="845" 
d="M425 -19q-120 0 -202.5 72.5t-82.5 203.5v362q0 54 -61 57l-45 2v43h289v-43l-45 -2q-61 -3 -61 -57v-370q0 -103 62.5 -159t156.5 -56q89 0 148 52.5t59 148.5v364q0 35 -18 55.5t-48 21.5l-62 2v43h296v-43l-50 -2q-32 -2 -49.5 -22t-17.5 -55v-360q0 -123 -77 -190.5
t-192 -67.5zM271 949h98l80 -150h-48z" />
    <glyph glyph-name="Uacute" unicode="&#xda;" horiz-adv-x="845" 
d="M425 -19q-120 0 -202.5 72.5t-82.5 203.5v362q0 54 -61 57l-45 2v43h289v-43l-45 -2q-61 -3 -61 -57v-370q0 -103 62.5 -159t156.5 -56q89 0 148 52.5t59 148.5v364q0 35 -18 55.5t-48 21.5l-62 2v43h296v-43l-50 -2q-32 -2 -49.5 -22t-17.5 -55v-360q0 -123 -77 -190.5
t-192 -67.5zM394 799l80 150h98l-130 -150h-48z" />
    <glyph glyph-name="Ucircumflex" unicode="&#xdb;" horiz-adv-x="845" 
d="M425 -19q-120 0 -202.5 72.5t-82.5 203.5v362q0 54 -61 57l-45 2v43h289v-43l-45 -2q-61 -3 -61 -57v-370q0 -103 62.5 -159t156.5 -56q89 0 148 52.5t59 148.5v364q0 35 -18 55.5t-48 21.5l-62 2v43h296v-43l-50 -2q-32 -2 -49.5 -22t-17.5 -55v-360q0 -123 -77 -190.5
t-192 -67.5zM272 799l128 162h45l127 -162h-61l-89 98l-87 -98h-63z" />
    <glyph glyph-name="Udieresis" unicode="&#xdc;" horiz-adv-x="845" 
d="M425 -19q-120 0 -202.5 72.5t-82.5 203.5v362q0 54 -61 57l-45 2v43h289v-43l-45 -2q-61 -3 -61 -57v-370q0 -103 62.5 -159t156.5 -56q89 0 148 52.5t59 148.5v364q0 35 -18 55.5t-48 21.5l-62 2v43h296v-43l-50 -2q-32 -2 -49.5 -22t-17.5 -55v-360q0 -123 -77 -190.5
t-192 -67.5zM270 852q0 22 14 36t37 14q22 0 36 -14t14 -36q0 -24 -14 -38.5t-36 -14.5q-23 0 -37 14.5t-14 38.5zM473 852q0 22 13.5 36t35.5 14q23 0 37 -13.5t14 -36.5q0 -24 -14 -38.5t-37 -14.5q-22 0 -35.5 14.5t-13.5 38.5z" />
    <glyph glyph-name="Yacute" unicode="&#xdd;" horiz-adv-x="702" 
d="M199 0v43l56 2q28 1 44.5 17t16.5 40v172l-208 350q-30 49 -89 54v43h253v-43q-77 0 -77 -38q0 -12 9 -27l161 -275l150 260q14 25 14 41q0 40 -98 40v42h253v-43q-44 -8 -63.5 -21.5t-37.5 -44.5l-191 -317v-193q0 -23 17 -39.5t45 -17.5l56 -2v-43h-311zM330 799
l80 150h98l-130 -150h-48z" />
    <glyph glyph-name="Thorn" unicode="&#xde;" horiz-adv-x="662" 
d="M39 0v43l46 2q60 3 60 57v517q0 54 -60 57l-46 2v43h299v-43l-55 -2q-29 -1 -45 -16.5t-16 -40.5v-32h152q111 0 172 -55.5t61 -133.5q0 -89 -72 -155.5t-198 -66.5h-115v-74q0 -24 16.5 -40t44.5 -17l55 -2v-43h-299zM222 219h107q87 0 137 50t50 117q0 64 -49 110.5
t-135 46.5h-110v-324z" />
    <glyph glyph-name="germandbls" unicode="&#xdf;" 
d="M424 -11q-115 0 -169 97h88q27 -59 93 -59q41 0 68 22t27 65q0 39 -23.5 67t-56.5 45.5t-66.5 33.5t-57 40.5t-23.5 57.5q0 27 16.5 49.5t40 39t47 34t40 45.5t16.5 63q0 57 -38 86t-93 29q-62 0 -102.5 -38t-40.5 -120v-546h-161v40l33 2q56 3 56 51v442q0 103 61 153.5
t162 50.5q84 0 143.5 -37t59.5 -110q0 -39 -18.5 -68.5t-45 -47t-52.5 -31t-44.5 -29.5t-18.5 -34q0 -21 23.5 -38.5t57.5 -33t67.5 -35.5t57 -55t23.5 -82q0 -71 -50 -110t-120 -39z" />
    <glyph glyph-name="agrave" unicode="&#xe0;" horiz-adv-x="540" 
d="M185 -11q-59 0 -97 34.5t-38 98.5q0 29 9.5 51t23 36.5t41.5 27.5t51.5 21t67.5 21q36 10 54 16.5t40 19.5t31.5 32.5t9.5 47.5q0 47 -28 70.5t-74 23.5q-53 0 -88 -34t-44 -101h-88q14 86 73.5 129.5t145.5 43.5q81 0 124 -39t43 -110v-276q0 -68 45 -68q13 0 31 5v-30
q-29 -20 -62 -20q-35 0 -59 26t-25 76q-34 -48 -85.5 -75t-101.5 -27zM129 756h98l80 -150h-48zM130 139q0 -93 94 -93q45 0 85 23t61 56v172q-39 -25 -96 -43l-38 -12q-59 -18 -82.5 -39.5t-23.5 -63.5z" />
    <glyph glyph-name="aacute" unicode="&#xe1;" horiz-adv-x="540" 
d="M185 -11q-59 0 -97 34.5t-38 98.5q0 29 9.5 51t23 36.5t41.5 27.5t51.5 21t67.5 21q36 10 54 16.5t40 19.5t31.5 32.5t9.5 47.5q0 47 -28 70.5t-74 23.5q-53 0 -88 -34t-44 -101h-88q14 86 73.5 129.5t145.5 43.5q81 0 124 -39t43 -110v-276q0 -68 45 -68q13 0 31 5v-30
q-29 -20 -62 -20q-35 0 -59 26t-25 76q-34 -48 -85.5 -75t-101.5 -27zM130 139q0 -93 94 -93q45 0 85 23t61 56v172q-39 -25 -96 -43l-38 -12q-59 -18 -82.5 -39.5t-23.5 -63.5zM229 606l80 150h98l-130 -150h-48z" />
    <glyph glyph-name="acircumflex" unicode="&#xe2;" horiz-adv-x="540" 
d="M185 -11q-59 0 -97 34.5t-38 98.5q0 29 9.5 51t23 36.5t41.5 27.5t51.5 21t67.5 21q36 10 54 16.5t40 19.5t31.5 32.5t9.5 47.5q0 47 -28 70.5t-74 23.5q-53 0 -88 -34t-44 -101h-88q14 86 73.5 129.5t145.5 43.5q81 0 124 -39t43 -110v-276q0 -68 45 -68q13 0 31 5v-30
q-29 -20 -62 -20q-35 0 -59 26t-25 76q-34 -48 -85.5 -75t-101.5 -27zM105 606l128 161h45l127 -161h-61l-89 98l-87 -98h-63zM130 139q0 -93 94 -93q45 0 85 23t61 56v172q-39 -25 -96 -43l-38 -12q-59 -18 -82.5 -39.5t-23.5 -63.5z" />
    <glyph glyph-name="atilde" unicode="&#xe3;" horiz-adv-x="540" 
d="M185 -11q-59 0 -97 34.5t-38 98.5q0 29 9.5 51t23 36.5t41.5 27.5t51.5 21t67.5 21q36 10 54 16.5t40 19.5t31.5 32.5t9.5 47.5q0 47 -28 70.5t-74 23.5q-53 0 -88 -34t-44 -101h-88q14 86 73.5 129.5t145.5 43.5q81 0 124 -39t43 -110v-276q0 -68 45 -68q13 0 31 5v-30
q-29 -20 -62 -20q-35 0 -59 26t-25 76q-34 -48 -85.5 -75t-101.5 -27zM107 611q4 59 29.5 92t62.5 33q29 0 72 -33.5t64 -33.5q18 0 33 15.5t18 50.5h32q0 -59 -25.5 -94t-63.5 -35q-28 0 -71 32.5t-63 32.5q-17 0 -32.5 -14t-20.5 -46h-35zM130 139q0 -93 94 -93
q45 0 85 23t61 56v172q-39 -25 -96 -43l-38 -12q-59 -18 -82.5 -39.5t-23.5 -63.5z" />
    <glyph glyph-name="adieresis" unicode="&#xe4;" horiz-adv-x="540" 
d="M185 -11q-59 0 -97 34.5t-38 98.5q0 29 9.5 51t23 36.5t41.5 27.5t51.5 21t67.5 21q36 10 54 16.5t40 19.5t31.5 32.5t9.5 47.5q0 47 -28 70.5t-74 23.5q-53 0 -88 -34t-44 -101h-88q14 86 73.5 129.5t145.5 43.5q81 0 124 -39t43 -110v-276q0 -68 45 -68q13 0 31 5v-30
q-29 -20 -62 -20q-35 0 -59 26t-25 76q-34 -48 -85.5 -75t-101.5 -27zM109 680q0 22 14.5 36.5t36.5 14.5t36 -14.5t14 -36.5q0 -24 -14 -38.5t-36 -14.5q-23 0 -37 14.5t-14 38.5zM130 139q0 -93 94 -93q45 0 85 23t61 56v172q-39 -25 -96 -43l-38 -12q-59 -18 -82.5 -39.5
t-23.5 -63.5zM300 680q0 22 14 36.5t37 14.5t36.5 -14t13.5 -37q0 -25 -13.5 -39t-36.5 -14t-37 14.5t-14 38.5z" />
    <glyph glyph-name="aring" unicode="&#xe5;" horiz-adv-x="540" 
d="M185 -11q-59 0 -97 34.5t-38 98.5q0 29 9.5 51t23 36.5t41.5 27.5t51.5 21t67.5 21q36 10 54 16.5t40 19.5t31.5 32.5t9.5 47.5q0 47 -28 70.5t-74 23.5q-53 0 -88 -34t-44 -101h-88q14 86 73.5 129.5t145.5 43.5q81 0 124 -39t43 -110v-276q0 -68 45 -68q13 0 31 5v-30
q-29 -20 -62 -20q-35 0 -59 26t-25 76q-34 -48 -85.5 -75t-101.5 -27zM130 139q0 -93 94 -93q45 0 85 23t61 56v172q-39 -25 -96 -43l-38 -12q-59 -18 -82.5 -39.5t-23.5 -63.5zM163 706q0 44 28 71t71 27q42 0 70.5 -27.5t28.5 -70.5t-28.5 -71.5t-70.5 -28.5t-70.5 28.5
t-28.5 71.5zM208 706q0 -24 15.5 -40.5t38.5 -16.5q22 0 37.5 16.5t15.5 40.5q0 23 -15.5 39t-37.5 16t-38 -16t-16 -39z" />
    <glyph glyph-name="ae" unicode="&#xe6;" horiz-adv-x="840" 
d="M184 -11q-58 0 -96 35t-38 98q0 29 9.5 51t22.5 36.5t41 27.5t52 21t68 21q28 8 44 13t36 14.5t30 20.5t17.5 28.5t7.5 39.5q0 47 -28 70.5t-74 23.5q-53 0 -88 -34t-44 -101h-88q14 86 73.5 129.5t145.5 43.5q127 0 154 -98q68 98 185 98q181 0 181 -240h-352v-16
q0 -91 43.5 -152.5t126.5 -61.5q50 0 86.5 25t53.5 71h36q-18 -75 -70 -119.5t-128 -44.5q-68 0 -118 34.5t-77 93.5q-90 -128 -212 -128zM130 139q0 -93 94 -93q98 0 161 100q-15 46 -15 103v49q-37 -24 -96 -44l-38 -12q-59 -20 -82.5 -40.5t-23.5 -62.5zM448 330h259
q-1 74 -30.5 116.5t-84.5 42.5q-58 0 -95 -44.5t-49 -114.5z" />
    <glyph glyph-name="ccedilla" unicode="&#xe7;" horiz-adv-x="504" 
d="M275 -219q-57 0 -101 39l23 34q39 -36 79 -36q51 0 51 40q0 51 -98 51l12 81q-91 9 -144 81.5t-53 172.5q0 114 66 198.5t174 84.5q76 0 125.5 -45.5t55.5 -127.5h-88q-1 59 -29.5 97t-81.5 38q-71 0 -110.5 -64.5t-39.5 -150.5q0 -93 45.5 -155t127.5 -62q50 0 85.5 25
t51.5 71h37q-16 -73 -65.5 -117t-122.5 -47v-56q44 1 70.5 -20t26.5 -53t-25 -55.5t-72 -23.5z" />
    <glyph glyph-name="egrave" unicode="&#xe8;" horiz-adv-x="514" 
d="M266 -11q-102 0 -162 74t-60 181q0 114 66 198.5t178 84.5q91 0 136 -62t45 -178h-353v-16q0 -91 44 -152.5t127 -61.5q50 0 86.5 25t52.5 71h37q-17 -75 -68.5 -119.5t-128.5 -44.5zM121 330h260q-1 73 -30.5 116t-84.5 43q-58 0 -95.5 -45t-49.5 -114zM123 756h98
l80 -150h-48z" />
    <glyph glyph-name="eacute" unicode="&#xe9;" horiz-adv-x="514" 
d="M266 -11q-102 0 -162 74t-60 181q0 114 66 198.5t178 84.5q91 0 136 -62t45 -178h-353v-16q0 -91 44 -152.5t127 -61.5q50 0 86.5 25t52.5 71h37q-17 -75 -68.5 -119.5t-128.5 -44.5zM121 330h260q-1 73 -30.5 116t-84.5 43q-58 0 -95.5 -45t-49.5 -114zM248 606l80 150
h98l-130 -150h-48z" />
    <glyph glyph-name="ecircumflex" unicode="&#xea;" horiz-adv-x="514" 
d="M266 -11q-102 0 -162 74t-60 181q0 114 66 198.5t178 84.5q91 0 136 -62t45 -178h-353v-16q0 -91 44 -152.5t127 -61.5q50 0 86.5 25t52.5 71h37q-17 -75 -68.5 -119.5t-128.5 -44.5zM121 330h260q-1 73 -30.5 116t-84.5 43q-58 0 -95.5 -45t-49.5 -114zM126 606l128 161
h45l127 -161h-61l-89 98l-87 -98h-63z" />
    <glyph glyph-name="edieresis" unicode="&#xeb;" horiz-adv-x="514" 
d="M266 -11q-102 0 -162 74t-60 181q0 114 66 198.5t178 84.5q91 0 136 -62t45 -178h-353v-16q0 -91 44 -152.5t127 -61.5q50 0 86.5 25t52.5 71h37q-17 -75 -68.5 -119.5t-128.5 -44.5zM121 330h260q-1 73 -30.5 116t-84.5 43q-58 0 -95.5 -45t-49.5 -114zM131 680
q0 22 14.5 36.5t36.5 14.5t36 -14.5t14 -36.5q0 -24 -14 -38.5t-36 -14.5q-23 0 -37 14.5t-14 38.5zM322 680q0 22 14 36.5t37 14.5t36.5 -14t13.5 -37q0 -25 -13.5 -39t-36.5 -14t-37 14.5t-14 38.5z" />
    <glyph glyph-name="igrave" unicode="&#xec;" horiz-adv-x="313" 
d="M34 0v40l33 2q56 3 56 51v308q0 23 -14.5 36.5t-41.5 13.5h-29v39l157 37v-434q0 -48 56 -51l33 -2v-40h-250zM9 756h98l80 -150h-48z" />
    <glyph glyph-name="iacute" unicode="&#xed;" horiz-adv-x="313" 
d="M34 0v40l33 2q56 3 56 51v308q0 23 -14.5 36.5t-41.5 13.5h-29v39l157 37v-434q0 -48 56 -51l33 -2v-40h-250zM122 606l80 150h98l-130 -150h-48z" />
    <glyph glyph-name="icircumflex" unicode="&#xee;" horiz-adv-x="313" 
d="M34 0v40l33 2q56 3 56 51v308q0 23 -14.5 36.5t-41.5 13.5h-29v39l157 37v-434q0 -48 56 -51l33 -2v-40h-250zM-1 606l128 161h45l127 -161h-61l-89 98l-87 -98h-63z" />
    <glyph glyph-name="idieresis" unicode="&#xef;" horiz-adv-x="313" 
d="M34 0v40l33 2q56 3 56 51v308q0 23 -14.5 36.5t-41.5 13.5h-29v39l157 37v-434q0 -48 56 -51l33 -2v-40h-250zM11 680q0 22 14.5 36.5t36.5 14.5t36 -14.5t14 -36.5q0 -24 -14 -38.5t-36 -14.5q-23 0 -37 14.5t-14 38.5zM202 680q0 22 14 36.5t37 14.5t36.5 -14t13.5 -37
q0 -25 -13.5 -39t-36.5 -14t-37 14.5t-14 38.5z" />
    <glyph glyph-name="eth" unicode="&#xf0;" horiz-adv-x="604" 
d="M282 -11q-60 0 -107.5 21.5t-75 56.5t-41.5 76t-14 84q0 99 66.5 157t160.5 58q118 0 195 -93q-17 149 -114 238l-70 -58l-31 38l62 52q-78 52 -184 62v40q130 -4 227 -66l108 89v-64l-66 -55q74 -62 113 -152t39 -183q0 -124 -71 -212.5t-197 -88.5zM122 206
q0 -74 40 -126.5t112 -52.5q87 0 141 76t54 198q0 10 -1 16q-68 71 -169 71q-75 0 -126 -47t-51 -135z" />
    <glyph glyph-name="ntilde" unicode="&#xf1;" horiz-adv-x="645" 
d="M29 0v40l33 2q57 3 57 54v305q0 23 -15 36.5t-42 13.5h-29v39l153 37v-97q34 46 89 71.5t107 25.5q71 0 112.5 -46t41.5 -131v-256q0 -21 15.5 -36t41.5 -16l28 -2v-40h-244v40l34 1q54 5 54 53v233q0 70 -31.5 106t-88.5 36q-39 0 -82.5 -18t-72.5 -54v-303
q0 -48 54 -53l34 -1v-40h-249zM177 611q4 59 29.5 92t62.5 33q29 0 72 -33.5t64 -33.5q18 0 33 15.5t18 50.5h32q0 -59 -25.5 -94t-63.5 -35q-28 0 -71 32.5t-63 32.5q-17 0 -32.5 -14t-20.5 -46h-35z" />
    <glyph glyph-name="ograve" unicode="&#xf2;" horiz-adv-x="579" 
d="M289 -11q-115 0 -180 77t-65 190q0 115 67 193t178 78q116 0 180.5 -77t64.5 -191q0 -115 -66 -192.5t-179 -77.5zM127 292q0 -73 19 -131.5t60.5 -96t100.5 -37.5q74 0 109.5 56t35.5 142q0 72 -18.5 130t-60 96t-99.5 38q-76 0 -111.5 -55.5t-35.5 -141.5zM131 756h98
l80 -150h-48z" />
    <glyph glyph-name="oacute" unicode="&#xf3;" horiz-adv-x="579" 
d="M289 -11q-115 0 -180 77t-65 190q0 115 67 193t178 78q116 0 180.5 -77t64.5 -191q0 -115 -66 -192.5t-179 -77.5zM127 292q0 -73 19 -131.5t60.5 -96t100.5 -37.5q74 0 109.5 56t35.5 142q0 72 -18.5 130t-60 96t-99.5 38q-76 0 -111.5 -55.5t-35.5 -141.5zM257 606
l80 150h98l-130 -150h-48z" />
    <glyph glyph-name="ocircumflex" unicode="&#xf4;" horiz-adv-x="579" 
d="M289 -11q-115 0 -180 77t-65 190q0 115 67 193t178 78q116 0 180.5 -77t64.5 -191q0 -115 -66 -192.5t-179 -77.5zM127 292q0 -73 19 -131.5t60.5 -96t100.5 -37.5q74 0 109.5 56t35.5 142q0 72 -18.5 130t-60 96t-99.5 38q-76 0 -111.5 -55.5t-35.5 -141.5zM139 606
l128 161h45l127 -161h-61l-89 98l-87 -98h-63z" />
    <glyph glyph-name="otilde" unicode="&#xf5;" horiz-adv-x="579" 
d="M289 -11q-115 0 -180 77t-65 190q0 115 67 193t178 78q116 0 180.5 -77t64.5 -191q0 -115 -66 -192.5t-179 -77.5zM127 292q0 -73 19 -131.5t60.5 -96t100.5 -37.5q74 0 109.5 56t35.5 142q0 72 -18.5 130t-60 96t-99.5 38q-76 0 -111.5 -55.5t-35.5 -141.5zM139 611
q4 59 29.5 92t62.5 33q29 0 72 -33.5t64 -33.5q18 0 33 15.5t18 50.5h32q0 -59 -25.5 -94t-63.5 -35q-28 0 -71 32.5t-63 32.5q-17 0 -32.5 -14t-20.5 -46h-35z" />
    <glyph glyph-name="odieresis" unicode="&#xf6;" horiz-adv-x="579" 
d="M289 -11q-115 0 -180 77t-65 190q0 115 67 193t178 78q116 0 180.5 -77t64.5 -191q0 -115 -66 -192.5t-179 -77.5zM127 292q0 -73 19 -131.5t60.5 -96t100.5 -37.5q74 0 109.5 56t35.5 142q0 72 -18.5 130t-60 96t-99.5 38q-76 0 -111.5 -55.5t-35.5 -141.5zM143 680
q0 22 14.5 36.5t36.5 14.5t36 -14.5t14 -36.5q0 -24 -14 -38.5t-36 -14.5q-23 0 -37 14.5t-14 38.5zM334 680q0 22 14 36.5t37 14.5t36.5 -14t13.5 -37q0 -25 -13.5 -39t-36.5 -14t-37 14.5t-14 38.5z" />
    <glyph glyph-name="divide" unicode="&#xf7;" 
d="M319 55q-24 0 -39 15t-15 37t15 37.5t39 15.5q25 0 40.5 -15.5t15.5 -37.5t-15.5 -37t-40.5 -15zM107 254v54h424v-54h-424zM265 456q0 22 15 37.5t39 15.5q25 0 40.5 -15.5t15.5 -37.5q0 -23 -15.5 -38t-40.5 -15q-24 0 -39 15t-15 38z" />
    <glyph glyph-name="oslash" unicode="&#xf8;" horiz-adv-x="579" 
d="M92 -28l-35 26l53 68q-66 74 -66 190q0 115 67 193t178 78q86 0 144 -44l54 69l34 -29l-54 -70q67 -75 67 -194q0 -115 -66 -192.5t-179 -77.5q-87 0 -147 47zM127 292q0 -96 32 -163l234 302q-45 58 -119 58q-76 0 -111.5 -55.5t-35.5 -141.5zM183 89q47 -62 124 -62
q74 0 109.5 56t35.5 142q0 98 -34 166z" />
    <glyph glyph-name="ugrave" unicode="&#xf9;" 
d="M268 -11q-71 0 -115 49t-44 134v228q0 23 -15 37t-41 14h-29v38l157 38v-339q0 -69 31 -105.5t90 -36.5q89 0 147 73v281q0 23 -14.5 37t-40.5 14h-30v38l157 38v-411q0 -24 14.5 -37.5t41.5 -13.5h35v-38l-159 -38v97q-34 -46 -84.5 -71.5t-100.5 -25.5zM152 756h98
l80 -150h-48z" />
    <glyph glyph-name="uacute" unicode="&#xfa;" 
d="M268 -11q-71 0 -115 49t-44 134v228q0 23 -15 37t-41 14h-29v38l157 38v-339q0 -69 31 -105.5t90 -36.5q89 0 147 73v281q0 23 -14.5 37t-40.5 14h-30v38l157 38v-411q0 -24 14.5 -37.5t41.5 -13.5h35v-38l-159 -38v97q-34 -46 -84.5 -71.5t-100.5 -25.5zM255 606l80 150
h98l-130 -150h-48z" />
    <glyph glyph-name="ucircumflex" unicode="&#xfb;" 
d="M268 -11q-71 0 -115 49t-44 134v228q0 23 -15 37t-41 14h-29v38l157 38v-339q0 -69 31 -105.5t90 -36.5q89 0 147 73v281q0 23 -14.5 37t-40.5 14h-30v38l157 38v-411q0 -24 14.5 -37.5t41.5 -13.5h35v-38l-159 -38v97q-34 -46 -84.5 -71.5t-100.5 -25.5zM151 606
l128 161h45l127 -161h-61l-89 98l-87 -98h-63z" />
    <glyph glyph-name="udieresis" unicode="&#xfc;" 
d="M268 -11q-71 0 -115 49t-44 134v228q0 23 -15 37t-41 14h-29v38l157 38v-339q0 -69 31 -105.5t90 -36.5q89 0 147 73v281q0 23 -14.5 37t-40.5 14h-30v38l157 38v-411q0 -24 14.5 -37.5t41.5 -13.5h35v-38l-159 -38v97q-34 -46 -84.5 -71.5t-100.5 -25.5zM164 680
q0 22 14 36.5t37 14.5q22 0 36 -14.5t14 -36.5q0 -24 -14 -38.5t-36 -14.5q-23 0 -37 14.5t-14 38.5zM355 680q0 22 14.5 36.5t36.5 14.5q23 0 36.5 -14t13.5 -37q0 -25 -13.5 -39t-36.5 -14t-37 14.5t-14 38.5z" />
    <glyph glyph-name="yacute" unicode="&#xfd;" horiz-adv-x="617" 
d="M102 -188q-30 0 -78 9v76q45 -15 93 -15q58 0 107 31t72 87l-178 411q-28 63 -91 68v40h226v-40q-60 0 -60 -42q0 -17 11 -44l129 -312l125 307q10 24 10 43q0 48 -85 48v40h211v-40q-28 -3 -44.5 -22t-30.5 -52l-171 -400q-10 -25 -19 -43t-31 -49t-46.5 -50.5t-64 -35
t-85.5 -15.5zM264 606l80 150h98l-130 -150h-48z" />
    <glyph glyph-name="thorn" unicode="&#xfe;" 
d="M29 -207v40l33 2q57 3 57 52v765q0 24 -15 37.5t-42 13.5h-29v39l157 38v-352q30 47 78.5 73t105.5 26q102 0 161.5 -74.5t59.5 -184.5q0 -124 -72 -196t-181 -72q-92 0 -152 45v-158q0 -23 15.5 -37t40.5 -15l45 -2v-40h-262zM190 122q16 -34 54.5 -59.5t89.5 -25.5
q76 0 127 57t51 158q0 93 -44 155.5t-125 62.5q-50 0 -90 -25t-63 -62v-261z" />
    <glyph glyph-name="ydieresis" unicode="&#xff;" horiz-adv-x="617" 
d="M102 -188q-30 0 -78 9v76q45 -15 93 -15q58 0 107 31t72 87l-178 411q-28 63 -91 68v40h226v-40q-60 0 -60 -42q0 -17 11 -44l129 -312l125 307q10 24 10 43q0 48 -85 48v40h211v-40q-28 -3 -44.5 -22t-30.5 -52l-171 -400q-10 -25 -19 -43t-31 -49t-46.5 -50.5t-64 -35
t-85.5 -15.5zM162 680q0 22 14 36.5t37 14.5q22 0 36 -14.5t14 -36.5q0 -24 -14 -38.5t-36 -14.5q-23 0 -37 14.5t-14 38.5zM353 680q0 22 14.5 36.5t36.5 14.5q23 0 36.5 -14t13.5 -37q0 -25 -13.5 -39t-36.5 -14t-37 14.5t-14 38.5z" />
    <glyph glyph-name="Amacron" unicode="&#x100;" horiz-adv-x="785" 
d="M24 43q42 9 62.5 22.5t34.5 47.5l251 608h37l260 -624q21 -49 92 -54v-43h-271v43q50 0 73 9t23 30q0 14 -7 29l-54 134h-296l-50 -125q-9 -21 -9 -36q0 -22 23.5 -31.5t80.5 -9.5v-43h-250v43zM239 799v56h307v-56h-307zM246 289h260l-131 318z" />
    <glyph glyph-name="amacron" unicode="&#x101;" horiz-adv-x="540" 
d="M185 -11q-59 0 -97 34.5t-38 98.5q0 29 9.5 51t23 36.5t41.5 27.5t51.5 21t67.5 21q36 10 54 16.5t40 19.5t31.5 32.5t9.5 47.5q0 47 -28 70.5t-74 23.5q-53 0 -88 -34t-44 -101h-88q14 86 73.5 129.5t145.5 43.5q81 0 124 -39t43 -110v-276q0 -68 45 -68q13 0 31 5v-30
q-29 -20 -62 -20q-35 0 -59 26t-25 76q-34 -48 -85.5 -75t-101.5 -27zM103 616v56h307v-56h-307zM130 139q0 -93 94 -93q45 0 85 23t61 56v172q-39 -25 -96 -43l-38 -12q-59 -18 -82.5 -39.5t-23.5 -63.5z" />
    <glyph glyph-name="Abreve" unicode="&#x102;" horiz-adv-x="785" 
d="M24 43q42 9 62.5 22.5t34.5 47.5l251 608h37l260 -624q21 -49 92 -54v-43h-271v43q50 0 73 9t23 30q0 14 -7 29l-54 134h-296l-50 -125q-9 -21 -9 -36q0 -22 23.5 -31.5t80.5 -9.5v-43h-250v43zM246 289h260l-131 318zM276 901q0 25 7 42h56q-6 -13 -6 -34q0 -63 59 -63
q60 0 60 62q0 22 -6 35h56q7 -21 7 -42q0 -43 -28.5 -74t-88.5 -31q-58 0 -87 31t-29 74z" />
    <glyph glyph-name="abreve" unicode="&#x103;" horiz-adv-x="540" 
d="M185 -11q-59 0 -97 34.5t-38 98.5q0 29 9.5 51t23 36.5t41.5 27.5t51.5 21t67.5 21q36 10 54 16.5t40 19.5t31.5 32.5t9.5 47.5q0 47 -28 70.5t-74 23.5q-53 0 -88 -34t-44 -101h-88q14 86 73.5 129.5t145.5 43.5q81 0 124 -39t43 -110v-276q0 -68 45 -68q13 0 31 5v-30
q-29 -20 -62 -20q-35 0 -59 26t-25 76q-34 -48 -85.5 -75t-101.5 -27zM130 139q0 -93 94 -93q45 0 85 23t61 56v172q-39 -25 -96 -43l-38 -12q-59 -18 -82.5 -39.5t-23.5 -63.5zM151 711q0 23 7 43h55q-5 -18 -5 -34q0 -64 59 -64q60 0 60 64q0 16 -5 34h55q7 -24 7 -43
q0 -44 -28.5 -74.5t-88.5 -30.5q-58 0 -87 31t-29 74z" />
    <glyph glyph-name="Aogonek" unicode="&#x104;" horiz-adv-x="785" 
d="M594 -170q-58 5 -97.5 36.5t-39.5 73.5q0 40 33 65v38q50 0 73 9t23 30q0 14 -7 29l-54 134h-296l-50 -125q-9 -21 -9 -36q0 -22 23.5 -31.5t80.5 -9.5v-43h-250v43q42 9 62.5 22.5t34.5 47.5l251 608h37l260 -624q21 -49 92 -54v-43h-231q-21 -21 -21 -46
q0 -30 26 -48.5t59 -20.5v-55zM246 289h260l-131 318z" />
    <glyph glyph-name="aogonek" unicode="&#x105;" horiz-adv-x="540" 
d="M507 -161q-58 5 -97.5 36.5t-39.5 73.5q0 38 30 63q-27 27 -28 79q-34 -48 -85.5 -75t-101.5 -27q-59 0 -97 34.5t-38 98.5q0 29 9.5 51t23 36.5t41.5 27.5t51.5 21t67.5 21q36 10 54 16.5t40 19.5t31.5 32.5t9.5 47.5q0 47 -28 70.5t-74 23.5q-53 0 -88 -34t-44 -101
h-88q14 86 73.5 129.5t145.5 43.5q81 0 124 -39t43 -110v-276q0 -68 45 -68q13 0 31 5v-30q-29 -20 -62 -20q-15 0 -26 4q-8 -13 -8 -30q0 -30 26 -48.5t59 -20.5v-55zM130 139q0 -93 94 -93q45 0 85 23t61 56v172q-39 -25 -96 -43l-38 -12q-59 -18 -82.5 -39.5t-23.5 -63.5
z" />
    <glyph glyph-name="Cacute" unicode="&#x106;" horiz-adv-x="736" 
d="M376 -19q-104 0 -178.5 53t-108.5 133t-34 175q0 101 38 189.5t119.5 148t191.5 59.5q113 0 185 -63t88 -178h-101q-11 85 -59 140.5t-135 55.5q-78 0 -136 -47t-85 -117.5t-27 -153.5t27.5 -153t88 -117t144.5 -47q85 0 151 47t86 141h42q-19 -128 -99 -197t-198 -69z
M371 799l78 150h100l-130 -150h-48z" />
    <glyph glyph-name="cacute" unicode="&#x107;" horiz-adv-x="504" 
d="M266 -11q-102 0 -162 74t-60 181q0 114 66 198.5t174 84.5q76 0 125.5 -45.5t55.5 -127.5h-88q-1 59 -29.5 97t-81.5 38q-71 0 -110.5 -64.5t-39.5 -150.5q0 -93 45.5 -155t127.5 -62q50 0 85.5 25t51.5 71h37q-17 -75 -68.5 -119.5t-128.5 -44.5zM251 606l80 150h98
l-130 -150h-48z" />
    <glyph glyph-name="Ccircumflex" unicode="&#x108;" horiz-adv-x="736" 
d="M376 -19q-104 0 -178.5 53t-108.5 133t-34 175q0 101 38 189.5t119.5 148t191.5 59.5q113 0 185 -63t88 -178h-101q-11 85 -59 140.5t-135 55.5q-78 0 -136 -47t-85 -117.5t-27 -153.5t27.5 -153t88 -117t144.5 -47q85 0 151 47t86 141h42q-19 -128 -99 -197t-198 -69z
M241 799l128 162h45l127 -162h-61l-89 98l-87 -98h-63z" />
    <glyph glyph-name="ccircumflex" unicode="&#x109;" horiz-adv-x="504" 
d="M266 -11q-102 0 -162 74t-60 181q0 114 66 198.5t174 84.5q76 0 125.5 -45.5t55.5 -127.5h-88q-1 59 -29.5 97t-81.5 38q-71 0 -110.5 -64.5t-39.5 -150.5q0 -93 45.5 -155t127.5 -62q50 0 85.5 25t51.5 71h37q-17 -75 -68.5 -119.5t-128.5 -44.5zM122 606l128 161h45
l127 -161h-61l-89 98l-87 -98h-63z" />
    <glyph glyph-name="Cdotaccent" unicode="&#x10a;" horiz-adv-x="736" 
d="M376 -19q-104 0 -178.5 53t-108.5 133t-34 175q0 101 38 189.5t119.5 148t191.5 59.5q113 0 185 -63t88 -178h-101q-11 85 -59 140.5t-135 55.5q-78 0 -136 -47t-85 -117.5t-27 -153.5t27.5 -153t88 -117t144.5 -47q85 0 151 47t86 141h42q-19 -128 -99 -197t-198 -69z
M329 859q0 25 17 42.5t44 17.5q28 0 45.5 -17.5t17.5 -42.5t-17 -42t-46 -17q-27 0 -44 17t-17 42z" />
    <glyph glyph-name="cdotaccent" unicode="&#x10b;" horiz-adv-x="504" 
d="M266 -11q-102 0 -162 74t-60 181q0 114 66 198.5t174 84.5q76 0 125.5 -45.5t55.5 -127.5h-88q-1 59 -29.5 97t-81.5 38q-71 0 -110.5 -64.5t-39.5 -150.5q0 -93 45.5 -155t127.5 -62q50 0 85.5 25t51.5 71h37q-17 -75 -68.5 -119.5t-128.5 -44.5zM213 665q0 25 17 42.5
t44 17.5q28 0 45.5 -17.5t17.5 -42.5t-17 -42t-46 -17q-27 0 -44 17t-17 42z" />
    <glyph glyph-name="Ccaron" unicode="&#x10c;" horiz-adv-x="736" 
d="M376 -19q-104 0 -178.5 53t-108.5 133t-34 175q0 101 38 189.5t119.5 148t191.5 59.5q113 0 185 -63t88 -178h-101q-11 85 -59 140.5t-135 55.5q-78 0 -136 -47t-85 -117.5t-27 -153.5t27.5 -153t88 -117t144.5 -47q85 0 151 47t86 141h42q-19 -128 -99 -197t-198 -69z
M252 961h63l87 -98l89 98h61l-127 -162h-45z" />
    <glyph glyph-name="ccaron" unicode="&#x10d;" horiz-adv-x="504" 
d="M266 -11q-102 0 -162 74t-60 181q0 114 66 198.5t174 84.5q76 0 125.5 -45.5t55.5 -127.5h-88q-1 59 -29.5 97t-81.5 38q-71 0 -110.5 -64.5t-39.5 -150.5q0 -93 45.5 -155t127.5 -62q50 0 85.5 25t51.5 71h37q-17 -75 -68.5 -119.5t-128.5 -44.5zM127 767h63l88 -98
l88 98h61l-127 -161h-45z" />
    <glyph glyph-name="Dcaron" unicode="&#x10e;" horiz-adv-x="778" 
d="M39 0v43l46 2q60 3 60 57v517q0 54 -60 57l-46 2v43h309q177 0 277 -98t100 -238q0 -71 -26 -138.5t-74.5 -123t-126.5 -89.5t-173 -34h-286zM163 961h63l87 -98l89 98h61l-127 -162h-45zM222 101q0 -26 19 -41.5t51 -15.5h42q95 0 164.5 49t101.5 121.5t32 154.5
q0 128 -80 218t-223 90h-107v-576z" />
    <glyph glyph-name="dcaron" unicode="&#x10f;" horiz-adv-x="841" 
d="M269 -11q-101 0 -163 73t-62 184q0 116 67.5 198.5t185.5 82.5q89 0 142 -40v165q0 24 -15 37.5t-42 13.5h-29v39l157 38v-664q0 -24 15 -37.5t42 -13.5h34v-38l-158 -38v97q-23 -41 -67.5 -69t-106.5 -28zM123 271q0 -95 49.5 -158t125.5 -63q43 0 82 20t59 45v269
q-17 43 -56 74.5t-92 31.5q-78 0 -123 -64.5t-45 -154.5zM632 468v41q50 7 78 34t28 58q0 32 -33 37l-15 2q-20 4 -31 17t-11 30q0 22 15.5 38.5t42.5 16.5q36 0 58.5 -31t22.5 -81q0 -42 -16 -74t-41.5 -50t-50 -27t-47.5 -11z" />
    <glyph glyph-name="Dcroat" unicode="&#x110;" horiz-adv-x="778" 
d="M40 340v42h105v237q0 54 -60 57l-46 2v43h309q177 0 277 -98t100 -238q0 -71 -26 -138.5t-74.5 -123t-126.5 -89.5t-173 -34h-286v43l46 2q60 3 60 57v238h-105zM222 101q0 -26 19 -41.5t51 -15.5h42q95 0 164.5 49t101.5 121.5t32 154.5q0 128 -80 218t-223 90h-107
v-295h183v-42h-183v-239z" />
    <glyph glyph-name="dcroat" unicode="&#x111;" horiz-adv-x="629" 
d="M277 595v38h162v19q0 24 -15 37.5t-42 13.5h-29v39l157 38v-147h77v-38h-77v-479q0 -24 15 -37.5t42 -13.5h34v-38l-158 -38v97q-23 -41 -67.5 -69t-106.5 -28q-101 0 -163 73t-62 184q0 116 67.5 198.5t185.5 82.5q89 0 142 -40v108h-162zM123 271q0 -95 49.5 -158
t125.5 -63q43 0 82 20t59 45v269q-17 43 -56 74.5t-92 31.5q-78 0 -123 -64.5t-45 -154.5z" />
    <glyph glyph-name="Emacron" unicode="&#x112;" horiz-adv-x="687" 
d="M39 0v43l46 2q60 3 60 57v517q0 54 -60 57l-46 2v43h556v-188h-37q-5 77 -38.5 110.5t-107.5 33.5h-190v-289h120q57 0 76.5 23.5t22.5 82.5h40v-255h-40q-3 59 -22.5 82.5t-76.5 23.5h-120v-244q0 -26 19 -41.5t51 -15.5h107q87 0 127.5 45t60.5 139h40l-28 -228h-560z
M198 799v56h307v-56h-307z" />
    <glyph glyph-name="emacron" unicode="&#x113;" horiz-adv-x="514" 
d="M266 -11q-102 0 -162 74t-60 181q0 114 66 198.5t178 84.5q91 0 136 -62t45 -178h-353v-16q0 -91 44 -152.5t127 -61.5q50 0 86.5 25t52.5 71h37q-17 -75 -68.5 -119.5t-128.5 -44.5zM117 616v56h307v-56h-307zM121 330h260q-1 73 -30.5 116t-84.5 43q-58 0 -95.5 -45
t-49.5 -114z" />
    <glyph glyph-name="Ebreve" unicode="&#x114;" horiz-adv-x="687" 
d="M39 0v43l46 2q60 3 60 57v517q0 54 -60 57l-46 2v43h556v-188h-37q-5 77 -38.5 110.5t-107.5 33.5h-190v-289h120q57 0 76.5 23.5t22.5 82.5h40v-255h-40q-3 59 -22.5 82.5t-76.5 23.5h-120v-244q0 -26 19 -41.5t51 -15.5h107q87 0 127.5 45t60.5 139h40l-28 -228h-560z
M235 901q0 25 7 42h56q-6 -13 -6 -34q0 -63 59 -63q60 0 60 62q0 22 -6 35h56q7 -21 7 -42q0 -43 -28.5 -74t-88.5 -31q-58 0 -87 31t-29 74z" />
    <glyph glyph-name="ebreve" unicode="&#x115;" horiz-adv-x="514" 
d="M266 -11q-102 0 -162 74t-60 181q0 114 66 198.5t178 84.5q91 0 136 -62t45 -178h-353v-16q0 -91 44 -152.5t127 -61.5q50 0 86.5 25t52.5 71h37q-17 -75 -68.5 -119.5t-128.5 -44.5zM121 330h260q-1 73 -30.5 116t-84.5 43q-58 0 -95.5 -45t-49.5 -114zM165 711
q0 23 7 43h55q-5 -18 -5 -34q0 -64 59 -64q60 0 60 64q0 16 -5 34h55q7 -24 7 -43q0 -44 -28.5 -74.5t-88.5 -30.5q-58 0 -87 31t-29 74z" />
    <glyph glyph-name="Edotaccent" unicode="&#x116;" horiz-adv-x="687" 
d="M39 0v43l46 2q60 3 60 57v517q0 54 -60 57l-46 2v43h556v-188h-37q-5 77 -38.5 110.5t-107.5 33.5h-190v-289h120q57 0 76.5 23.5t22.5 82.5h40v-255h-40q-3 59 -22.5 82.5t-76.5 23.5h-120v-244q0 -26 19 -41.5t51 -15.5h107q87 0 127.5 45t60.5 139h40l-28 -228h-560z
M296 859q0 25 17 42.5t44 17.5q28 0 45.5 -17.5t17.5 -42.5t-17 -42t-46 -17q-27 0 -44 17t-17 42z" />
    <glyph glyph-name="edotaccent" unicode="&#x117;" horiz-adv-x="514" 
d="M266 -11q-102 0 -162 74t-60 181q0 114 66 198.5t178 84.5q91 0 136 -62t45 -178h-353v-16q0 -91 44 -152.5t127 -61.5q50 0 86.5 25t52.5 71h37q-17 -75 -68.5 -119.5t-128.5 -44.5zM121 330h260q-1 73 -30.5 116t-84.5 43q-58 0 -95.5 -45t-49.5 -114zM210 665
q0 25 17 42.5t44 17.5q28 0 45.5 -17.5t17.5 -42.5t-17 -42t-46 -17q-27 0 -44 17t-17 42z" />
    <glyph glyph-name="Eogonek" unicode="&#x118;" horiz-adv-x="687" 
d="M603 -170q-58 5 -97.5 36.5t-39.5 73.5q0 38 27 60h-454v43l46 2q60 3 60 57v517q0 54 -60 57l-46 2v43h556v-188h-37q-5 77 -38.5 110.5t-107.5 33.5h-190v-289h120q57 0 76.5 23.5t22.5 82.5h40v-255h-40q-3 59 -22.5 82.5t-76.5 23.5h-120v-244q0 -26 19 -41.5
t51 -15.5h107q87 0 127.5 45t60.5 139h40l-28 -228h-60q-21 -21 -21 -46q0 -30 26 -48.5t59 -20.5v-55z" />
    <glyph glyph-name="eogonek" unicode="&#x119;" horiz-adv-x="514" 
d="M364 -170q-58 5 -97.5 36.5t-39.5 73.5q0 30 17 50q-93 8 -146.5 80.5t-53.5 173.5q0 114 66 198.5t178 84.5q91 0 136 -62t45 -178h-353v-16q0 -91 44 -152.5t127 -61.5q50 0 86.5 25t52.5 71h37q-15 -69 -60 -112.5t-112 -50.5q-12 -15 -12 -36q0 -30 26 -48.5
t59 -20.5v-55zM121 330h260q-1 73 -30.5 116t-84.5 43q-58 0 -95.5 -45t-49.5 -114z" />
    <glyph glyph-name="Ecaron" unicode="&#x11a;" horiz-adv-x="687" 
d="M39 0v43l46 2q60 3 60 57v517q0 54 -60 57l-46 2v43h556v-188h-37q-5 77 -38.5 110.5t-107.5 33.5h-190v-289h120q57 0 76.5 23.5t22.5 82.5h40v-255h-40q-3 59 -22.5 82.5t-76.5 23.5h-120v-244q0 -26 19 -41.5t51 -15.5h107q87 0 127.5 45t60.5 139h40l-28 -228h-560z
M205 961h63l87 -98l89 98h61l-127 -162h-45z" />
    <glyph glyph-name="ecaron" unicode="&#x11b;" horiz-adv-x="514" 
d="M266 -11q-102 0 -162 74t-60 181q0 114 66 198.5t178 84.5q91 0 136 -62t45 -178h-353v-16q0 -91 44 -152.5t127 -61.5q50 0 86.5 25t52.5 71h37q-17 -75 -68.5 -119.5t-128.5 -44.5zM117 767h63l88 -98l88 98h61l-127 -161h-45zM121 330h260q-1 73 -30.5 116t-84.5 43
q-58 0 -95.5 -45t-49.5 -114z" />
    <glyph glyph-name="Gcircumflex" unicode="&#x11c;" horiz-adv-x="768" 
d="M388 -19q-106 0 -183.5 53t-113.5 134t-36 177q0 59 14 115.5t43 107t69.5 88.5t98 60.5t124.5 22.5q113 0 185 -63t88 -178h-101q-11 85 -59 140.5t-135 55.5q-116 0 -182 -94.5t-66 -223.5q0 -88 30.5 -163.5t97 -126t157.5 -50.5q85 0 157 47v208h-150v45h294v-45h-68
v-212q-134 -98 -264 -98zM242 799l128 162h45l127 -162h-61l-89 98l-87 -98h-63z" />
    <glyph glyph-name="gcircumflex" unicode="&#x11d;" horiz-adv-x="608" 
d="M251 -217q-89 0 -150.5 31.5t-61.5 89.5q0 39 27.5 71t72.5 46q-30 9 -50.5 33t-20.5 55q0 33 24 60.5t61 44.5q-79 50 -79 134q0 77 58.5 128t146.5 51q24 0 84 -9.5t120 -9.5h91v-60q-62 1 -148 20q61 -50 61 -114q0 -74 -59 -123.5t-151 -49.5q-54 0 -95 19
q-57 -28 -57 -70q0 -27 23 -39.5t56 -12.5h181q68 0 111.5 -27.5t43.5 -85.5t-44.5 -100.5t-108.5 -62t-136 -19.5zM112 -72q0 -48 52 -75t123 -27q75 0 129.5 29t54.5 81q0 33 -25 53t-66 20h-218q-19 -11 -34.5 -32.5t-15.5 -48.5zM142 606l128 161h45l127 -161h-61
l-89 98l-87 -98h-63zM158 363q0 -66 35.5 -106t95.5 -40q57 0 87 34.5t30 93.5q0 67 -35.5 106.5t-96.5 39.5q-58 0 -87 -34t-29 -94z" />
    <glyph glyph-name="Gbreve" unicode="&#x11e;" horiz-adv-x="768" 
d="M388 -19q-106 0 -183.5 53t-113.5 134t-36 177q0 59 14 115.5t43 107t69.5 88.5t98 60.5t124.5 22.5q113 0 185 -63t88 -178h-101q-11 85 -59 140.5t-135 55.5q-116 0 -182 -94.5t-66 -223.5q0 -88 30.5 -163.5t97 -126t157.5 -50.5q85 0 157 47v208h-150v45h294v-45h-68
v-212q-134 -98 -264 -98zM288 901q0 25 7 42h56q-6 -13 -6 -34q0 -63 59 -63q60 0 60 62q0 22 -6 35h56q7 -21 7 -42q0 -43 -28.5 -74t-88.5 -31q-58 0 -87 31t-29 74z" />
    <glyph glyph-name="gbreve" unicode="&#x11f;" horiz-adv-x="608" 
d="M251 -217q-89 0 -150.5 31.5t-61.5 89.5q0 39 27.5 71t72.5 46q-30 9 -50.5 33t-20.5 55q0 33 24 60.5t61 44.5q-79 50 -79 134q0 77 58.5 128t146.5 51q24 0 84 -9.5t120 -9.5h91v-60q-62 1 -148 20q61 -50 61 -114q0 -74 -59 -123.5t-151 -49.5q-54 0 -95 19
q-57 -28 -57 -70q0 -27 23 -39.5t56 -12.5h181q68 0 111.5 -27.5t43.5 -85.5t-44.5 -100.5t-108.5 -62t-136 -19.5zM112 -72q0 -48 52 -75t123 -27q75 0 129.5 29t54.5 81q0 33 -25 53t-66 20h-218q-19 -11 -34.5 -32.5t-15.5 -48.5zM158 363q0 -66 35.5 -106t95.5 -40
q57 0 87 34.5t30 93.5q0 67 -35.5 106.5t-96.5 39.5q-58 0 -87 -34t-29 -94zM168 711q0 23 7 43h55q-5 -18 -5 -34q0 -64 59 -64q60 0 60 64q0 16 -5 34h55q7 -24 7 -43q0 -44 -28.5 -74.5t-88.5 -30.5q-58 0 -87 31t-29 74z" />
    <glyph glyph-name="Gdotaccent" unicode="&#x120;" horiz-adv-x="768" 
d="M388 -19q-106 0 -183.5 53t-113.5 134t-36 177q0 59 14 115.5t43 107t69.5 88.5t98 60.5t124.5 22.5q113 0 185 -63t88 -178h-101q-11 85 -59 140.5t-135 55.5q-116 0 -182 -94.5t-66 -223.5q0 -88 30.5 -163.5t97 -126t157.5 -50.5q85 0 157 47v208h-150v45h294v-45h-68
v-212q-134 -98 -264 -98zM338 859q0 25 17 42.5t44 17.5q28 0 45.5 -17.5t17.5 -42.5t-17 -42t-46 -17q-27 0 -44 17t-17 42z" />
    <glyph glyph-name="gdotaccent" unicode="&#x121;" horiz-adv-x="608" 
d="M251 -217q-89 0 -150.5 31.5t-61.5 89.5q0 39 27.5 71t72.5 46q-30 9 -50.5 33t-20.5 55q0 33 24 60.5t61 44.5q-79 50 -79 134q0 77 58.5 128t146.5 51q24 0 84 -9.5t120 -9.5h91v-60q-62 1 -148 20q61 -50 61 -114q0 -74 -59 -123.5t-151 -49.5q-54 0 -95 19
q-57 -28 -57 -70q0 -27 23 -39.5t56 -12.5h181q68 0 111.5 -27.5t43.5 -85.5t-44.5 -100.5t-108.5 -62t-136 -19.5zM112 -72q0 -48 52 -75t123 -27q75 0 129.5 29t54.5 81q0 33 -25 53t-66 20h-218q-19 -11 -34.5 -32.5t-15.5 -48.5zM158 363q0 -66 35.5 -106t95.5 -40
q57 0 87 34.5t30 93.5q0 67 -35.5 106.5t-96.5 39.5q-58 0 -87 -34t-29 -94zM222 665q0 25 17 42.5t44 17.5q28 0 45.5 -17.5t17.5 -42.5t-17 -42t-46 -17q-27 0 -44 17t-17 42z" />
    <glyph glyph-name="uni0122" unicode="&#x122;" horiz-adv-x="768" 
d="M328 -231q33 4 54.5 21t21.5 39q0 17 -19 22l-11 2q-34 8 -34 40q0 19 13 31t33 12q28 0 45.5 -24t17.5 -63q0 -43 -23 -71.5t-48.5 -38t-49.5 -10.5v40zM55 345q0 59 14 115.5t43 107t69.5 88.5t98 60.5t124.5 22.5q113 0 185 -63t88 -178h-101q-11 85 -59 140.5
t-135 55.5q-116 0 -182 -94.5t-66 -223.5q0 -88 30.5 -163.5t97 -126t157.5 -50.5q85 0 157 47v208h-150v45h294v-45h-68v-212q-134 -98 -264 -98q-106 0 -183.5 53t-113.5 134t-36 177z" />
    <glyph glyph-name="uni0123" unicode="&#x123;" horiz-adv-x="608" 
d="M251 -217q-89 0 -150.5 31.5t-61.5 89.5q0 39 27.5 71t72.5 46q-30 9 -50.5 33t-20.5 55q0 33 24 60.5t61 44.5q-79 50 -79 134q0 77 58.5 128t146.5 51q24 0 84 -9.5t120 -9.5h91v-60q-62 1 -148 20q61 -50 61 -114q0 -74 -59 -123.5t-151 -49.5q-54 0 -95 19
q-57 -28 -57 -70q0 -27 23 -39.5t56 -12.5h181q68 0 111.5 -27.5t43.5 -85.5t-44.5 -100.5t-108.5 -62t-136 -19.5zM112 -72q0 -48 52 -75t123 -27q75 0 129.5 29t54.5 81q0 33 -25 53t-66 20h-218q-19 -11 -34.5 -32.5t-15.5 -48.5zM158 363q0 -66 35.5 -106t95.5 -40
q57 0 87 34.5t30 93.5q0 67 -35.5 106.5t-96.5 39.5q-58 0 -87 -34t-29 -94zM226 676q0 43 23 71.5t48.5 38t49.5 10.5v-40q-33 -4 -54.5 -21t-21.5 -39q0 -17 19 -22l11 -2q34 -8 34 -40q0 -19 -13 -31t-33 -12q-28 0 -45.5 24t-17.5 63z" />
    <glyph glyph-name="Hcircumflex" unicode="&#x124;" horiz-adv-x="841" 
d="M39 0v43l46 2q60 3 60 57v517q0 54 -60 57l-46 2v43h289v-43l-45 -2q-29 -1 -45 -16t-16 -41v-229h397v229q0 54 -60 57l-46 2v43h290v-43l-46 -2q-29 -1 -45 -16t-16 -41v-517q0 -54 61 -57l46 -2v-43h-290v43l46 2q60 3 60 57v244h-397v-244q0 -26 16 -41t45 -16l45 -2
v-43h-289zM271 799l128 162h45l127 -162h-61l-89 98l-87 -98h-63z" />
    <glyph glyph-name="hcircumflex" unicode="&#x125;" horiz-adv-x="645" 
d="M29 0v40l33 2q57 3 57 54v556q0 24 -15 38t-42 14h-29v38l157 38v-343q35 42 88.5 66t103.5 24q71 0 112.5 -46t41.5 -131v-256q0 -21 15.5 -36t41.5 -16l28 -2v-40h-244v40l34 1q54 5 54 53v233q0 70 -31.5 106t-88.5 36q-39 0 -82.5 -18t-72.5 -54v-303q0 -48 54 -53
l34 -1v-40h-249zM252 606l126 159h44l126 -159h-60l-88 97l-86 -97h-62z" />
    <glyph glyph-name="Hbar" unicode="&#x126;" horiz-adv-x="858" 
d="M43 517v41h110v61q0 54 -60 57l-46 2v43h289v-43l-45 -2q-29 -1 -45 -16t-16 -41v-61h397v61q0 54 -60 57l-46 2v43h290v-43l-46 -2q-29 -1 -45 -16t-16 -41v-61h110v-41h-110v-415q0 -54 61 -57l46 -2v-43h-290v43l46 2q60 3 60 57v244h-397v-244q0 -26 16 -41t45 -16
l45 -2v-43h-289v43l46 2q60 3 60 57v415h-110zM230 390h397v127h-397v-127z" />
    <glyph glyph-name="hbar" unicode="&#x127;" horiz-adv-x="645" 
d="M29 595v38h90v19q0 24 -15 38t-42 14h-29v38l157 38v-147h149v-38h-149v-158q35 42 88.5 66t103.5 24q71 0 112.5 -46t41.5 -131v-256q0 -21 15.5 -36t41.5 -16l28 -2v-40h-244v40l34 1q54 5 54 53v233q0 70 -31.5 106t-88.5 36q-39 0 -82.5 -18t-72.5 -54v-303
q0 -48 54 -53l34 -1v-40h-249v40l33 2q57 3 57 54v499h-90z" />
    <glyph glyph-name="Itilde" unicode="&#x128;" horiz-adv-x="388" 
d="M39 0v43l56 2q28 1 44.5 17t16.5 40v517q0 24 -16.5 40t-44.5 17l-56 2v43h310v-43l-56 -2q-28 -1 -44.5 -17t-16.5 -40v-517q0 -24 16.5 -40t44.5 -17l56 -2v-43h-310zM45 803q4 59 29.5 92.5t62.5 33.5q29 0 72 -33t64 -33q17 0 32.5 15t18.5 51h32q0 -60 -25.5 -95
t-63.5 -35q-28 0 -71 32.5t-63 32.5q-43 0 -53 -61h-35z" />
    <glyph glyph-name="itilde" unicode="&#x129;" horiz-adv-x="313" 
d="M34 0v40l33 2q56 3 56 51v308q0 23 -14.5 36.5t-41.5 13.5h-29v39l157 37v-434q0 -48 56 -51l33 -2v-40h-250zM-7 611q4 59 29.5 92t62.5 33q29 0 72 -33.5t64 -33.5q18 0 33 15.5t18 50.5h32q0 -59 -25.5 -94t-63.5 -35q-28 0 -71 32.5t-63 32.5q-17 0 -32.5 -14
t-20.5 -46h-35z" />
    <glyph glyph-name="Imacron" unicode="&#x12a;" horiz-adv-x="388" 
d="M39 0v43l56 2q28 1 44.5 17t16.5 40v517q0 24 -16.5 40t-44.5 17l-56 2v43h310v-43l-56 -2q-28 -1 -44.5 -17t-16.5 -40v-517q0 -24 16.5 -40t44.5 -17l56 -2v-43h-310zM41 799v56h307v-56h-307z" />
    <glyph glyph-name="imacron" unicode="&#x12b;" horiz-adv-x="313" 
d="M34 0v40l33 2q56 3 56 51v308q0 23 -14.5 36.5t-41.5 13.5h-29v39l157 37v-434q0 -48 56 -51l33 -2v-40h-250zM-14 636v56h307v-56h-307z" />
    <glyph glyph-name="Iogonek" unicode="&#x12e;" horiz-adv-x="388" 
d="M142 -170q-58 5 -97.5 36.5t-39.5 73.5t34 65v38l56 2q28 1 44.5 17t16.5 40v517q0 24 -16.5 40t-44.5 17l-56 2v43h310v-43l-56 -2q-28 -1 -44.5 -17t-16.5 -40v-517q0 -24 16.5 -40t44.5 -17l56 -2v-43h-271q-21 -21 -21 -46q0 -30 26 -48.5t59 -20.5v-55z" />
    <glyph glyph-name="iogonek" unicode="&#x12f;" horiz-adv-x="313" 
d="M133 -178q-58 5 -97.5 36.5t-39.5 73.5q0 45 38 68v40l33 2q56 3 56 51v308q0 23 -14.5 36.5t-41.5 13.5h-29v39l157 37v-434q0 -48 56 -51l33 -2v-40h-206q-30 -24 -30 -54t26 -48.5t59 -20.5v-55zM94 693q0 25 16.5 41t43.5 16q29 0 44 -15.5t15 -41.5t-15.5 -40.5
t-43.5 -14.5t-44 15t-16 40z" />
    <glyph glyph-name="Idotaccent" unicode="&#x130;" horiz-adv-x="388" 
d="M39 0v43l56 2q28 1 44.5 17t16.5 40v517q0 24 -16.5 40t-44.5 17l-56 2v43h310v-43l-56 -2q-28 -1 -44.5 -17t-16.5 -40v-517q0 -24 16.5 -40t44.5 -17l56 -2v-43h-310zM132 859q0 25 17 42.5t44 17.5q28 0 45.5 -17.5t17.5 -42.5t-17 -42t-46 -17q-27 0 -44 17t-17 42z
" />
    <glyph glyph-name="dotlessi" unicode="&#x131;" horiz-adv-x="313" 
d="M34 0v40l33 2q56 3 56 51v308q0 23 -14.5 36.5t-41.5 13.5h-29v39l157 37v-434q0 -48 56 -51l33 -2v-40h-250z" />
    <glyph glyph-name="IJ" unicode="&#x132;" horiz-adv-x="922" 
d="M39 0v43l56 2q28 1 44.5 17t16.5 40v517q0 24 -16.5 40t-44.5 17l-56 2v43h310v-43l-56 -2q-28 -1 -44.5 -17t-16.5 -40v-517q0 -24 16.5 -40t44.5 -17l56 -2v-43h-310zM398 184h92q0 -73 29.5 -116t88.5 -43q113 0 113 173v421q0 24 -16.5 40t-44.5 17l-56 2v43h299v-43
l-45 -2q-29 -1 -45 -16t-16 -41v-390q0 -118 -43 -183t-148 -65q-90 0 -145.5 50.5t-62.5 152.5z" />
    <glyph glyph-name="ij" unicode="&#x133;" horiz-adv-x="593" 
d="M34 0v40l33 2q56 3 56 51v308q0 23 -14.5 36.5t-41.5 13.5h-29v39l157 37v-434q0 -48 56 -51l33 -2v-40h-250zM94 693q0 25 16.5 41t43.5 16q29 0 44 -15.5t15 -41.5t-15.5 -40.5t-43.5 -14.5t-44 15t-16 40zM316 -183l30 32q82 85 82 201v351q0 23 -14.5 36.5
t-41.5 13.5h-29v39l157 37v-475q0 -88 -40 -146t-123 -116zM399 693q0 25 16 40.5t43 15.5q29 0 44.5 -15.5t15.5 -40.5q0 -56 -60 -56q-27 0 -43 15t-16 41z" />
    <glyph glyph-name="Jcircumflex" unicode="&#x134;" horiz-adv-x="534" 
d="M218 -19q-90 0 -145.5 50.5t-62.5 152.5h92q0 -73 29.5 -116t88.5 -43q113 0 113 173v421q0 24 -16.5 40t-44.5 17l-56 2v43h299v-43l-45 -2q-29 -1 -45 -16t-16 -41v-390q0 -118 -43 -183t-148 -65zM194 799l128 162h45l127 -162h-61l-89 98l-87 -98h-63z" />
    <glyph glyph-name="jcircumflex" unicode="&#x135;" horiz-adv-x="280" 
d="M24 -210l-21 27l30 32q82 85 82 201v351q0 23 -14.5 36.5t-41.5 13.5h-29v39l157 37v-475q0 -88 -40 -146t-123 -116zM-18 606l128 161h45l127 -161h-61l-89 98l-87 -98h-63z" />
    <glyph glyph-name="uni0136" unicode="&#x136;" horiz-adv-x="721" 
d="M357 -231q33 4 54.5 21t21.5 39q0 17 -19 22l-11 2q-34 8 -34 40q0 19 13 31t33 12q28 0 45.5 -24t17.5 -63q0 -43 -23 -71.5t-48.5 -38t-49.5 -10.5v40zM39 0v43l46 2q60 3 60 57v517q0 54 -60 57l-46 2v43h289v-43l-45 -2q-29 -1 -45 -16t-16 -41v-517q0 -26 16 -41
t45 -16l45 -2v-43h-289zM245 379l245 229q24 23 24 40q0 28 -54 30l-31 1v42h257v-43q-52 -6 -100 -50l-260 -232l372 -359v-43h-68z" />
    <glyph glyph-name="uni0137" unicode="&#x137;" horiz-adv-x="580" 
d="M279 -231q33 4 54.5 21t21.5 39q0 17 -19 22l-11 2q-34 8 -34 40q0 19 13 31t33 12q28 0 45.5 -24t17.5 -63q0 -43 -23 -71.5t-48.5 -38t-49.5 -10.5v40zM29 0v40l33 2q57 3 57 52v558q0 24 -15 37.5t-42 13.5h-29v39l157 38v-686q0 -23 15 -36.5t41 -15.5l35 -2v-40
h-252zM211 280l138 134q21 21 21 36q0 28 -71 28v41h244v-41q-40 -6 -67 -20t-58 -42l-129 -120l268 -262v-40h-67z" />
    <glyph glyph-name="kgreenlandic" unicode="&#x138;" horiz-adv-x="580" 
d="M490 -6l-279 286l138 134q21 21 21 36q0 28 -71 28v41h244v-41q-40 -6 -67 -20t-58 -42l-129 -120l268 -262v-40h-67zM29 0v40l33 2q57 3 57 52v305q0 24 -15 38t-42 14h-29v38l157 38v-433q0 -23 15 -36.5t41 -15.5l35 -2v-40h-252z" />
    <glyph glyph-name="Lacute" unicode="&#x139;" horiz-adv-x="671" 
d="M39 0v43l46 2q60 3 60 57v517q0 54 -60 57l-46 2v43h299v-43l-55 -2q-28 -1 -44.5 -17t-16.5 -40v-518q0 -26 19 -41.5t51 -15.5h107q87 0 127.5 45t60.5 139h40l-28 -228h-560zM169 799l78 150h100l-130 -150h-48z" />
    <glyph glyph-name="lacute" unicode="&#x13a;" horiz-adv-x="308" 
d="M29 0v40l33 2q56 3 56 51v559q0 24 -14.5 38t-41.5 14h-29v38l157 38v-687q0 -48 56 -51l33 -2v-40h-250zM85 799l78 150h100l-130 -150h-48z" />
    <glyph glyph-name="uni013B" unicode="&#x13b;" horiz-adv-x="671" 
d="M289 -231q33 4 54.5 21t21.5 39q0 17 -19 22l-11 2q-34 8 -34 40q0 19 13 31t33 12q28 0 45.5 -24t17.5 -63q0 -43 -23 -71.5t-48.5 -38t-49.5 -10.5v40zM39 0v43l46 2q60 3 60 57v517q0 54 -60 57l-46 2v43h299v-43l-55 -2q-28 -1 -44.5 -17t-16.5 -40v-518
q0 -26 19 -41.5t51 -15.5h107q87 0 127.5 45t60.5 139h40l-28 -228h-560z" />
    <glyph glyph-name="uni013C" unicode="&#x13c;" horiz-adv-x="308" 
d="M94 -231q33 4 54.5 21t21.5 39q0 17 -19 22l-11 2q-34 8 -34 40q0 19 13 31t33 12q28 0 45.5 -24t17.5 -63q0 -43 -23 -71.5t-48.5 -38t-49.5 -10.5v40zM29 0v40l33 2q56 3 56 51v559q0 24 -14.5 38t-41.5 14h-29v38l157 38v-687q0 -48 56 -51l33 -2v-40h-250z" />
    <glyph glyph-name="Lcaron" unicode="&#x13d;" horiz-adv-x="717" 
d="M39 0v43l46 2q60 3 60 57v517q0 54 -60 57l-46 2v43h299v-43l-55 -2q-28 -1 -44.5 -17t-16.5 -40v-518q0 -26 19 -41.5t51 -15.5h107q87 0 127.5 45t60.5 139h40l-28 -228h-560zM519 469v41q50 7 78 34t28 58q0 32 -33 37l-15 2q-20 4 -31 17t-11 30q0 22 15.5 38.5
t42.5 16.5q36 0 58.5 -31t22.5 -81q0 -42 -16 -74t-41.5 -50t-50 -27t-47.5 -11z" />
    <glyph glyph-name="lcaron" unicode="&#x13e;" horiz-adv-x="503" 
d="M29 0v40l33 2q56 3 56 51v559q0 24 -14.5 38t-41.5 14h-29v38l157 38v-687q0 -48 56 -51l33 -2v-40h-250zM295 468v41q50 7 78 34t28 58q0 32 -33 37l-15 2q-20 4 -31 17t-11 30q0 22 15.5 38.5t42.5 16.5q36 0 58.5 -31t22.5 -81q0 -42 -16 -74t-41.5 -50t-50 -27
t-47.5 -11z" />
    <glyph glyph-name="Ldot" unicode="&#x13f;" horiz-adv-x="674" 
d="M39 0v43l46 2q60 3 60 57v517q0 54 -60 57l-46 2v43h299v-43l-55 -2q-28 -1 -44.5 -17t-16.5 -40v-518q0 -26 19 -41.5t51 -15.5h107q87 0 127.5 45t60.5 139h40l-28 -228h-560zM493 468q0 25 17 42.5t44 17.5q28 0 45.5 -17.5t17.5 -42.5t-17 -42t-46 -17q-27 0 -44 17
t-17 42z" />
    <glyph glyph-name="ldot" unicode="&#x140;" horiz-adv-x="446" 
d="M29 0v40l33 2q56 3 56 51v559q0 24 -14.5 38t-41.5 14h-29v38l157 38v-687q0 -48 56 -51l33 -2v-40h-250zM293 457q0 25 17 42.5t44 17.5q28 0 45.5 -17.5t17.5 -42.5t-17 -42t-46 -17q-27 0 -44 17t-17 42z" />
    <glyph glyph-name="Lslash" unicode="&#x141;" horiz-adv-x="692" 
d="M39 223v50l127 66v280q0 54 -60 57l-46 2v43h299v-43l-55 -2q-28 -1 -44.5 -17t-16.5 -40v-239l199 104v-49l-199 -105v-229q0 -26 19 -41.5t51 -15.5h107q87 0 127.5 45t60.5 139h40l-28 -228h-560v43l46 2q60 3 60 57v188z" />
    <glyph glyph-name="lslash" unicode="&#x142;" horiz-adv-x="331" 
d="M29 259v48l106 55v290q0 24 -14.5 38t-41.5 14h-29v38l157 38v-381l93 48v-47l-93 -48v-259q0 -48 56 -51l33 -2v-40h-250v40l33 2q56 3 56 51v221z" />
    <glyph glyph-name="Nacute" unicode="&#x143;" horiz-adv-x="855" 
d="M45 0v43l50 2q31 2 49 22t18 55v508l-4 6q-20 26 -48 33.5t-71 8.5v43h175l445 -589v467q0 35 -18.5 55.5t-48.5 21.5l-60 2v43h295v-43l-49 -2q-32 -2 -50 -22t-18 -55v-599h-44l-453 595v-473q0 -34 18.5 -55t47.5 -22l61 -2v-43h-295zM384 799l78 150h100l-130 -150
h-48z" />
    <glyph glyph-name="nacute" unicode="&#x144;" horiz-adv-x="645" 
d="M29 0v40l33 2q57 3 57 54v305q0 23 -15 36.5t-42 13.5h-29v39l153 37v-97q34 46 89 71.5t107 25.5q71 0 112.5 -46t41.5 -131v-256q0 -21 15.5 -36t41.5 -16l28 -2v-40h-244v40l34 1q54 5 54 53v233q0 70 -31.5 106t-88.5 36q-39 0 -82.5 -18t-72.5 -54v-303
q0 -48 54 -53l34 -1v-40h-249zM299 606l80 150h98l-130 -150h-48z" />
    <glyph glyph-name="uni0145" unicode="&#x145;" horiz-adv-x="855" 
d="M367 -231q33 4 54.5 21t21.5 39q0 17 -19 22l-11 2q-34 8 -34 40q0 19 13 31t33 12q28 0 45.5 -24t17.5 -63q0 -43 -23 -71.5t-48.5 -38t-49.5 -10.5v40zM39 678v43h175l445 -589v467q0 35 -18.5 55.5t-48.5 21.5l-60 2v43h295v-43l-49 -2q-32 -2 -50 -22t-18 -55v-599
h-44l-453 595v-473q0 -34 18.5 -55t47.5 -22l61 -2v-43h-295v43l50 2q31 2 49 22t18 55v508l-4 6q-20 26 -48 33.5t-71 8.5z" />
    <glyph glyph-name="uni0146" unicode="&#x146;" horiz-adv-x="645" 
d="M271 -231q33 4 54.5 21t21.5 39q0 17 -19 22l-11 2q-34 8 -34 40q0 19 13 31t33 12q28 0 45.5 -24t17.5 -63q0 -43 -23 -71.5t-48.5 -38t-49.5 -10.5v40zM29 0v40l33 2q57 3 57 54v305q0 23 -15 36.5t-42 13.5h-29v39l153 37v-97q34 46 89 71.5t107 25.5q71 0 112.5 -46
t41.5 -131v-256q0 -21 15.5 -36t41.5 -16l28 -2v-40h-244v40l34 1q54 5 54 53v233q0 70 -31.5 106t-88.5 36q-39 0 -82.5 -18t-72.5 -54v-303q0 -48 54 -53l34 -1v-40h-249z" />
    <glyph glyph-name="Ncaron" unicode="&#x147;" horiz-adv-x="855" 
d="M45 0v43l50 2q31 2 49 22t18 55v508l-4 6q-20 26 -48 33.5t-71 8.5v43h175l445 -589v467q0 35 -18.5 55.5t-48.5 21.5l-60 2v43h295v-43l-49 -2q-32 -2 -50 -22t-18 -55v-599h-44l-453 595v-473q0 -34 18.5 -55t47.5 -22l61 -2v-43h-295zM284 961h63l87 -98l89 98h61
l-127 -162h-45z" />
    <glyph glyph-name="ncaron" unicode="&#x148;" horiz-adv-x="645" 
d="M29 0v40l33 2q57 3 57 54v305q0 23 -15 36.5t-42 13.5h-29v39l153 37v-97q34 46 89 71.5t107 25.5q71 0 112.5 -46t41.5 -131v-256q0 -21 15.5 -36t41.5 -16l28 -2v-40h-244v40l34 1q54 5 54 53v233q0 70 -31.5 106t-88.5 36q-39 0 -82.5 -18t-72.5 -54v-303
q0 -48 54 -53l34 -1v-40h-249zM192 767h63l88 -98l88 98h61l-127 -161h-45z" />
    <glyph glyph-name="napostrophe" unicode="&#x149;" horiz-adv-x="863" 
d="M51 509q50 7 78 34t28 58q0 32 -33 37l-15 2q-20 4 -31 17t-11 30q0 22 15.5 38.5t42.5 16.5q36 0 58.5 -31t22.5 -81q0 -42 -16 -74t-41.5 -50t-50 -27t-47.5 -11v41zM247 0v40l33 2q57 3 57 54v305q0 23 -15 36.5t-42 13.5h-29v39l153 37v-97q34 46 89 71.5t107 25.5
q71 0 112.5 -46t41.5 -131v-256q0 -21 15.5 -36t41.5 -16l28 -2v-40h-244v40l34 1q54 5 54 53v233q0 70 -31.5 106t-88.5 36q-39 0 -82.5 -18t-72.5 -54v-303q0 -48 54 -53l34 -1v-40h-249z" />
    <glyph glyph-name="Eng" unicode="&#x14a;" horiz-adv-x="855" 
d="M547 -210l-21 27l33 36q76 81 79 183l-425 559v-473q0 -35 18 -55.5t48 -21.5l61 -2v-43h-295v43l50 2q31 2 49 22t18 55v508l-4 6q-20 26 -48 33.5t-71 8.5v43h175l445 -588v466q0 35 -18.5 55.5t-48.5 21.5l-60 2v43h295v-43l-49 -2q-32 -2 -50 -22t-18 -55v-547
q0 -61 -19.5 -107t-51.5 -79t-92 -76z" />
    <glyph glyph-name="eng" unicode="&#x14b;" horiz-adv-x="611" 
d="M373 -210l-22 27l30 32q84 87 84 203v276q0 70 -31.5 106t-88.5 36q-39 0 -82.5 -18t-72.5 -55v-302q0 -47 54 -52l34 -2v-40h-249v40l33 2q57 5 57 54v304q0 23 -15 37t-42 14h-29v38l153 37v-97q34 46 89 71.5t107 25.5q71 0 112.5 -45.5t41.5 -130.5v-298
q0 -88 -40 -146.5t-123 -116.5z" />
    <glyph glyph-name="Omacron" unicode="&#x14c;" horiz-adv-x="798" 
d="M400 -19q-150 0 -247.5 109.5t-97.5 271.5q0 161 96.5 269t247.5 108q150 0 248 -110t98 -271t-97.5 -269t-247.5 -108zM146 397q0 -156 79.5 -263.5t199.5 -107.5q103 0 165 81t62 215q0 157 -79 265t-199 108q-103 0 -165.5 -82t-62.5 -216zM246 799v56h307v-56h-307z
" />
    <glyph glyph-name="omacron" unicode="&#x14d;" horiz-adv-x="579" 
d="M289 -11q-115 0 -180 77t-65 190q0 115 67 193t178 78q116 0 180.5 -77t64.5 -191q0 -115 -66 -192.5t-179 -77.5zM127 292q0 -73 19 -131.5t60.5 -96t100.5 -37.5q74 0 109.5 56t35.5 142q0 72 -18.5 130t-60 96t-99.5 38q-76 0 -111.5 -55.5t-35.5 -141.5zM134 616v56
h307v-56h-307z" />
    <glyph glyph-name="Obreve" unicode="&#x14e;" horiz-adv-x="798" 
d="M400 -19q-150 0 -247.5 109.5t-97.5 271.5q0 161 96.5 269t247.5 108q150 0 248 -110t98 -271t-97.5 -269t-247.5 -108zM146 397q0 -156 79.5 -263.5t199.5 -107.5q103 0 165 81t62 215q0 157 -79 265t-199 108q-103 0 -165.5 -82t-62.5 -216zM283 901q0 25 7 42h56
q-6 -13 -6 -34q0 -63 59 -63q60 0 60 62q0 22 -6 35h56q7 -21 7 -42q0 -43 -28.5 -74t-88.5 -31q-58 0 -87 31t-29 74z" />
    <glyph glyph-name="obreve" unicode="&#x14f;" horiz-adv-x="579" 
d="M289 -11q-115 0 -180 77t-65 190q0 115 67 193t178 78q116 0 180.5 -77t64.5 -191q0 -115 -66 -192.5t-179 -77.5zM127 292q0 -73 19 -131.5t60.5 -96t100.5 -37.5q74 0 109.5 56t35.5 142q0 72 -18.5 130t-60 96t-99.5 38q-76 0 -111.5 -55.5t-35.5 -141.5zM173 711
q0 23 7 43h55q-5 -18 -5 -34q0 -64 59 -64q60 0 60 64q0 16 -5 34h55q7 -24 7 -43q0 -44 -28.5 -74.5t-88.5 -30.5q-58 0 -87 31t-29 74z" />
    <glyph glyph-name="Ohungarumlaut" unicode="&#x150;" horiz-adv-x="798" 
d="M400 -19q-150 0 -247.5 109.5t-97.5 271.5q0 161 96.5 269t247.5 108q150 0 248 -110t98 -271t-97.5 -269t-247.5 -108zM146 397q0 -156 79.5 -263.5t199.5 -107.5q103 0 165 81t62 215q0 157 -79 265t-199 108q-103 0 -165.5 -82t-62.5 -216zM306 799l41 155h62
l-54 -155h-49zM436 799l41 153h60l-51 -153h-50z" />
    <glyph glyph-name="ohungarumlaut" unicode="&#x151;" horiz-adv-x="579" 
d="M289 -11q-115 0 -180 77t-65 190q0 115 67 193t178 78q116 0 180.5 -77t64.5 -191q0 -115 -66 -192.5t-179 -77.5zM127 292q0 -73 19 -131.5t60.5 -96t100.5 -37.5q74 0 109.5 56t35.5 142q0 72 -18.5 130t-60 96t-99.5 38q-76 0 -111.5 -55.5t-35.5 -141.5zM198 606
l41 154h62l-54 -154h-49zM327 606l42 154h60l-52 -154h-50z" />
    <glyph glyph-name="OE" unicode="&#x152;" horiz-adv-x="1040" 
d="M393 0q-149 0 -243.5 101.5t-94.5 260.5q0 160 96 259.5t248 99.5h549v-188h-37q-5 77 -38.5 110.5t-107.5 33.5h-190v-289h120q57 0 76.5 23.5t22.5 82.5h41v-255h-41q-3 59 -22.5 82.5t-76.5 23.5h-120v-245q0 -26 19 -42t51 -16h107q88 0 128 45.5t60 140.5h40
l-28 -228h-559zM146 399q0 -155 79 -255.5t192 -100.5q28 0 46 6t25 17.5t9 20.5t2 23v488q0 16 -3 27t-12.5 24.5t-34 21t-62.5 7.5q-116 0 -178.5 -73t-62.5 -206z" />
    <glyph glyph-name="oe" unicode="&#x153;" horiz-adv-x="933" 
d="M289 -11q-115 0 -180 77t-65 190q0 115 67 193t178 78q77 0 131.5 -37.5t82.5 -99.5q27 62 79 99.5t124 37.5q91 0 136.5 -62t45.5 -178h-354v-16q0 -91 44 -152.5t127 -61.5q50 0 86.5 25t53.5 71h36q-17 -75 -69 -119.5t-129 -44.5q-67 0 -115 34.5t-73 93.5
q-28 -60 -81 -94t-125 -34zM127 292q0 -73 19 -131.5t60.5 -96t100.5 -37.5q74 0 109.5 56t35.5 142q0 72 -18.5 130t-60 96t-99.5 38q-76 0 -111.5 -55.5t-35.5 -141.5zM539 330h261q-1 73 -31.5 116t-84.5 43q-58 0 -95.5 -45t-49.5 -114z" />
    <glyph glyph-name="Racute" unicode="&#x154;" horiz-adv-x="709" 
d="M619 -6l-297 336h-100v-228q0 -26 16 -41t45 -16l45 -2v-43h-289v43l46 2q60 3 60 57v517q0 54 -60 57l-46 2v43h328q110 0 171 -53t61 -127q0 -69 -51 -126t-141 -72l279 -306v-43h-67zM222 374h105q84 0 131.5 45t47.5 107t-48 106.5t-136 44.5h-100v-303zM297 799
l78 150h100l-130 -150h-48z" />
    <glyph glyph-name="racute" unicode="&#x155;" horiz-adv-x="433" 
d="M29 0v40l33 2q57 3 57 52v307q0 23 -15 36.5t-42 13.5h-29v39l153 37v-146q27 78 76.5 112t101.5 34q18 0 45 -6v-78q-38 10 -61 10q-118 0 -158 -107v-252q0 -22 15.5 -36.5t40.5 -15.5l45 -2v-40h-262zM208 606l80 150h98l-130 -150h-48z" />
    <glyph glyph-name="uni0156" unicode="&#x156;" horiz-adv-x="709" 
d="M331 -231q33 4 54.5 21t21.5 39q0 17 -19 22l-11 2q-34 8 -34 40q0 19 13 31t33 12q28 0 45.5 -24t17.5 -63q0 -43 -23 -71.5t-48.5 -38t-49.5 -10.5v40zM39 0v43l46 2q60 3 60 57v517q0 54 -60 57l-46 2v43h328q110 0 171 -53t61 -127q0 -69 -51 -126t-141 -72l279 -306
v-43h-67l-297 336h-100v-228q0 -26 16 -41t45 -16l45 -2v-43h-289zM222 374h105q84 0 131.5 45t47.5 107t-48 106.5t-136 44.5h-100v-303z" />
    <glyph glyph-name="uni0157" unicode="&#x157;" horiz-adv-x="433" 
d="M97 -231q33 4 54.5 21t21.5 39q0 17 -19 22l-11 2q-34 8 -34 40q0 19 13 31t33 12q28 0 45.5 -24t17.5 -63q0 -43 -23 -71.5t-48.5 -38t-49.5 -10.5v40zM29 0v40l33 2q57 3 57 52v307q0 23 -15 36.5t-42 13.5h-29v39l153 37v-146q27 78 76.5 112t101.5 34q18 0 45 -6v-78
q-38 10 -61 10q-118 0 -158 -107v-252q0 -22 15.5 -36.5t40.5 -15.5l45 -2v-40h-262z" />
    <glyph glyph-name="Rcaron" unicode="&#x158;" horiz-adv-x="709" 
d="M619 -6l-297 336h-100v-228q0 -26 16 -41t45 -16l45 -2v-43h-289v43l46 2q60 3 60 57v517q0 54 -60 57l-46 2v43h328q110 0 171 -53t61 -127q0 -69 -51 -126t-141 -72l279 -306v-43h-67zM182 961h63l87 -98l89 98h61l-127 -162h-45zM222 374h105q84 0 131.5 45t47.5 107
t-48 106.5t-136 44.5h-100v-303z" />
    <glyph glyph-name="rcaron" unicode="&#x159;" horiz-adv-x="433" 
d="M29 0v40l33 2q57 3 57 52v307q0 23 -15 36.5t-42 13.5h-29v39l153 37v-146q27 78 76.5 112t101.5 34q18 0 45 -6v-78q-38 10 -61 10q-118 0 -158 -107v-252q0 -22 15.5 -36.5t40.5 -15.5l45 -2v-40h-262zM83 767h63l88 -98l88 98h61l-127 -161h-45z" />
    <glyph glyph-name="Sacute" unicode="&#x15a;" horiz-adv-x="614" 
d="M327 -19q-97 0 -176.5 53.5t-100.5 149.5h100q11 -75 66 -117t125 -42q62 0 104 34t42 96q0 29 -11.5 54t-25 39.5t-38 28.5t-37 19t-35.5 13l-66 23q-34 12 -58.5 22t-53.5 28t-46.5 38.5t-30 51.5t-12.5 68q0 90 63 144.5t165 54.5q95 0 164.5 -48.5t90.5 -137.5h-99
q-14 66 -57.5 103.5t-111.5 37.5q-65 0 -104.5 -33.5t-39.5 -92.5q0 -35 14 -62t40 -45t45.5 -27t48.5 -19l92 -32q25 -9 39.5 -15t44 -23.5t46.5 -36.5t31 -51t14 -71q0 -90 -64 -147.5t-168 -57.5zM275 799l78 150h100l-130 -150h-48z" />
    <glyph glyph-name="sacute" unicode="&#x15b;" horiz-adv-x="480" 
d="M259 -11q-84 0 -142.5 44t-72.5 117h87q27 -124 139 -124q46 0 75 22.5t29 64.5q0 43 -28.5 65t-71.5 34l-53 15q-37 11 -58.5 20t-47.5 26t-38.5 43t-12.5 62q0 72 50.5 110.5t125.5 38.5q73 0 123.5 -36.5t66.5 -100.5h-88q-7 47 -40.5 73t-76.5 26t-72.5 -23
t-29.5 -65t29 -64t82 -37l65 -18q26 -8 45.5 -16.5t42.5 -25t36 -43.5t13 -62q0 -68 -47.5 -107t-129.5 -39zM206 606l80 150h98l-130 -150h-48z" />
    <glyph glyph-name="Scircumflex" unicode="&#x15c;" horiz-adv-x="614" 
d="M327 -19q-97 0 -176.5 53.5t-100.5 149.5h100q11 -75 66 -117t125 -42q62 0 104 34t42 96q0 29 -11.5 54t-25 39.5t-38 28.5t-37 19t-35.5 13l-66 23q-34 12 -58.5 22t-53.5 28t-46.5 38.5t-30 51.5t-12.5 68q0 90 63 144.5t165 54.5q95 0 164.5 -48.5t90.5 -137.5h-99
q-14 66 -57.5 103.5t-111.5 37.5q-65 0 -104.5 -33.5t-39.5 -92.5q0 -35 14 -62t40 -45t45.5 -27t48.5 -19l92 -32q25 -9 39.5 -15t44 -23.5t46.5 -36.5t31 -51t14 -71q0 -90 -64 -147.5t-168 -57.5zM161 799l128 162h45l127 -162h-61l-89 98l-87 -98h-63z" />
    <glyph glyph-name="scircumflex" unicode="&#x15d;" horiz-adv-x="480" 
d="M259 -11q-84 0 -142.5 44t-72.5 117h87q27 -124 139 -124q46 0 75 22.5t29 64.5q0 43 -28.5 65t-71.5 34l-53 15q-37 11 -58.5 20t-47.5 26t-38.5 43t-12.5 62q0 72 50.5 110.5t125.5 38.5q73 0 123.5 -36.5t66.5 -100.5h-88q-7 47 -40.5 73t-76.5 26t-72.5 -23
t-29.5 -65t29 -64t82 -37l65 -18q26 -8 45.5 -16.5t42.5 -25t36 -43.5t13 -62q0 -68 -47.5 -107t-129.5 -39zM93 606l128 161h45l127 -161h-61l-89 98l-87 -98h-63z" />
    <glyph glyph-name="Scedilla" unicode="&#x15e;" horiz-adv-x="614" 
d="M334 -219q-57 0 -101 39l23 34q39 -36 79 -36q51 0 51 40q0 51 -98 51l11 73q-90 8 -160 60.5t-89 141.5h100q11 -75 66 -117t125 -42q62 0 104 34t42 96q0 29 -11.5 54t-25 39.5t-38 28.5t-37 19t-35.5 13l-66 23q-34 12 -58.5 22t-53.5 28t-46.5 38.5t-30 51.5
t-12.5 68q0 90 63 144.5t165 54.5q95 0 164.5 -48.5t90.5 -137.5h-99q-14 66 -57.5 103.5t-111.5 37.5q-65 0 -104.5 -33.5t-39.5 -92.5q0 -35 14 -62t40 -45t45.5 -27t48.5 -19l92 -32q25 -9 39.5 -15t44 -23.5t46.5 -36.5t31 -51t14 -71q0 -88 -62 -145.5t-163 -59.5v-48
q44 1 70.5 -20t26.5 -53t-25 -55.5t-72 -23.5z" />
    <glyph glyph-name="scedilla" unicode="&#x15f;" horiz-adv-x="480" 
d="M275 -219q-57 0 -101 39l23 34q39 -36 79 -36q51 0 51 40q0 51 -98 51l12 81q-78 4 -131 47.5t-66 112.5h87q27 -124 139 -124q46 0 75 22.5t29 64.5q0 43 -28.5 65t-71.5 34l-53 15q-37 11 -58.5 20t-47.5 26t-38.5 43t-12.5 62q0 72 50.5 110.5t125.5 38.5
q73 0 123.5 -36.5t66.5 -100.5h-88q-7 47 -40.5 73t-76.5 26t-72.5 -23t-29.5 -65t29 -64t82 -37l65 -18q26 -8 45.5 -16.5t42.5 -25t36 -43.5t13 -62q0 -64 -43 -102.5t-118 -43.5v-56q44 1 70.5 -20t26.5 -53t-25 -55.5t-72 -23.5z" />
    <glyph glyph-name="Scaron" unicode="&#x160;" horiz-adv-x="614" 
d="M327 -19q-97 0 -176.5 53.5t-100.5 149.5h100q11 -75 66 -117t125 -42q62 0 104 34t42 96q0 29 -11.5 54t-25 39.5t-38 28.5t-37 19t-35.5 13l-66 23q-34 12 -58.5 22t-53.5 28t-46.5 38.5t-30 51.5t-12.5 68q0 90 63 144.5t165 54.5q95 0 164.5 -48.5t90.5 -137.5h-99
q-14 66 -57.5 103.5t-111.5 37.5q-65 0 -104.5 -33.5t-39.5 -92.5q0 -35 14 -62t40 -45t45.5 -27t48.5 -19l92 -32q25 -9 39.5 -15t44 -23.5t46.5 -36.5t31 -51t14 -71q0 -90 -64 -147.5t-168 -57.5zM162 961h63l87 -98l89 98h61l-127 -162h-45z" />
    <glyph glyph-name="scaron" unicode="&#x161;" horiz-adv-x="480" 
d="M259 -11q-84 0 -142.5 44t-72.5 117h87q27 -124 139 -124q46 0 75 22.5t29 64.5q0 43 -28.5 65t-71.5 34l-53 15q-37 11 -58.5 20t-47.5 26t-38.5 43t-12.5 62q0 72 50.5 110.5t125.5 38.5q73 0 123.5 -36.5t66.5 -100.5h-88q-7 47 -40.5 73t-76.5 26t-72.5 -23
t-29.5 -65t29 -64t82 -37l65 -18q26 -8 45.5 -16.5t42.5 -25t36 -43.5t13 -62q0 -68 -47.5 -107t-129.5 -39zM94 767h63l88 -98l88 98h61l-127 -161h-45z" />
    <glyph glyph-name="uni0162" unicode="&#x162;" horiz-adv-x="716" 
d="M234 -220q-57 0 -101 39l23 34q39 -36 79 -36q51 0 51 40q0 51 -98 51l14 92h1v43l56 2q28 1 44.5 17t16.5 40v575h-96q-70 0 -106 -33.5t-48 -110.5h-36l13 188h621l14 -188h-37q-13 77 -48.5 110.5t-106.5 33.5h-94v-575q0 -24 16.5 -40t44.5 -17l56 -2v-43h-279v-68
q44 1 70.5 -20t26.5 -53t-25 -55.5t-72 -23.5z" />
    <glyph glyph-name="uni0163" unicode="&#x163;" horiz-adv-x="401" 
d="M253 -219q-57 0 -101 39l23 34q39 -36 79 -36q51 0 51 40q0 51 -98 51l12 82q-100 13 -100 125v362h-95v41q57 3 85 33.5t40 88.5h41v-122h183v-43h-183v-333q0 -96 95 -96q40 0 92 19v-41q-61 -33 -124 -36v-56q44 1 70.5 -20t26.5 -53t-25 -55.5t-72 -23.5z" />
    <glyph glyph-name="Tcaron" unicode="&#x164;" horiz-adv-x="716" 
d="M203 0v43l56 2q28 1 44.5 17t16.5 40v575h-96q-70 0 -106 -33.5t-48 -110.5h-36l13 188h621l14 -188h-37q-13 77 -48.5 110.5t-106.5 33.5h-94v-575q0 -24 16.5 -40t44.5 -17l56 -2v-43h-310zM208 961h63l87 -98l89 98h61l-127 -162h-45z" />
    <glyph glyph-name="tcaron" unicode="&#x165;" horiz-adv-x="645" 
d="M245 -11q-59 0 -92.5 32t-33.5 95v362h-95v41q57 3 85 33.5t40 88.5h41v-122h183v-43h-183v-333q0 -96 95 -96q40 0 92 19v-41q-66 -36 -132 -36zM436 468v41q50 7 78 34t28 58q0 32 -33 37l-15 2q-20 4 -31 17t-11 30q0 22 15.5 38.5t42.5 16.5q36 0 58.5 -31t22.5 -81
q0 -42 -16 -74t-41.5 -50t-50 -27t-47.5 -11z" />
    <glyph glyph-name="Tbar" unicode="&#x166;" horiz-adv-x="716" 
d="M135 378v43h185v256h-96q-70 0 -106 -33.5t-48 -110.5h-36l13 188h621l14 -188h-37q-13 77 -48.5 110.5t-106.5 33.5h-94v-256h185v-43h-185v-276q0 -24 16.5 -40t44.5 -17l56 -2v-43h-310v43l56 2q28 1 44.5 17t16.5 40v276h-185z" />
    <glyph glyph-name="tbar" unicode="&#x167;" horiz-adv-x="401" 
d="M24 294v43h95v141h-95v41q57 3 85 33.5t40 88.5h41v-122h183v-43h-183v-139h167v-43h-167v-151q0 -96 95 -96q40 0 92 19v-41q-66 -36 -132 -36q-59 0 -92.5 32t-33.5 95v178h-95z" />
    <glyph glyph-name="Utilde" unicode="&#x168;" horiz-adv-x="845" 
d="M425 -19q-120 0 -202.5 72.5t-82.5 203.5v362q0 54 -61 57l-45 2v43h289v-43l-45 -2q-61 -3 -61 -57v-370q0 -103 62.5 -159t156.5 -56q89 0 148 52.5t59 148.5v364q0 35 -18 55.5t-48 21.5l-62 2v43h296v-43l-50 -2q-32 -2 -49.5 -22t-17.5 -55v-360q0 -123 -77 -190.5
t-192 -67.5zM269 803q4 59 29.5 92.5t62.5 33.5q29 0 72 -33t64 -33q17 0 32.5 15t18.5 51h32q0 -60 -25.5 -95t-63.5 -35q-28 0 -71 32.5t-63 32.5q-43 0 -53 -61h-35z" />
    <glyph glyph-name="utilde" unicode="&#x169;" 
d="M268 -11q-71 0 -115 49t-44 134v228q0 23 -15 37t-41 14h-29v38l157 38v-339q0 -69 31 -105.5t90 -36.5q89 0 147 73v281q0 23 -14.5 37t-40.5 14h-30v38l157 38v-411q0 -24 14.5 -37.5t41.5 -13.5h35v-38l-159 -38v97q-34 -46 -84.5 -71.5t-100.5 -25.5zM160 611
q4 59 29.5 92t62.5 33q29 0 72 -33.5t64 -33.5q18 0 33 15.5t18 50.5h32q0 -59 -25.5 -94t-63.5 -35q-28 0 -71 32.5t-63 32.5q-17 0 -32.5 -14t-20.5 -46h-35z" />
    <glyph glyph-name="Umacron" unicode="&#x16a;" horiz-adv-x="845" 
d="M425 -19q-120 0 -202.5 72.5t-82.5 203.5v362q0 54 -61 57l-45 2v43h289v-43l-45 -2q-61 -3 -61 -57v-370q0 -103 62.5 -159t156.5 -56q89 0 148 52.5t59 148.5v364q0 35 -18 55.5t-48 21.5l-62 2v43h296v-43l-50 -2q-32 -2 -49.5 -22t-17.5 -55v-360q0 -123 -77 -190.5
t-192 -67.5zM269 799v56h307v-56h-307z" />
    <glyph glyph-name="umacron" unicode="&#x16b;" 
d="M268 -11q-71 0 -115 49t-44 134v228q0 23 -15 37t-41 14h-29v38l157 38v-339q0 -69 31 -105.5t90 -36.5q89 0 147 73v281q0 23 -14.5 37t-40.5 14h-30v38l157 38v-411q0 -24 14.5 -37.5t41.5 -13.5h35v-38l-159 -38v97q-34 -46 -84.5 -71.5t-100.5 -25.5zM152 616v56h307
v-56h-307z" />
    <glyph glyph-name="Ubreve" unicode="&#x16c;" horiz-adv-x="845" 
d="M425 -19q-120 0 -202.5 72.5t-82.5 203.5v362q0 54 -61 57l-45 2v43h289v-43l-45 -2q-61 -3 -61 -57v-370q0 -103 62.5 -159t156.5 -56q89 0 148 52.5t59 148.5v364q0 35 -18 55.5t-48 21.5l-62 2v43h296v-43l-50 -2q-32 -2 -49.5 -22t-17.5 -55v-360q0 -123 -77 -190.5
t-192 -67.5zM308 901q0 25 7 42h56q-6 -13 -6 -34q0 -63 59 -63q60 0 60 62q0 22 -6 35h56q7 -21 7 -42q0 -43 -28.5 -74t-88.5 -31q-58 0 -87 31t-29 74z" />
    <glyph glyph-name="ubreve" unicode="&#x16d;" 
d="M268 -11q-71 0 -115 49t-44 134v228q0 23 -15 37t-41 14h-29v38l157 38v-339q0 -69 31 -105.5t90 -36.5q89 0 147 73v281q0 23 -14.5 37t-40.5 14h-30v38l157 38v-411q0 -24 14.5 -37.5t41.5 -13.5h35v-38l-159 -38v97q-34 -46 -84.5 -71.5t-100.5 -25.5zM190 711
q0 23 7 43h55q-5 -18 -5 -34q0 -64 59 -64q60 0 60 64q0 16 -5 34h55q7 -24 7 -43q0 -44 -28.5 -74.5t-88.5 -30.5q-58 0 -87 31t-29 74z" />
    <glyph glyph-name="Uring" unicode="&#x16e;" horiz-adv-x="845" 
d="M425 -19q-120 0 -202.5 72.5t-82.5 203.5v362q0 54 -61 57l-45 2v43h289v-43l-45 -2q-61 -3 -61 -57v-370q0 -103 62.5 -159t156.5 -56q89 0 148 52.5t59 148.5v364q0 35 -18 55.5t-48 21.5l-62 2v43h296v-43l-50 -2q-32 -2 -49.5 -22t-17.5 -55v-360q0 -123 -77 -190.5
t-192 -67.5zM329 885q0 41 27.5 67.5t67.5 26.5t67 -26.5t27 -67.5t-27.5 -68.5t-66.5 -27.5q-41 0 -68 27.5t-27 68.5zM370 885q0 -24 15.5 -41t38.5 -17q22 0 37.5 17t15.5 41q0 23 -15.5 39t-37.5 16q-23 0 -38.5 -16t-15.5 -39z" />
    <glyph glyph-name="uring" unicode="&#x16f;" 
d="M268 -11q-71 0 -115 49t-44 134v228q0 23 -15 37t-41 14h-29v38l157 38v-339q0 -69 31 -105.5t90 -36.5q89 0 147 73v281q0 23 -14.5 37t-40.5 14h-30v38l157 38v-411q0 -24 14.5 -37.5t41.5 -13.5h35v-38l-159 -38v97q-34 -46 -84.5 -71.5t-100.5 -25.5zM199 706
q0 44 28 71t71 27q42 0 70.5 -27.5t28.5 -70.5t-28.5 -71.5t-70.5 -28.5t-70.5 28.5t-28.5 71.5zM244 706q0 -24 15.5 -40.5t38.5 -16.5q22 0 37.5 16.5t15.5 40.5q0 23 -15.5 39t-37.5 16t-38 -16t-16 -39z" />
    <glyph glyph-name="Uhungarumlaut" unicode="&#x170;" horiz-adv-x="845" 
d="M425 -19q-120 0 -202.5 72.5t-82.5 203.5v362q0 54 -61 57l-45 2v43h289v-43l-45 -2q-61 -3 -61 -57v-370q0 -103 62.5 -159t156.5 -56q89 0 148 52.5t59 148.5v364q0 35 -18 55.5t-48 21.5l-62 2v43h296v-43l-50 -2q-32 -2 -49.5 -22t-17.5 -55v-360q0 -123 -77 -190.5
t-192 -67.5zM322 799l41 155h62l-54 -155h-49zM452 799l41 153h60l-51 -153h-50z" />
    <glyph glyph-name="uhungarumlaut" unicode="&#x171;" 
d="M268 -11q-71 0 -115 49t-44 134v228q0 23 -15 37t-41 14h-29v38l157 38v-339q0 -69 31 -105.5t90 -36.5q89 0 147 73v281q0 23 -14.5 37t-40.5 14h-30v38l157 38v-411q0 -24 14.5 -37.5t41.5 -13.5h35v-38l-159 -38v97q-34 -46 -84.5 -71.5t-100.5 -25.5zM202 606l41 154
h62l-54 -154h-49zM331 606l42 154h60l-52 -154h-50z" />
    <glyph glyph-name="Uogonek" unicode="&#x172;" horiz-adv-x="845" 
d="M527 -170q-58 5 -97.5 36.5t-39.5 73.5q0 23 11 42q-112 7 -186.5 79t-74.5 196v362q0 54 -61 57l-45 2v43h289v-43l-45 -2q-61 -3 -61 -57v-370q0 -103 62.5 -159t156.5 -56q89 0 148 52.5t59 148.5v364q0 35 -18 55.5t-48 21.5l-62 2v43h296v-43l-50 -2
q-32 -2 -49.5 -22t-17.5 -55v-360q0 -116 -69.5 -183t-175.5 -74q-7 -14 -7 -28q0 -30 26 -48.5t59 -20.5v-55z" />
    <glyph glyph-name="uogonek" unicode="&#x173;" 
d="M558 -170q-58 5 -97.5 36.5t-39.5 73.5t32 64v82q-34 -46 -84.5 -71.5t-100.5 -25.5q-71 0 -115 49t-44 134v228q0 23 -15 37t-41 14h-29v38l157 38v-339q0 -69 31 -105.5t90 -36.5q89 0 147 73v281q0 23 -14.5 37t-40.5 14h-30v38l157 38v-411q0 -24 14.5 -37.5
t41.5 -13.5h35v-38l-120 -29q-19 -19 -19 -44q0 -30 26 -48.5t59 -20.5v-55z" />
    <glyph glyph-name="Wcircumflex" unicode="&#x174;" horiz-adv-x="1094" 
d="M114 624q-17 49 -90 54v43h257v-43q-44 0 -65.5 -7t-21.5 -29q0 -8 3 -20l174 -501l146 441l-24 63q-9 27 -30.5 39t-59.5 14v43h258v-43q-44 0 -65.5 -7t-21.5 -30q0 -10 4 -21l171 -497l152 465q9 27 9 43q0 28 -22.5 37.5t-70.5 9.5v43h253v-43q-48 -4 -72 -21
t-40 -61l-202 -596h-36l-175 484l-169 -484h-36zM384 799l128 162h45l127 -162h-61l-89 98l-87 -98h-63z" />
    <glyph glyph-name="wcircumflex" unicode="&#x175;" horiz-adv-x="859" 
d="M92 421q-23 55 -68 57v41h206v-41q-63 0 -63 -33q0 -9 7 -30l126 -321l106 265l-25 62q-20 54 -67 57v41h205v-41q-63 0 -63 -34q0 -10 7 -29l117 -322l121 311q9 23 9 37q0 37 -73 37v41h198v-41q-22 -2 -45.5 -22.5t-35.5 -51.5l-169 -404h-36l-119 298l-125 -298h-36z
M276 606l128 161h45l127 -161h-61l-89 98l-87 -98h-63z" />
    <glyph glyph-name="Ycircumflex" unicode="&#x176;" horiz-adv-x="702" 
d="M199 0v43l56 2q28 1 44.5 17t16.5 40v172l-208 350q-30 49 -89 54v43h253v-43q-77 0 -77 -38q0 -12 9 -27l161 -275l150 260q14 25 14 41q0 40 -98 40v42h253v-43q-44 -8 -63.5 -21.5t-37.5 -44.5l-191 -317v-193q0 -23 17 -39.5t45 -17.5l56 -2v-43h-311zM202 799
l128 162h45l127 -162h-61l-89 98l-87 -98h-63z" />
    <glyph glyph-name="ycircumflex" unicode="&#x177;" horiz-adv-x="617" 
d="M102 -188q-30 0 -78 9v76q45 -15 93 -15q58 0 107 31t72 87l-178 411q-28 63 -91 68v40h226v-40q-60 0 -60 -42q0 -17 11 -44l129 -312l125 307q10 24 10 43q0 48 -85 48v40h211v-40q-28 -3 -44.5 -22t-30.5 -52l-171 -400q-10 -25 -19 -43t-31 -49t-46.5 -50.5t-64 -35
t-85.5 -15.5zM154 606l128 161h45l127 -161h-61l-89 98l-87 -98h-63z" />
    <glyph glyph-name="Ydieresis" unicode="&#x178;" horiz-adv-x="702" 
d="M199 0v43l56 2q28 1 44.5 17t16.5 40v172l-208 350q-30 49 -89 54v43h253v-43q-77 0 -77 -38q0 -12 9 -27l161 -275l150 260q14 25 14 41q0 40 -98 40v42h253v-43q-44 -8 -63.5 -21.5t-37.5 -44.5l-191 -317v-193q0 -23 17 -39.5t45 -17.5l56 -2v-43h-311zM207 852
q0 22 14 36t37 14q22 0 36 -14t14 -36q0 -24 -14 -38.5t-36 -14.5q-23 0 -37 14.5t-14 38.5zM410 852q0 22 13.5 36t35.5 14q23 0 37 -13.5t14 -36.5q0 -24 -14 -38.5t-37 -14.5q-22 0 -35.5 14.5t-13.5 38.5z" />
    <glyph glyph-name="Zacute" unicode="&#x179;" horiz-adv-x="663" 
d="M55 0v38l438 639h-236q-73 0 -107 -33.5t-39 -110.5h-36v188h513v-38l-438 -639h228q88 0 128.5 45t59.5 139h40l-27 -228h-524zM311 799l78 150h100l-130 -150h-48z" />
    <glyph glyph-name="zacute" unicode="&#x17a;" horiz-adv-x="508" 
d="M44 0v32l310 443h-133q-64 0 -92 -24t-36 -88h-36v156h391v-32l-311 -444h141q64 0 95 27.5t47 107.5h37l-20 -178h-393zM224 606l80 150h98l-130 -150h-48z" />
    <glyph glyph-name="Zdotaccent" unicode="&#x17b;" horiz-adv-x="663" 
d="M55 0v38l438 639h-236q-73 0 -107 -33.5t-39 -110.5h-36v188h513v-38l-438 -639h228q88 0 128.5 45t59.5 139h40l-27 -228h-524zM280 859q0 25 17 42.5t44 17.5q28 0 45.5 -17.5t17.5 -42.5t-17 -42t-46 -17q-27 0 -44 17t-17 42z" />
    <glyph glyph-name="zdotaccent" unicode="&#x17c;" horiz-adv-x="508" 
d="M44 0v32l310 443h-133q-64 0 -92 -24t-36 -88h-36v156h391v-32l-311 -444h141q64 0 95 27.5t47 107.5h37l-20 -178h-393zM201 665q0 25 17 42.5t44 17.5q28 0 45.5 -17.5t17.5 -42.5t-17 -42t-46 -17q-27 0 -44 17t-17 42z" />
    <glyph glyph-name="Zcaron" unicode="&#x17d;" horiz-adv-x="663" 
d="M55 0v38l438 639h-236q-73 0 -107 -33.5t-39 -110.5h-36v188h513v-38l-438 -639h228q88 0 128.5 45t59.5 139h40l-27 -228h-524zM191 961h63l87 -98l89 98h61l-127 -162h-45z" />
    <glyph glyph-name="zcaron" unicode="&#x17e;" horiz-adv-x="508" 
d="M44 0v32l310 443h-133q-64 0 -92 -24t-36 -88h-36v156h391v-32l-311 -444h141q64 0 95 27.5t47 107.5h37l-20 -178h-393zM114 767h63l88 -98l88 98h61l-127 -161h-45z" />
    <glyph glyph-name="longs" unicode="&#x17f;" horiz-adv-x="403" 
d="M50 0v40l33 2q55 3 55 51v383h-125v43h125v40q0 120 59 182.5t146 62.5q42 0 83 -13v-81q-57 21 -109 21q-59 0 -95.5 -30.5t-36.5 -87.5q0 -33 25 -52v-468q0 -21 15 -35.5t41 -15.5l54 -2v-40h-270z" />
    <glyph glyph-name="florin" unicode="&#x192;" horiz-adv-x="659" 
d="M104 30q44 3 74.5 17.5t48 34t27 51t12 60.5t2.5 72v145h-126v43h126v41q0 120 59 182.5t146 62.5q40 0 82 -14v-81q-53 22 -109 22q-59 0 -95.5 -30.5t-36.5 -87.5q0 -46 25.5 -70.5t72.5 -24.5h103v-43h-175v-135q0 -47 -3 -79.5t-16 -75t-37 -69.5t-70 -47t-110 -23
v49z" />
    <glyph glyph-name="Aringacute" unicode="&#x1fa;" horiz-adv-x="785" 
d="M24 43q42 9 62.5 22.5t34.5 47.5l251 608h37l260 -624q21 -49 92 -54v-43h-271v43q50 0 73 9t23 30q0 14 -7 29l-54 134h-296l-50 -125q-9 -21 -9 -36q0 -22 23.5 -31.5t80.5 -9.5v-43h-250v43zM246 289h260l-131 318zM306 858q0 40 26 65t64 25t64 -25t26 -65
q0 -38 -26 -64.5t-64 -26.5t-64 26.5t-26 64.5zM345 858q0 -23 15 -38.5t37 -15.5q20 0 35 16t15 38t-15 37.5t-35 15.5q-22 0 -37 -15.5t-15 -37.5zM380 986l64 119h78l-103 -119h-39z" />
    <glyph glyph-name="aringacute" unicode="&#x1fb;" horiz-adv-x="540" 
d="M185 -11q-59 0 -97 34.5t-38 98.5q0 29 9.5 51t23 36.5t41.5 27.5t51.5 21t67.5 21q36 10 54 16.5t40 19.5t31.5 32.5t9.5 47.5q0 47 -28 70.5t-74 23.5q-53 0 -88 -34t-44 -101h-88q14 86 73.5 129.5t145.5 43.5q81 0 124 -39t43 -110v-276q0 -68 45 -68q13 0 31 5v-30
q-29 -20 -62 -20q-35 0 -59 26t-25 76q-34 -48 -85.5 -75t-101.5 -27zM130 139q0 -93 94 -93q45 0 85 23t61 56v172q-39 -25 -96 -43l-38 -12q-59 -18 -82.5 -39.5t-23.5 -63.5zM180 658q0 37 25 60.5t61 23.5t60.5 -23.5t24.5 -60.5t-24.5 -61.5t-60.5 -24.5t-61 24.5
t-25 61.5zM217 658q0 -22 14.5 -36.5t34.5 -14.5t34 14.5t14 36.5q0 21 -14 35.5t-34 14.5t-34.5 -14.5t-14.5 -35.5zM238 786l71 134h89l-116 -134h-44z" />
    <glyph glyph-name="AEacute" unicode="&#x1fc;" horiz-adv-x="1061" 
d="M24 43q31 4 48 18.5t40 51.5l309 489q20 32 20 47q0 24 -62 27l-45 2v43h635v-188h-36q-5 77 -39 110.5t-107 33.5h-190v-289h120q56 0 75.5 23.5t23.5 82.5h40v-255h-40q-4 59 -23.5 82.5t-75.5 23.5h-120v-244q0 -26 16 -41.5t45 -15.5h115q88 0 128.5 45t59.5 139h41
l-29 -228h-560v43l46 2q29 1 45 16t16 41v133h-273l-73 -119q-16 -25 -16 -40q0 -20 24.5 -26.5t77.5 -6.5v-43h-236v43zM276 279h244v391zM560 799l78 150h100l-130 -150h-48z" />
    <glyph glyph-name="aeacute" unicode="&#x1fd;" horiz-adv-x="840" 
d="M184 -11q-58 0 -96 35t-38 98q0 29 9.5 51t22.5 36.5t41 27.5t52 21t68 21q28 8 44 13t36 14.5t30 20.5t17.5 28.5t7.5 39.5q0 47 -28 70.5t-74 23.5q-53 0 -88 -34t-44 -101h-88q14 86 73.5 129.5t145.5 43.5q127 0 154 -98q68 98 185 98q181 0 181 -240h-352v-16
q0 -91 43.5 -152.5t126.5 -61.5q50 0 86.5 25t53.5 71h36q-18 -75 -70 -119.5t-128 -44.5q-68 0 -118 34.5t-77 93.5q-90 -128 -212 -128zM130 139q0 -93 94 -93q98 0 161 100q-15 46 -15 103v49q-37 -24 -96 -44l-38 -12q-59 -20 -82.5 -40.5t-23.5 -62.5zM412 606l80 150
h98l-130 -150h-48zM448 330h259q-1 74 -30.5 116.5t-84.5 42.5q-58 0 -95 -44.5t-49 -114.5z" />
    <glyph glyph-name="Oslashacute" unicode="&#x1fe;" horiz-adv-x="798" 
d="M129 -28l-40 32l65 84q-99 110 -99 274q0 161 96.5 269t247.5 108q117 0 207 -71l64 83l42 -32l-68 -87q101 -109 101 -274q0 -161 -97.5 -269t-247.5 -108q-118 0 -208 72zM146 397q0 -137 63 -239l348 448q-76 89 -183 89q-103 0 -165.5 -82t-62.5 -216zM241 115
q76 -89 184 -89q103 0 165 81t62 215q0 138 -63 240zM360 799l78 150h100l-130 -150h-48z" />
    <glyph glyph-name="oslashacute" unicode="&#x1ff;" horiz-adv-x="579" 
d="M92 -28l-35 26l53 68q-66 74 -66 190q0 115 67 193t178 78q86 0 144 -44l54 69l34 -29l-54 -70q67 -75 67 -194q0 -115 -66 -192.5t-179 -77.5q-87 0 -147 47zM127 292q0 -96 32 -163l234 302q-45 58 -119 58q-76 0 -111.5 -55.5t-35.5 -141.5zM183 89q47 -62 124 -62
q74 0 109.5 56t35.5 142q0 98 -34 166zM238 606l80 150h98l-130 -150h-48z" />
    <glyph glyph-name="uni0218" unicode="&#x218;" horiz-adv-x="614" 
d="M269 -231q33 4 54.5 21t21.5 39q0 17 -19 22l-11 2q-34 8 -34 40q0 19 13 31t33 12q28 0 45.5 -24t17.5 -63q0 -43 -23 -71.5t-48.5 -38t-49.5 -10.5v40zM50 184h100q11 -75 66 -117t125 -42q62 0 104 34t42 96q0 29 -11.5 54t-25 39.5t-38 28.5t-37 19t-35.5 13l-66 23
q-34 12 -58.5 22t-53.5 28t-46.5 38.5t-30 51.5t-12.5 68q0 90 63 144.5t165 54.5q95 0 164.5 -48.5t90.5 -137.5h-99q-14 66 -57.5 103.5t-111.5 37.5q-65 0 -104.5 -33.5t-39.5 -92.5q0 -35 14 -62t40 -45t45.5 -27t48.5 -19l92 -32q25 -9 39.5 -15t44 -23.5t46.5 -36.5
t31 -51t14 -71q0 -90 -64 -147.5t-168 -57.5q-97 0 -176.5 53.5t-100.5 149.5z" />
    <glyph glyph-name="uni0219" unicode="&#x219;" horiz-adv-x="480" 
d="M188 -231q33 4 54.5 21t21.5 39q0 17 -19 22l-11 2q-34 8 -34 40q0 19 13 31t33 12q28 0 45.5 -24t17.5 -63q0 -43 -23 -71.5t-48.5 -38t-49.5 -10.5v40zM44 150h87q27 -124 139 -124q46 0 75 22.5t29 64.5q0 43 -28.5 65t-71.5 34l-53 15q-37 11 -58.5 20t-47.5 26
t-38.5 43t-12.5 62q0 72 50.5 110.5t125.5 38.5q73 0 123.5 -36.5t66.5 -100.5h-88q-7 47 -40.5 73t-76.5 26t-72.5 -23t-29.5 -65t29 -64t82 -37l65 -18q26 -8 45.5 -16.5t42.5 -25t36 -43.5t13 -62q0 -68 -47.5 -107t-129.5 -39q-84 0 -142.5 44t-72.5 117z" />
    <glyph glyph-name="uni021A" unicode="&#x21a;" horiz-adv-x="716" 
d="M295 -231q33 4 54.5 21t21.5 39q0 17 -19 22l-11 2q-34 8 -34 40q0 19 13 31t33 12q28 0 45.5 -24t17.5 -63q0 -43 -23 -71.5t-48.5 -38t-49.5 -10.5v40zM34 533l13 188h621l14 -188h-37q-13 77 -48.5 110.5t-106.5 33.5h-94v-575q0 -24 16.5 -40t44.5 -17l56 -2v-43
h-310v43l56 2q28 1 44.5 17t16.5 40v575h-96q-70 0 -106 -33.5t-48 -110.5h-36z" />
    <glyph glyph-name="uni021B" unicode="&#x21b;" horiz-adv-x="401" 
d="M178 -231q33 4 54.5 21t21.5 39q0 17 -19 22l-11 2q-34 8 -34 40q0 19 13 31t33 12q28 0 45.5 -24t17.5 -63q0 -43 -23 -71.5t-48.5 -38t-49.5 -10.5v40zM24 478v41q57 3 85 33.5t40 88.5h41v-122h183v-43h-183v-333q0 -96 95 -96q40 0 92 19v-41q-66 -36 -132 -36
q-59 0 -92.5 32t-33.5 95v362h-95z" />
    <glyph glyph-name="circumflex" unicode="&#x2c6;" horiz-adv-x="300" 
d="M0 606l128 161h45l127 -161h-61l-89 98l-87 -98h-63z" />
    <glyph glyph-name="caron" unicode="&#x2c7;" horiz-adv-x="300" 
d="M128 606l-128 161h63l88 -98l88 98h61l-127 -161h-45z" />
    <glyph glyph-name="uni02C9" unicode="&#x2c9;" horiz-adv-x="307" 
d="M0 798v56h307v-56h-307z" />
    <glyph glyph-name="breve" unicode="&#x2d8;" horiz-adv-x="233" 
d="M116 606q-58 0 -87 31t-29 74q0 23 7 43h55q-5 -18 -5 -34q0 -64 59 -64q60 0 60 64q0 16 -5 34h55q7 -24 7 -43q0 -44 -28.5 -74.5t-88.5 -30.5z" />
    <glyph glyph-name="dotaccent" unicode="&#x2d9;" horiz-adv-x="125" 
d="M61 606q-27 0 -44 17t-17 42t17 42.5t44 17.5q28 0 45.5 -17.5t17.5 -42.5t-17 -42t-46 -17z" />
    <glyph glyph-name="ring" unicode="&#x2da;" horiz-adv-x="198" 
d="M99 606q-42 0 -70.5 28.5t-28.5 71.5q0 44 28 71t71 27q42 0 70.5 -27.5t28.5 -70.5t-28.5 -71.5t-70.5 -28.5zM45 706q0 -24 15.5 -40.5t38.5 -16.5q22 0 37.5 16.5t15.5 40.5q0 23 -15.5 39t-37.5 16t-38 -16t-16 -39z" />
    <glyph glyph-name="ogonek" unicode="&#x2db;" horiz-adv-x="137" 
d="M137 -170q-58 5 -97.5 36.5t-39.5 73.5q0 45 38 68h44q-30 -24 -30 -54t26 -48.5t59 -20.5v-55z" />
    <glyph glyph-name="tilde" unicode="&#x2dc;" horiz-adv-x="311" 
d="M222 606q-28 0 -71 32.5t-63 32.5q-17 0 -32.5 -14t-20.5 -46h-35q4 59 29.5 92t62.5 33q29 0 72 -33.5t64 -33.5q18 0 33 15.5t18 50.5h32q0 -59 -25.5 -94t-63.5 -35z" />
    <glyph glyph-name="hungarumlaut" unicode="&#x2dd;" horiz-adv-x="231" 
d="M0 606l41 154h62l-54 -154h-49zM129 606l42 154h60l-52 -154h-50z" />
    <glyph glyph-name="uni0326" unicode="&#x326;" horiz-adv-x="0" 
d="M1 -231q33 4 54.5 21t21.5 39q0 17 -19 22l-11 2q-34 8 -34 40q0 19 13 31t33 12q28 0 45.5 -24t17.5 -63q0 -43 -23 -71.5t-48.5 -38t-49.5 -10.5v40z" />
    <glyph glyph-name="uni0394" unicode="&#x394;" horiz-adv-x="714" 
d="M24 0v31l312 690h38l317 -690v-31h-667zM85 44h517l-263 575z" />
    <glyph glyph-name="uni03A9" unicode="&#x3a9;" horiz-adv-x="792" 
d="M111 0v72h209v47q-49 14 -93 38.5t-84 61.5t-64 91t-24 118q0 128 89.5 219.5t252.5 91.5q83 0 149.5 -26.5t107.5 -70.5t62.5 -99t21.5 -115q0 -64 -24 -118.5t-64.5 -91.5t-85 -61t-93.5 -38v-47h210v-72h-250v146q214 77 214 279q0 120 -68.5 196t-179.5 76
q-113 0 -181.5 -76t-68.5 -195q0 -204 216 -280v-146h-252z" />
    <glyph glyph-name="uni03BC" unicode="&#x3bc;" horiz-adv-x="641" 
d="M113 397q0 23 -14.5 37t-40.5 14h-29v38l156 38v-336q0 -69 30.5 -105t89.5 -36q38 0 77.5 18.5t68.5 55.5v276q0 23 -14.5 37t-40.5 14h-29v38l156 38v-409q0 -23 15 -37t42 -14h33v-38l-155 -37v98q-36 -47 -86.5 -72.5t-102.5 -25.5q-46 0 -84 22v-228h-72v614z" />
    <glyph glyph-name="pi" unicode="&#x3c0;" horiz-adv-x="759" 
d="M532 -11q-37 0 -60 27.5t-23 75.5v367h-172v-459h-67v459h-150v55h447q134 0 193 37v-62q-56 -30 -164 -30h-20v-355q0 -63 42 -63q27 0 51 19v-38q-33 -33 -77 -33z" />
    <glyph glyph-name="uni1E02" unicode="&#x1e02;" horiz-adv-x="677" 
d="M39 0v43l46 2q60 3 60 57v517q0 54 -60 57l-46 2v43h347q95 0 147.5 -47t52.5 -116q0 -62 -47.5 -110t-134.5 -63q109 -11 163.5 -62t54.5 -120q0 -81 -70.5 -142t-184.5 -61h-328zM222 101q0 -26 18.5 -41.5t49.5 -15.5h70q77 0 123 44t46 106q0 68 -61.5 116.5
t-174.5 48.5h-71v-258zM222 403h78q94 0 145 42t51 100q0 56 -43.5 94t-118.5 38h-112v-274zM261 859q0 25 17 42.5t44 17.5q28 0 45.5 -17.5t17.5 -42.5t-17 -42t-46 -17q-27 0 -44 17t-17 42z" />
    <glyph glyph-name="uni1E03" unicode="&#x1e03;" horiz-adv-x="624" 
d="M313 -11q-105 0 -209 66v597q0 23 -15 37t-41 14h-29v39l157 38v-360q21 45 70 76t115 31q102 0 160.5 -75t58.5 -179q0 -113 -71 -198.5t-196 -85.5zM176 89q46 -65 137 -65q89 0 138 66.5t49 157.5t-46 156t-125 65q-96 0 -153 -83v-297zM304 665q0 25 17 42.5t44 17.5
q28 0 45.5 -17.5t17.5 -42.5t-17 -42t-46 -17q-27 0 -44 17t-17 42z" />
    <glyph glyph-name="uni1E0A" unicode="&#x1e0a;" horiz-adv-x="778" 
d="M39 0v43l46 2q60 3 60 57v517q0 54 -60 57l-46 2v43h309q177 0 277 -98t100 -238q0 -71 -26 -138.5t-74.5 -123t-126.5 -89.5t-173 -34h-286zM222 101q0 -26 19 -41.5t51 -15.5h42q95 0 164.5 49t101.5 121.5t32 154.5q0 128 -80 218t-223 90h-107v-576zM275 859
q0 25 17 42.5t44 17.5q28 0 45.5 -17.5t17.5 -42.5t-17 -42t-46 -17q-27 0 -44 17t-17 42z" />
    <glyph glyph-name="uni1E0B" unicode="&#x1e0b;" horiz-adv-x="644" 
d="M269 -11q-101 0 -163 73t-62 184q0 116 67.5 198.5t185.5 82.5q89 0 142 -40v165q0 24 -15 37.5t-42 13.5h-29v39l157 38v-664q0 -24 15 -37.5t42 -13.5h34v-38l-158 -38v97q-23 -41 -67.5 -69t-106.5 -28zM123 271q0 -95 49.5 -158t125.5 -63q43 0 82 20t59 45v269
q-17 43 -56 74.5t-92 31.5q-78 0 -123 -64.5t-45 -154.5zM124 665q0 25 17 42.5t44 17.5q28 0 45.5 -17.5t17.5 -42.5t-17 -42t-46 -17q-27 0 -44 17t-17 42z" />
    <glyph glyph-name="uni1E1E" unicode="&#x1e1e;" horiz-adv-x="644" 
d="M39 0v43l46 2q60 3 60 57v517q0 54 -60 57l-46 2v43h556v-188h-37q-5 77 -38.5 110.5t-107.5 33.5h-190v-289h120q57 0 76.5 23.5t22.5 82.5h40v-255h-40q-3 59 -22.5 82.5t-76.5 23.5h-120v-243q0 -24 16.5 -40t44.5 -17l66 -2v-43h-310zM291 859q0 25 17 42.5t44 17.5
q28 0 45.5 -17.5t17.5 -42.5t-17 -42t-46 -17q-27 0 -44 17t-17 42z" />
    <glyph glyph-name="uni1E1F" unicode="&#x1e1f;" horiz-adv-x="403" 
d="M50 0v40l33 2q55 3 55 51v383h-125v43h125v40q0 120 59 182.5t146 62.5q42 0 83 -13v-81q-57 21 -109 21q-59 0 -95.5 -30.5t-36.5 -87.5q0 -94 97 -94h104v-43h-176v-383q0 -21 15 -35.5t41 -15.5l54 -2v-40h-270zM263 920q0 23 16.5 39.5t42.5 16.5t43 -16.5t17 -39.5
q0 -24 -17 -41t-43 -17t-42.5 16.5t-16.5 41.5z" />
    <glyph glyph-name="uni1E40" unicode="&#x1e40;" horiz-adv-x="946" 
d="M39 0v43l49 2q35 1 51.5 22.5t16.5 54.5v497q0 26 -16 41t-45 16l-45 2v43h195l233 -603l231 603h198v-43l-45 -2q-29 -2 -45.5 -17t-16.5 -40v-517q0 -54 63 -57l44 -2v-43h-290v43l45 2q62 3 62 57v514l-240 -605h-43l-234 592v-481q0 -32 17 -54t51 -23l59 -2v-43
h-295zM408 859q0 25 17 42.5t44 17.5q28 0 45.5 -17.5t17.5 -42.5t-17 -42t-46 -17q-27 0 -44 17t-17 42z" />
    <glyph glyph-name="uni1E41" unicode="&#x1e41;" horiz-adv-x="984" 
d="M29 0v40l33 2q57 3 57 52v307q0 23 -15 36.5t-42 13.5h-29v39l153 37v-97q34 46 89.5 71.5t106.5 25.5q112 0 142 -103q34 49 90.5 76t110.5 27q70 0 110.5 -46t40.5 -131v-256q0 -21 15 -36t41 -16l28 -2v-40h-243v40l33 1q54 3 54 53v242q0 68 -33.5 100.5t-84.5 32.5
q-42 0 -84.5 -20t-68.5 -52v-303q0 -50 54 -53l33 -1v-40h-246v40l34 1q53 3 53 53v242q0 68 -33 100.5t-85 32.5q-42 0 -84.5 -20t-68.5 -52v-303q0 -50 54 -53l34 -1v-40h-249zM447 665q0 25 17 42.5t44 17.5q28 0 45.5 -17.5t17.5 -42.5t-17 -42t-46 -17q-27 0 -44 17
t-17 42z" />
    <glyph glyph-name="uni1E56" unicode="&#x1e56;" horiz-adv-x="662" 
d="M39 0v43l46 2q60 3 60 57v517q0 54 -60 57l-46 2v43h335q111 0 172 -55.5t61 -133.5q0 -89 -72 -155.5t-198 -66.5h-115v-208q0 -23 16.5 -39.5t44.5 -17.5l55 -2v-43h-299zM222 353h107q87 0 137 50t50 117q0 64 -49 110.5t-135 46.5h-110v-324zM263 859q0 25 17 42.5
t44 17.5q28 0 45.5 -17.5t17.5 -42.5t-17 -42t-46 -17q-27 0 -44 17t-17 42z" />
    <glyph glyph-name="uni1E57" unicode="&#x1e57;" 
d="M29 -207v40l33 2q57 3 57 52v514q0 23 -15 37t-42 14h-29v38l153 37v-107q27 50 77.5 78.5t110.5 28.5q102 0 161.5 -74.5t59.5 -184.5q0 -124 -72 -196t-181 -72q-92 0 -152 45v-158q0 -23 15.5 -37t40.5 -15l45 -2v-40h-262zM190 122q16 -34 54.5 -59.5t89.5 -25.5
q76 0 127 57t51 158q0 93 -44 155.5t-125 62.5q-50 0 -90 -25t-63 -62v-261zM282 665q0 25 17 42.5t44 17.5q28 0 45.5 -17.5t17.5 -42.5t-17 -42t-46 -17q-27 0 -44 17t-17 42z" />
    <glyph glyph-name="uni1E60" unicode="&#x1e60;" horiz-adv-x="614" 
d="M327 -19q-97 0 -176.5 53.5t-100.5 149.5h100q11 -75 66 -117t125 -42q62 0 104 34t42 96q0 29 -11.5 54t-25 39.5t-38 28.5t-37 19t-35.5 13l-66 23q-34 12 -58.5 22t-53.5 28t-46.5 38.5t-30 51.5t-12.5 68q0 90 63 144.5t165 54.5q95 0 164.5 -48.5t90.5 -137.5h-99
q-14 66 -57.5 103.5t-111.5 37.5q-65 0 -104.5 -33.5t-39.5 -92.5q0 -35 14 -62t40 -45t45.5 -27t48.5 -19l92 -32q25 -9 39.5 -15t44 -23.5t46.5 -36.5t31 -51t14 -71q0 -90 -64 -147.5t-168 -57.5zM245 859q0 25 17 42.5t44 17.5q28 0 45.5 -17.5t17.5 -42.5t-17 -42
t-46 -17q-27 0 -44 17t-17 42z" />
    <glyph glyph-name="uni1E61" unicode="&#x1e61;" horiz-adv-x="480" 
d="M259 -11q-84 0 -142.5 44t-72.5 117h87q27 -124 139 -124q46 0 75 22.5t29 64.5q0 43 -28.5 65t-71.5 34l-53 15q-37 11 -58.5 20t-47.5 26t-38.5 43t-12.5 62q0 72 50.5 110.5t125.5 38.5q73 0 123.5 -36.5t66.5 -100.5h-88q-7 47 -40.5 73t-76.5 26t-72.5 -23
t-29.5 -65t29 -64t82 -37l65 -18q26 -8 45.5 -16.5t42.5 -25t36 -43.5t13 -62q0 -68 -47.5 -107t-129.5 -39zM178 665q0 25 17 42.5t44 17.5q28 0 45.5 -17.5t17.5 -42.5t-17 -42t-46 -17q-27 0 -44 17t-17 42z" />
    <glyph glyph-name="uni1E6A" unicode="&#x1e6a;" horiz-adv-x="716" 
d="M203 0v43l56 2q28 1 44.5 17t16.5 40v575h-96q-70 0 -106 -33.5t-48 -110.5h-36l13 188h621l14 -188h-37q-13 77 -48.5 110.5t-106.5 33.5h-94v-575q0 -24 16.5 -40t44.5 -17l56 -2v-43h-310zM297 859q0 25 17 42.5t44 17.5q28 0 45.5 -17.5t17.5 -42.5t-17 -42t-46 -17
q-27 0 -44 17t-17 42z" />
    <glyph glyph-name="uni1E6B" unicode="&#x1e6b;" horiz-adv-x="401" 
d="M245 -11q-59 0 -92.5 32t-33.5 95v362h-95v41q57 3 85 33.5t40 88.5h41v-122h183v-43h-183v-333q0 -96 95 -96q40 0 92 19v-41q-66 -36 -132 -36zM111 779q0 25 17 42.5t44 17.5q28 0 45.5 -17.5t17.5 -42.5t-17 -42t-46 -17q-27 0 -44 17t-17 42z" />
    <glyph glyph-name="Wgrave" unicode="&#x1e80;" horiz-adv-x="1094" 
d="M114 624q-17 49 -90 54v43h257v-43q-44 0 -65.5 -7t-21.5 -29q0 -8 3 -20l174 -501l146 441l-24 63q-9 27 -30.5 39t-59.5 14v43h258v-43q-44 0 -65.5 -7t-21.5 -30q0 -10 4 -21l171 -497l152 465q9 27 9 43q0 28 -22.5 37.5t-70.5 9.5v43h253v-43q-48 -4 -72 -21
t-40 -61l-202 -596h-36l-175 484l-169 -484h-36zM379 949h98l80 -150h-48z" />
    <glyph glyph-name="wgrave" unicode="&#x1e81;" horiz-adv-x="859" 
d="M92 421q-23 55 -68 57v41h206v-41q-63 0 -63 -33q0 -9 7 -30l126 -321l106 265l-25 62q-20 54 -67 57v41h205v-41q-63 0 -63 -34q0 -10 7 -29l117 -322l121 311q9 23 9 37q0 37 -73 37v41h198v-41q-22 -2 -45.5 -22.5t-35.5 -51.5l-169 -404h-36l-119 298l-125 -298h-36z
M268 756h98l80 -150h-48z" />
    <glyph glyph-name="Wacute" unicode="&#x1e82;" horiz-adv-x="1094" 
d="M114 624q-17 49 -90 54v43h257v-43q-44 0 -65.5 -7t-21.5 -29q0 -8 3 -20l174 -501l146 441l-24 63q-9 27 -30.5 39t-59.5 14v43h258v-43q-44 0 -65.5 -7t-21.5 -30q0 -10 4 -21l171 -497l152 465q9 27 9 43q0 28 -22.5 37.5t-70.5 9.5v43h253v-43q-48 -4 -72 -21
t-40 -61l-202 -596h-36l-175 484l-169 -484h-36zM510 799l78 150h100l-130 -150h-48z" />
    <glyph glyph-name="wacute" unicode="&#x1e83;" horiz-adv-x="859" 
d="M92 421q-23 55 -68 57v41h206v-41q-63 0 -63 -33q0 -9 7 -30l126 -321l106 265l-25 62q-20 54 -67 57v41h205v-41q-63 0 -63 -34q0 -10 7 -29l117 -322l121 311q9 23 9 37q0 37 -73 37v41h198v-41q-22 -2 -45.5 -22.5t-35.5 -51.5l-169 -404h-36l-119 298l-125 -298h-36z
M391 606l80 150h98l-130 -150h-48z" />
    <glyph glyph-name="Wdieresis" unicode="&#x1e84;" horiz-adv-x="1094" 
d="M114 624q-17 49 -90 54v43h257v-43q-44 0 -65.5 -7t-21.5 -29q0 -8 3 -20l174 -501l146 441l-24 63q-9 27 -30.5 39t-59.5 14v43h258v-43q-44 0 -65.5 -7t-21.5 -30q0 -10 4 -21l171 -497l152 465q9 27 9 43q0 28 -22.5 37.5t-70.5 9.5v43h253v-43q-48 -4 -72 -21
t-40 -61l-202 -596h-36l-175 484l-169 -484h-36zM395 852q0 22 14 36t37 14q22 0 36 -14t14 -36q0 -24 -14 -38.5t-36 -14.5q-23 0 -37 14.5t-14 38.5zM598 852q0 22 13.5 36t35.5 14q23 0 37 -13.5t14 -36.5q0 -24 -14 -38.5t-37 -14.5q-22 0 -35.5 14.5t-13.5 38.5z" />
    <glyph glyph-name="wdieresis" unicode="&#x1e85;" horiz-adv-x="859" 
d="M92 421q-23 55 -68 57v41h206v-41q-63 0 -63 -33q0 -9 7 -30l126 -321l106 265l-25 62q-20 54 -67 57v41h205v-41q-63 0 -63 -34q0 -10 7 -29l117 -322l121 311q9 23 9 37q0 37 -73 37v41h198v-41q-22 -2 -45.5 -22.5t-35.5 -51.5l-169 -404h-36l-119 298l-125 -298h-36z
M282 680q0 22 14 36.5t37 14.5q22 0 36 -14.5t14 -36.5q0 -24 -14 -38.5t-36 -14.5q-23 0 -37 14.5t-14 38.5zM473 680q0 22 14.5 36.5t36.5 14.5q23 0 36.5 -14t13.5 -37q0 -25 -13.5 -39t-36.5 -14t-37 14.5t-14 38.5z" />
    <glyph glyph-name="Ygrave" unicode="&#x1ef2;" horiz-adv-x="702" 
d="M199 0v43l56 2q28 1 44.5 17t16.5 40v172l-208 350q-30 49 -89 54v43h253v-43q-77 0 -77 -38q0 -12 9 -27l161 -275l150 260q14 25 14 41q0 40 -98 40v42h253v-43q-44 -8 -63.5 -21.5t-37.5 -44.5l-191 -317v-193q0 -23 17 -39.5t45 -17.5l56 -2v-43h-311zM202 949h98
l80 -150h-48z" />
    <glyph glyph-name="ygrave" unicode="&#x1ef3;" horiz-adv-x="617" 
d="M102 -188q-30 0 -78 9v76q45 -15 93 -15q58 0 107 31t72 87l-178 411q-28 63 -91 68v40h226v-40q-60 0 -60 -42q0 -17 11 -44l129 -312l125 307q10 24 10 43q0 48 -85 48v40h211v-40q-28 -3 -44.5 -22t-30.5 -52l-171 -400q-10 -25 -19 -43t-31 -49t-46.5 -50.5t-64 -35
t-85.5 -15.5zM140 756h98l80 -150h-48z" />
    <glyph glyph-name="endash" unicode="&#x2013;" horiz-adv-x="599" 
d="M60 281v56h480v-56h-480z" />
    <glyph glyph-name="emdash" unicode="&#x2014;" horiz-adv-x="1080" 
d="M60 281v56h961v-56h-961z" />
    <glyph glyph-name="quoteleft" unicode="&#x2018;" horiz-adv-x="259" 
d="M204 719q-50 -7 -78 -34t-28 -58q0 -32 33 -37l15 -2q20 -4 31 -17t11 -30q0 -22 -15.5 -38.5t-42.5 -16.5q-36 0 -58.5 31t-22.5 81q0 42 16 74t41.5 50t50 27t47.5 11v-41z" />
    <glyph glyph-name="quoteright" unicode="&#x2019;" horiz-adv-x="259" 
d="M51 510q50 7 78 34t28 58q0 32 -33 37l-15 2q-20 4 -31 17t-11 30q0 22 15.5 38.5t42.5 16.5q36 0 58.5 -31t22.5 -81q0 -42 -16 -74t-41.5 -50t-50 -27t-47.5 -11v41z" />
    <glyph glyph-name="quotesinglbase" unicode="&#x201a;" horiz-adv-x="259" 
d="M51 -124q50 7 78 34t28 58q0 32 -33 37l-15 2q-20 4 -31 17t-11 30q0 22 15.5 38.5t42.5 16.5q36 0 58.5 -31t22.5 -81q0 -42 -16 -74t-41.5 -50t-50 -27t-47.5 -11v41z" />
    <glyph glyph-name="quotedblleft" unicode="&#x201c;" horiz-adv-x="484" 
d="M204 719q-50 -7 -78 -34t-28 -58q0 -32 33 -37l15 -2q20 -4 31 -17t11 -30q0 -22 -15.5 -38.5t-42.5 -16.5q-36 0 -58.5 31t-22.5 81q0 42 16 74t41.5 50t50 27t47.5 11v-41zM274 598q0 42 16 74t41.5 50t50 27t47.5 11v-41q-50 -7 -78 -34t-28 -58q0 -32 33 -37l15 -2
q20 -4 31 -17t11 -30q0 -22 -15.5 -38.5t-42.5 -16.5q-36 0 -58.5 31t-22.5 81z" />
    <glyph glyph-name="quotedblright" unicode="&#x201d;" horiz-adv-x="484" 
d="M51 509q50 7 78 34t28 58q0 32 -33 37l-15 2q-20 4 -31 17t-11 30q0 22 15.5 38.5t42.5 16.5q36 0 58.5 -31t22.5 -81q0 -42 -16 -74t-41.5 -50t-50 -27t-47.5 -11v41zM275 468v41q50 7 78 34t28 58q0 32 -33 37l-15 2q-20 4 -31 17t-11 30q0 22 15.5 38.5t42.5 16.5
q36 0 58.5 -31t22.5 -81q0 -42 -16 -74t-41.5 -50t-50 -27t-47.5 -11z" />
    <glyph glyph-name="quotedblbase" unicode="&#x201e;" horiz-adv-x="484" 
d="M51 -124q50 7 78 34t28 58q0 32 -33 37l-15 2q-20 4 -31 17t-11 30q0 22 15.5 38.5t42.5 16.5q36 0 58.5 -31t22.5 -81q0 -42 -16 -74t-41.5 -50t-50 -27t-47.5 -11v41zM275 -165v41q50 7 78 34t28 58q0 32 -33 37l-15 2q-20 4 -31 17t-11 30q0 22 15.5 38.5t42.5 16.5
q36 0 58.5 -31t22.5 -81q0 -42 -16 -74t-41.5 -50t-50 -27t-47.5 -11z" />
    <glyph glyph-name="dagger" unicode="&#x2020;" horiz-adv-x="381" 
d="M162 231v311h-118v57h118v132h57v-132h118v-57h-118v-311h-57z" />
    <glyph glyph-name="daggerdbl" unicode="&#x2021;" horiz-adv-x="381" 
d="M162 231v113h-118v57h118v158h-118v58h118v114h57v-114h118v-58h-118v-158h118v-57h-118v-113h-57z" />
    <glyph glyph-name="bullet" unicode="&#x2022;" horiz-adv-x="306" 
d="M152 277q-41 0 -66.5 25.5t-25.5 63.5q0 37 25.5 63.5t66.5 26.5q42 0 68 -26.5t26 -63.5q0 -38 -25.5 -63.5t-68.5 -25.5z" />
    <glyph glyph-name="ellipsis" unicode="&#x2026;" horiz-adv-x="998" 
d="M166 -10q-27 0 -44 17t-17 42t17 42.5t44 17.5q28 0 45.5 -17.5t17.5 -42.5t-17 -42t-46 -17zM437 49q0 25 17 42.5t44 17.5q28 0 45.5 -17.5t17.5 -42.5t-17 -42t-46 -17q-27 0 -44 17t-17 42zM770 49q0 25 17 42.5t44 17.5q28 0 45.5 -17.5t17.5 -42.5t-17 -42t-46 -17
q-27 0 -44 17t-17 42z" />
    <glyph glyph-name="perthousand" unicode="&#x2030;" horiz-adv-x="1278" 
d="M217 394q-74 0 -123.5 48t-49.5 122t49.5 122t123.5 48q75 0 124.5 -48t49.5 -122t-49.5 -122t-124.5 -48zM112 564q0 -60 28 -97t77 -37t77.5 37t28.5 97q0 61 -28.5 97t-77.5 36t-77 -36t-28 -97zM185 0l461 721h54l-462 -721h-53zM490 159q0 74 49.5 122t123.5 48
q75 0 124.5 -48t49.5 -122t-49.5 -122t-124.5 -48q-74 0 -123.5 48t-49.5 122zM558 159q0 -60 28 -97t77 -37t77.5 37t28.5 97q0 61 -28.5 97t-77.5 36t-77 -36t-28 -97zM887 159q0 74 49.5 122t123.5 48q75 0 124.5 -48t49.5 -122t-49.5 -122t-124.5 -48q-74 0 -123.5 48
t-49.5 122zM955 159q0 -60 28 -97t77 -37t77.5 37t28.5 97q0 61 -28.5 97t-77.5 36t-77 -36t-28 -97z" />
    <glyph glyph-name="guilsinglleft" unicode="&#x2039;" horiz-adv-x="302" 
d="M207 71l-168 191v44l168 190l35 -29l-130 -184l130 -183z" />
    <glyph glyph-name="guilsinglright" unicode="&#x203a;" horiz-adv-x="302" 
d="M95 71l-35 29l130 183l-130 184l35 29l168 -190v-44z" />
    <glyph glyph-name="fraction" unicode="&#x2044;" horiz-adv-x="634" 
d="M60 0l461 721h54l-462 -721h-53z" />
    <glyph glyph-name="Euro" unicode="&#x20ac;" horiz-adv-x="659" 
d="M378 -11q-108 0 -176 79t-84 201h-81v42h77v23q0 35 5 75h-82v43h89q25 120 96 194.5t178 74.5q89 0 148 -53.5t71 -158.5h-94q-5 74 -41 121t-102 47q-75 0 -123 -64t-63 -161h257v-43h-262q-2 -28 -2 -43q0 -28 3 -55h261v-42h-255q18 -91 68.5 -148t126.5 -57
q72 0 125 53t64 148h40q-8 -127 -74 -201.5t-170 -74.5z" />
    <glyph glyph-name="uni2113" unicode="&#x2113;" horiz-adv-x="385" 
d="M95 -11q-41 0 -62 23.5t-21 64.5q0 23 6 49l61 263l-81 -43l12 54l81 41l30 133q18 79 64.5 118.5t99.5 39.5q41 0 71.5 -22t30.5 -68t-33 -92t-97 -80l-105 -55l-70 -304q-3 -13 -3 -26q0 -46 40 -46q28 0 65.5 28.5t73.5 74.5l22 -20q-94 -133 -185 -133zM164 470
l58 29q109 55 109 131q0 57 -50 57q-32 0 -55 -26.5t-33 -68.5z" />
    <glyph glyph-name="uni2116" unicode="&#x2116;" horiz-adv-x="1292" 
d="M45 0v43l50 2q31 2 49 22t18 55v508l-4 6q-20 26 -48 33.5t-71 8.5v43h175l445 -589v467q0 35 -18.5 55.5t-48.5 21.5l-60 2v43h295v-43l-49 -2q-32 -2 -50 -22t-18 -55v-599h-44l-453 595v-473q0 -34 18.5 -55t47.5 -22l61 -2v-43h-295zM900 572q0 74 49.5 122t123.5 48
q75 0 124.5 -48t49.5 -122t-49.5 -122t-124.5 -48q-74 0 -123.5 48t-49.5 122zM968 572q0 -60 28 -97t77 -37t77.5 37t28.5 97q0 61 -28.5 97t-77.5 36t-77 -36t-28 -97z" />
    <glyph glyph-name="trademark" unicode="&#x2122;" horiz-adv-x="970" 
d="M441 325v34l34 2q12 1 20 10.5t8 23.5v266q0 23 -25 24l-32 2v34h115l123 -313l123 313h119v-34l-33 -2q-13 -1 -19 -6t-6 -18v-276q0 -23 25 -24l33 -2v-34h-161v34l22 2q26 3 26 24v252l-122 -306h-31l-117 295v-231q0 -32 27 -34l31 -2v-34h-160zM43 609l9 112h346
l8 -112h-30l-1 6q-7 37 -21.5 53.5t-51.5 16.5h-50v-300q0 -23 26 -24l38 -2v-34h-182v34l38 2q26 1 26 24v300h-50q-33 0 -49 -14t-24 -56l-1 -6h-31z" />
    <glyph glyph-name="estimated" unicode="&#x212e;" horiz-adv-x="514" 
d="M261 -12q-92 0 -154.5 63t-62.5 185q0 124 64.5 190t154.5 66q80 0 137.5 -54t57.5 -152q0 -32 -3 -49h-332v-124q19 -37 57 -58t86 -21q112 0 176 116l27 -13q-25 -71 -80 -110t-128 -39zM123 281h247v119q-38 53 -110 53q-44 0 -80 -19.5t-57 -53.5v-99z" />
    <glyph glyph-name="uni2153" unicode="&#x2153;" horiz-adv-x="1031" 
d="M75 271v36l91 3q28 2 28 29v315q-52 -31 -119 -31v36q90 0 144 61h28v-381q0 -27 28 -29l91 -3v-36h-291zM264 0l461 721h54l-462 -721h-53zM656 121h70q4 -43 29.5 -67.5t63.5 -24.5q36 0 56.5 20.5t20.5 57.5q0 98 -164 98v44q158 0 158 93q0 35 -19.5 53.5t-51.5 18.5
q-38 0 -63.5 -23.5t-29.5 -65.5h-70q13 59 54.5 92t105.5 33q62 0 98.5 -32t36.5 -83q0 -82 -110 -108q54 -7 85 -38t31 -72q0 -50 -38 -86.5t-105 -36.5q-61 0 -103 33.5t-55 93.5z" />
    <glyph glyph-name="uni2154" unicode="&#x2154;" horiz-adv-x="1033" 
d="M79 272v36l73 68q80 77 115 124t35 102q0 38 -19 60.5t-53 22.5q-39 0 -64.5 -34t-27.5 -110h-67q7 95 52 137.5t110 42.5q60 0 95.5 -32.5t35.5 -85.5q0 -30 -11 -58t-35.5 -57.5t-43 -47.5t-54.5 -51l-74 -66h232v-51h-299zM281 0l461 721h54l-462 -721h-53zM658 121
h70q4 -43 29.5 -67.5t63.5 -24.5q36 0 56.5 20.5t20.5 57.5q0 98 -164 98v44q158 0 158 93q0 35 -19.5 53.5t-51.5 18.5q-38 0 -63.5 -23.5t-29.5 -65.5h-70q13 59 54.5 92t105.5 33q62 0 98.5 -32t36.5 -83q0 -82 -110 -108q54 -7 85 -38t31 -72q0 -50 -38 -86.5
t-105 -36.5q-61 0 -103 33.5t-55 93.5z" />
    <glyph glyph-name="uni2155" unicode="&#x2155;" horiz-adv-x="996" 
d="M75 271v36l91 3q28 2 28 29v315q-52 -31 -119 -31v36q90 0 144 61h28v-381q0 -27 28 -29l91 -3v-36h-291zM264 0l461 721h54l-462 -721h-53zM632 137h70q0 -54 24.5 -81t64.5 -27q37 0 57 22.5t20 59.5q0 57 -50 91t-150 37l14 202h216v-51h-180l-8 -96q105 -9 159.5 -54
t54.5 -109q0 -57 -37 -97t-105 -40q-59 0 -100 37t-50 106z" />
    <glyph glyph-name="uni2156" unicode="&#x2156;" horiz-adv-x="1014" 
d="M79 272v36l73 68q80 77 115 124t35 102q0 38 -19 60.5t-53 22.5q-39 0 -64.5 -34t-27.5 -110h-67q7 95 52 137.5t110 42.5q60 0 95.5 -32.5t35.5 -85.5q0 -30 -11 -58t-35.5 -57.5t-43 -47.5t-54.5 -51l-74 -66h232v-51h-299zM281 0l461 721h54l-462 -721h-53zM651 137
h70q0 -54 24.5 -81t64.5 -27q37 0 57 22.5t20 59.5q0 57 -50 91t-150 37l14 202h216v-51h-180l-8 -96q105 -9 159.5 -54t54.5 -109q0 -57 -37 -97t-105 -40q-59 0 -100 37t-50 106z" />
    <glyph glyph-name="uni2157" unicode="&#x2157;" horiz-adv-x="991" 
d="M232 265q-61 0 -103 33.5t-55 93.5h70q4 -43 29.5 -67.5t63.5 -24.5q36 0 56.5 20.5t20.5 57.5q0 98 -164 98v44q158 0 158 93q0 35 -19.5 53.5t-51.5 18.5q-38 0 -63.5 -23.5t-29.5 -65.5h-70q13 59 54.5 92t105.5 33q62 0 98.5 -32t36.5 -83q0 -82 -110 -108
q54 -7 85 -38t31 -72q0 -50 -38 -86.5t-105 -36.5zM259 0l461 721h54l-462 -721h-53zM627 137h70q0 -54 24.5 -81t64.5 -27q37 0 57 22.5t20 59.5q0 57 -50 91t-150 37l14 202h216v-51h-180l-8 -96q105 -9 159.5 -54t54.5 -109q0 -57 -37 -97t-105 -40q-59 0 -100 37
t-50 106z" />
    <glyph glyph-name="uni2158" unicode="&#x2158;" horiz-adv-x="1037" 
d="M275 272v120h-203v43l211 277h46v-268h75v-52h-75v-120h-54zM127 444h148v194zM305 0l461 721h54l-462 -721h-53zM673 137h70q0 -54 24.5 -81t64.5 -27q37 0 57 22.5t20 59.5q0 57 -50 91t-150 37l14 202h216v-51h-180l-8 -96q105 -9 159.5 -54t54.5 -109q0 -57 -37 -97
t-105 -40q-59 0 -100 37t-50 106z" />
    <glyph glyph-name="uni2159" unicode="&#x2159;" horiz-adv-x="1031" 
d="M75 271v36l91 3q28 2 28 29v315q-52 -31 -119 -31v36q90 0 144 61h28v-381q0 -27 28 -29l91 -3v-36h-291zM264 0l461 721h54l-462 -721h-53zM642 208q0 63 18.5 116.5t59.5 89.5t98 36q58 0 95.5 -37t39.5 -91h-69q0 38 -19.5 65t-52.5 27q-44 0 -72.5 -52t-34.5 -128
q47 45 111 45q58 0 99.5 -36.5t41.5 -99.5q0 -57 -38.5 -103t-109.5 -46q-81 0 -124 61t-43 153zM704 196q2 -75 28.5 -121t78.5 -46q43 0 65 29.5t22 72.5q0 51 -28.5 77t-71.5 26q-55 0 -94 -38z" />
    <glyph glyph-name="uni215A" unicode="&#x215a;" horiz-adv-x="1040" 
d="M232 265q-59 0 -100 37t-50 106h70q0 -54 24.5 -81t64.5 -27q37 0 57 22.5t20 59.5q0 57 -50 91t-150 37l14 202h216v-51h-180l-8 -96q105 -9 159.5 -54t54.5 -109q0 -57 -37 -97t-105 -40zM272 0l461 721h54l-462 -721h-53zM651 208q0 63 18.5 116.5t59.5 89.5t98 36
q58 0 95.5 -37t39.5 -91h-69q0 38 -19.5 65t-52.5 27q-44 0 -72.5 -52t-34.5 -128q46 45 111 45q58 0 99.5 -36.5t41.5 -99.5q0 -57 -38.5 -103t-109.5 -46q-81 0 -124 61t-43 153zM713 196q2 -75 28.5 -121t78.5 -46q43 0 65 29.5t22 72.5q0 51 -28.5 77t-71.5 26
q-55 0 -94 -38z" />
    <glyph glyph-name="oneeighth" unicode="&#x215b;" horiz-adv-x="1034" 
d="M75 271v36l91 3q28 2 28 29v315q-52 -31 -119 -31v36q90 0 144 61h28v-381q0 -27 28 -29l91 -3v-36h-291zM265 0l461 721h54l-462 -721h-53zM663 110q0 40 26.5 69.5t76.5 42.5q-92 40 -92 115q0 51 37 82t97 31q58 0 97.5 -30t39.5 -76q0 -36 -25 -66.5t-69 -45.5
l24 -11q87 -38 87 -114q0 -52 -39.5 -82.5t-107.5 -30.5q-69 0 -110.5 31t-41.5 85zM722 110q0 -38 26 -60.5t69 -22.5q40 0 63 18.5t23 52.5q0 54 -77 90l-36 17q-68 -24 -68 -95zM731 348q0 -19 7 -34.5t22.5 -27.5t28.5 -19.5t37 -18.5q61 29 61 89q0 37 -22 58.5
t-60 21.5q-35 0 -54.5 -18.5t-19.5 -50.5z" />
    <glyph glyph-name="threeeighths" unicode="&#x215c;" horiz-adv-x="1032" 
d="M232 265q-61 0 -103 33.5t-55 93.5h70q4 -43 29.5 -67.5t63.5 -24.5q36 0 56.5 20.5t20.5 57.5q0 98 -164 98v44q158 0 158 93q0 35 -19.5 53.5t-51.5 18.5q-38 0 -63.5 -23.5t-29.5 -65.5h-70q13 59 54.5 92t105.5 33q62 0 98.5 -32t36.5 -83q0 -82 -110 -108
q54 -7 85 -38t31 -72q0 -50 -38 -86.5t-105 -36.5zM262 0l461 721h54l-462 -721h-53zM661 110q0 40 26.5 69.5t76.5 42.5q-92 40 -92 115q0 51 37 82t97 31q58 0 97.5 -30t39.5 -76q0 -36 -25 -66.5t-69 -45.5l24 -11q87 -38 87 -114q0 -52 -39.5 -82.5t-107.5 -30.5
q-69 0 -110.5 31t-41.5 85zM720 110q0 -38 26 -60.5t69 -22.5q40 0 63 18.5t23 52.5q0 54 -77 90l-36 17q-68 -24 -68 -95zM729 348q0 -19 7 -34.5t22.5 -27.5t28.5 -19.5t37 -18.5q61 29 61 89q0 37 -22 58.5t-60 21.5q-35 0 -54.5 -18.5t-19.5 -50.5z" />
    <glyph glyph-name="fiveeighths" unicode="&#x215d;" horiz-adv-x="1025" 
d="M232 265q-59 0 -100 37t-50 106h70q0 -54 24.5 -81t64.5 -27q37 0 57 22.5t20 59.5q0 57 -50 91t-150 37l14 202h216v-51h-180l-8 -96q105 -9 159.5 -54t54.5 -109q0 -57 -37 -97t-105 -40zM252 0l461 721h54l-462 -721h-53zM654 110q0 40 26.5 69.5t76.5 42.5
q-92 40 -92 115q0 51 37 82t97 31q58 0 97.5 -30t39.5 -76q0 -36 -25 -66.5t-69 -45.5l24 -11q87 -38 87 -114q0 -52 -39.5 -82.5t-107.5 -30.5q-69 0 -110.5 31t-41.5 85zM713 110q0 -38 26 -60.5t69 -22.5q40 0 63 18.5t23 52.5q0 54 -77 90l-36 17q-68 -24 -68 -95z
M722 348q0 -19 7 -34.5t22.5 -27.5t28.5 -19.5t37 -18.5q61 29 61 89q0 37 -22 58.5t-60 21.5q-35 0 -54.5 -18.5t-19.5 -50.5z" />
    <glyph glyph-name="seveneighths" unicode="&#x215e;" horiz-adv-x="1002" 
d="M133 272l207 389h-268v51h318v-33l-199 -407h-58zM245 0l461 721h54l-462 -721h-53zM631 110q0 40 26.5 69.5t76.5 42.5q-92 40 -92 115q0 51 37 82t97 31q58 0 97.5 -30t39.5 -76q0 -36 -25 -66.5t-69 -45.5l24 -11q87 -38 87 -114q0 -52 -39.5 -82.5t-107.5 -30.5
q-69 0 -110.5 31t-41.5 85zM690 110q0 -38 26 -60.5t69 -22.5q40 0 63 18.5t23 52.5q0 54 -77 90l-36 17q-68 -24 -68 -95zM699 348q0 -19 7 -34.5t22.5 -27.5t28.5 -19.5t37 -18.5q61 29 61 89q0 37 -22 58.5t-60 21.5q-35 0 -54.5 -18.5t-19.5 -50.5z" />
    <glyph glyph-name="arrowleft" unicode="&#x2190;" horiz-adv-x="706" 
d="M167 295h482v-56h-482q97 -71 175 -191l-43 -27q-95 144 -242 246q72 50 135.5 115.5t106.5 130.5l43 -27q-76 -117 -175 -191z" />
    <glyph glyph-name="arrowup" unicode="&#x2191;" horiz-adv-x="607" 
d="M276 482q-74 -99 -191 -175l-27 43q65 43 130.5 106.5t115.5 135.5q102 -147 246 -242l-27 -43q-120 78 -191 175v-482h-56v482z" />
    <glyph glyph-name="arrowright" unicode="&#x2192;" horiz-adv-x="706" 
d="M539 322q-99 74 -175 191l43 27q43 -65 106.5 -130.5t135.5 -115.5q-147 -102 -242 -246l-43 27q78 120 175 191h-482v56h482z" />
    <glyph glyph-name="arrowdown" unicode="&#x2193;" horiz-adv-x="607" 
d="M276 110v482h56v-482q71 97 191 175l27 -43q-144 -95 -246 -242q-50 72 -115.5 135.5t-130.5 106.5l27 43q117 -76 191 -175z" />
    <glyph glyph-name="partialdiff" unicode="&#x2202;" horiz-adv-x="604" 
d="M282 -11q-60 0 -107.5 21.5t-75 56.5t-41.5 76t-14 84q0 99 66.5 157t160.5 58q118 0 195 -93q-7 61 -29.5 115.5t-62 101t-103 77.5t-142.5 38v40q99 0 181.5 -39.5t133.5 -103t78.5 -138.5t27.5 -150q0 -124 -71 -212.5t-197 -88.5zM122 206q0 -74 40 -126.5t112 -52.5
q87 0 141 76t54 198q0 10 -1 16q-68 71 -169 71q-75 0 -126 -47t-51 -135z" />
    <glyph glyph-name="product" unicode="&#x220f;" horiz-adv-x="754" 
d="M40 0v43l46 2q29 1 45 16t16 41v575h-103v44h666v-44h-103v-575q0 -54 62 -57l45 -2v-43h-290v43l46 2q60 3 60 57v575h-306v-575q0 -26 16 -41t45 -16l45 -2v-43h-290z" />
    <glyph glyph-name="summation" unicode="&#x2211;" horiz-adv-x="743" 
d="M55 0v39l300 327l-267 315v40h563v-188h-36q-5 77 -39 110.5t-107 33.5h-280l263 -313l-294 -320h298q88 0 128 45t59 139h41l-29 -228h-600z" />
    <glyph glyph-name="minus" unicode="&#x2212;" 
d="M107 254v54h424v-54h-424z" />
    <glyph glyph-name="radical" unicode="&#x221a;" horiz-adv-x="676" 
d="M94 427q-11 28 -26 36.5t-44 10.5v40h116l154 -414l243 621h116v-40q-51 0 -70 -14t-33 -49l-253 -618h-35z" />
    <glyph glyph-name="infinity" unicode="&#x221e;" horiz-adv-x="804" 
d="M221 98q-85 0 -131 62t-46 149q0 88 45.5 151t120.5 63q60 0 111 -41t73 -104q35 68 77.5 106.5t110.5 38.5q85 0 131 -62t46 -149q0 -88 -46 -151t-121 -63q-59 0 -109.5 40.5t-72.5 104.5q-34 -68 -77.5 -106.5t-111.5 -38.5zM82 304q0 -60 31.5 -96t90.5 -36
q35 0 62 12.5t48 39.5t33.5 51t30.5 65q-51 108 -157 108q-65 0 -102 -38t-37 -106zM424 281q54 -108 158 -108q65 0 102 38.5t37 105.5q0 61 -31.5 96.5t-90.5 35.5q-35 0 -62 -12.5t-48 -40t-34 -51t-31 -64.5z" />
    <glyph glyph-name="integral" unicode="&#x222b;" horiz-adv-x="467" 
d="M34 30q44 3 74.5 17.5t47.5 34t26.5 51.5t12 60.5t2.5 71.5v180q0 47 3 79.5t16 75t37 69.5t69.5 47t109.5 23v-49q-43 -3 -74 -17.5t-48 -34t-26.5 -51t-12 -60.5t-2.5 -72v-180q0 -47 -3 -79.5t-16 -75t-37 -69.5t-69.5 -47t-109.5 -23v49z" />
    <glyph glyph-name="approxequal" unicode="&#x2248;" 
d="M420 318q-35 0 -98.5 16t-103.5 16q-63 0 -101 -22v52q44 22 101 22q35 0 99 -16t101 -16q63 0 103 22v-51q-40 -23 -101 -23zM117 178v52q42 21 101 21q35 0 99 -16t101 -16q61 0 103 23v-51q-40 -23 -101 -23q-35 0 -98.5 15.5t-103.5 15.5q-63 0 -101 -21z" />
    <glyph glyph-name="notequal" unicode="&#x2260;" 
d="M202 43l57 135h-142v53h164l42 99h-206v52h228l59 139h53l-58 -139h122v-52h-144l-42 -99h186v-53h-208l-57 -135h-54z" />
    <glyph glyph-name="lessequal" unicode="&#x2264;" 
d="M582 0h-528v50h528v-50zM61 339v55l515 209l16 -50l-465 -186l465 -186l-16 -49z" />
    <glyph glyph-name="greaterequal" unicode="&#x2265;" 
d="M61 0v50h528v-50h-528zM51 181l465 186l-465 186l16 50l515 -209v-55l-515 -207z" />
    <glyph glyph-name="lozenge" unicode="&#x25ca;" horiz-adv-x="640" 
d="M320 -11q-98 177 -260 357q161 179 260 356q97 -174 261 -356q-164 -183 -261 -357zM136 346q122 -126 184 -255q65 132 184 255q-120 125 -184 255q-61 -127 -184 -255z" />
    <glyph glyph-name="fl" unicode="&#xfb02;" horiz-adv-x="673" 
d="M50 0v40l33 2q55 3 55 51v383h-125v43h125v40q0 119 63.5 182t163.5 63q94 0 189 -59v-652q0 -48 56 -51l34 -2v-40h-248v40l33 1q53 5 53 52v593q-70 48 -153 48q-63 0 -103.5 -31.5t-40.5 -90.5q0 -46 26 -69.5t71 -23.5h102v-43h-174v-383q0 -46 53 -51l51 -2v-40
h-264z" />
    <glyph glyph-name="f_b" horiz-adv-x="1003" 
d="M692 -11q-106 0 -210 66v631q-70 48 -153 48q-63 0 -103.5 -31.5t-40.5 -90.5q0 -46 26 -69.5t71 -23.5h102v-43h-174v-383q0 -46 53 -51l51 -2v-40h-264v40l33 2q55 3 55 51v383h-125v43h125v40q0 119 63.5 182t163.5 63q94 0 189 -59v-325q22 45 71 76t114 31
q103 0 161.5 -75t58.5 -179q0 -113 -71 -198.5t-196 -85.5zM554 89q46 -65 138 -65q88 0 137 66.5t49 157.5t-45.5 156t-124.5 65q-97 0 -154 -83v-297z" />
    <glyph glyph-name="f_f_b" horiz-adv-x="1346" 
d="M1035 -11q-105 0 -209 66v631q-70 48 -154 48q-62 0 -102 -31.5t-40 -90.5q0 -45 25.5 -69t70.5 -24h102v-43h-174v-383q0 -22 14 -36.5t39 -15.5l51 -1v-40h-262v40l33 1q53 5 53 52v383h-272v-383q0 -46 53 -51l51 -2v-40h-264v40l33 2q55 3 55 51v383h-125v43h125v40
q0 120 59 182.5t146 62.5q43 0 75 -12v-80q-51 19 -101 19q-59 0 -95.5 -30.5t-36.5 -87.5q0 -94 97 -94h200v40q0 119 63.5 182t163.5 63q94 0 189 -59v-325q22 45 71 76t114 31q103 0 161.5 -75t58.5 -179q0 -72 -29 -135.5t-91.5 -106t-147.5 -42.5zM898 89
q46 -65 137 -65q89 0 138 66.5t49 157.5t-46 156t-125 65q-96 0 -153 -83v-297z" />
    <glyph glyph-name="f_f_h" horiz-adv-x="1352" 
d="M50 0v40l33 2q55 3 55 51v383h-125v43h125v40q0 120 59 182.5t146 62.5q43 0 75 -12v-80q-51 19 -101 19q-59 0 -95.5 -30.5t-36.5 -87.5q0 -94 97 -94h200v40q0 119 63.5 182t163.5 63q93 0 188 -59v-309q35 43 88.5 67t103.5 24q71 0 112.5 -46t41.5 -131v-254
q0 -21 15 -36.5t42 -17.5l28 -2v-40h-244v40l34 1q53 5 53 53v233q0 70 -31 106t-88 36q-39 0 -82.5 -18t-72.5 -54v-303q0 -48 54 -53l34 -1v-40h-247v40l33 1q55 5 55 53v592q-70 48 -154 48q-62 0 -102 -31.5t-40 -90.5q0 -45 25.5 -69t70.5 -24h102v-43h-174v-383
q0 -21 14 -35t39 -16l51 -2v-40h-262v40l33 1q53 5 53 52v383h-272v-383q0 -46 53 -51l51 -2v-40h-264z" />
    <glyph glyph-name="f_f_k" horiz-adv-x="1288" 
d="M50 0v40l33 2q55 3 55 51v383h-125v43h125v40q0 120 59 182.5t146 62.5q43 0 75 -12v-80q-51 19 -101 19q-59 0 -95.5 -30.5t-36.5 -87.5q0 -94 97 -94h200v40q0 119 63.5 182t163.5 63q94 0 189 -59v-652q0 -47 54 -52l33 -1v-40h-245v40l33 1q53 5 53 52v593
q-70 48 -154 48q-62 0 -102 -31.5t-40 -90.5q0 -45 25.5 -69t70.5 -24h102v-43h-174v-379q0 -51 53 -55l51 -2v-40h-262v40l33 1q53 5 53 52v383h-272v-379q0 -51 53 -55l51 -2v-40h-264zM919 280l138 134q21 21 21 35q0 29 -72 29v41h245v-41q-40 -6 -66.5 -19.5
t-58.5 -42.5l-130 -120l269 -262v-40h-68z" />
    <glyph glyph-name="f_h" horiz-adv-x="1008" 
d="M50 0v40l33 2q55 3 55 51v383h-125v43h125v40q0 119 63.5 182t163.5 63q93 0 188 -59v-309q36 43 89.5 67t102.5 24q71 0 112.5 -46t41.5 -131v-254q0 -21 15.5 -36.5t41.5 -17.5l28 -2v-40h-244v40l34 1q54 5 54 53v233q0 70 -31.5 106t-88.5 36q-39 0 -82.5 -18
t-72.5 -54v-303q0 -48 54 -53l34 -1v-40h-247v40l34 1q54 5 54 53v592q-70 48 -153 48q-63 0 -103.5 -31.5t-40.5 -90.5q0 -46 26 -69.5t71 -23.5h102v-43h-174v-383q0 -46 53 -51l51 -2v-40h-264z" />
    <glyph glyph-name="f_k" horiz-adv-x="942" 
d="M50 0v40l33 2q55 3 55 51v383h-125v43h125v40q0 119 63.5 182t163.5 63q94 0 189 -59v-652q0 -48 56 -51l34 -2v-40h-248v40l33 1q53 5 53 52v593q-70 48 -153 48q-63 0 -103.5 -31.5t-40.5 -90.5q0 -46 26 -69.5t71 -23.5h102v-43h-174v-383q0 -46 53 -51l51 -2v-40
h-264zM573 280l138 134q22 22 22 36q0 28 -72 28v41h244v-41q-40 -6 -66.5 -20t-57.5 -42l-130 -120l268 -262v-40h-67z" />
    <glyph glyph-name="t_t" horiz-adv-x="743" 
d="M245 -11q-59 0 -92.5 32t-33.5 95v362h-95v41q57 3 85.5 33.5t40.5 88.5h40v-122h176q57 3 85.5 33.5t41.5 88.5h39v-122h183v-43h-183v-333q0 -96 95 -96q40 0 92 19v-41q-66 -36 -132 -36q-58 0 -92 32t-34 95v360h-271v-333q0 -96 94 -96q40 0 88 18v-42
q-64 -34 -127 -34z" />
    <glyph glyph-name="zero.osf" horiz-adv-x="695" 
d="M347 -11q-127 0 -207 83t-80 212t80 212t207 83t208 -83.5t81 -211.5q0 -129 -80.5 -212t-208.5 -83zM143 296q0 -121 62 -193.5t145 -72.5q81 0 142 65.5t61 176.5q0 120 -63 193t-146 73q-81 0 -141 -65.5t-60 -176.5z" />
    <glyph glyph-name="one.osf" horiz-adv-x="478" 
d="M70 0v40l102 4q26 1 41 14.5t15 36.5v388q-61 -38 -157 -38v44q123 0 192 78h36v-472q0 -23 15 -36.5t42 -14.5l94 -4v-40h-380z" />
    <glyph glyph-name="two.osf" horiz-adv-x="548" 
d="M67 0v45l122 104q99 84 140 136t41 112q0 56 -33.5 86t-80.5 30q-48 0 -92 -28.5t-64 -80.5l-35 16q26 76 87 117.5t129 41.5q69 0 118 -41.5t49 -114.5q0 -67 -42.5 -122.5t-119.5 -119.5l-137 -115h335v-66h-417z" />
    <glyph glyph-name="three.osf" horiz-adv-x="588" 
d="M299 -152q-95 0 -161.5 50t-87.5 137h94q10 -69 55.5 -109t108.5 -40t103.5 37.5t40.5 99.5q0 87 -76 133.5t-202 50.5v42q116 18 178 62t62 101q0 47 -34 75t-94 28q-62 0 -109.5 -29.5t-75.5 -75.5l-35 23q37 74 101.5 110.5t138.5 36.5q83 0 136 -43.5t53 -107.5
q0 -122 -190 -180q102 -16 163 -67.5t61 -129.5q0 -80 -61 -142t-169 -62z" />
    <glyph glyph-name="four.osf" horiz-adv-x="606" 
d="M357 -144v227h-323v58l335 426h60v-417h124v-67h-124v-227h-72zM100 150h257v325z" />
    <glyph glyph-name="five.osf" horiz-adv-x="569" 
d="M289 -155q-93 0 -158.5 49t-90.5 138h95q10 -70 56.5 -109.5t110.5 -39.5q66 0 105 41t39 103q0 98 -85.5 157t-248.5 66l46 317h317v-67h-284l-27 -177q177 -14 266 -85.5t89 -177.5q0 -91 -60.5 -153t-169.5 -62z" />
    <glyph glyph-name="six.osf" horiz-adv-x="625" 
d="M327 -11q-85 0 -147 43.5t-91 110.5t-29 147q0 59 17 119.5t52 116.5t83.5 99.5t118 69.5t149.5 26v-40q-154 -14 -239 -108.5t-97 -223.5q75 93 195 93q94 0 160 -58t66 -157q0 -93 -61 -165.5t-177 -72.5zM141 301q0 -122 54 -198t141 -76q72 0 111 52t39 127
q0 88 -50.5 135t-126.5 47q-98 0 -168 -71v-16z" />
    <glyph glyph-name="seven.osf" horiz-adv-x="547" 
d="M131 -144l328 644h-433v67h495v-45l-317 -666h-73z" />
    <glyph glyph-name="eight.osf" horiz-adv-x="592" 
d="M304 -11q-109 0 -176.5 48.5t-67.5 133.5q0 64 43 113t126 67q-73 37 -113 80t-40 112q0 86 62.5 132t150.5 46q89 0 152 -46t63 -121q0 -60 -43 -109.5t-110 -70.5l28 -14q72 -34 113 -78t41 -115q0 -85 -62.5 -131.5t-166.5 -46.5zM140 173q0 -64 42 -105t122 -41
q71 0 110 33t39 91q0 57 -37 93.5t-107 69.5l-50 23q-60 -23 -89.5 -67t-29.5 -97zM154 561q0 -34 12.5 -61t38.5 -48t50 -34t64 -30q106 54 106 156q0 64 -37 101t-104 37q-60 0 -95 -31t-35 -90z" />
    <glyph glyph-name="nine.osf" horiz-adv-x="625" 
d="M297 581q85 0 147.5 -43.5t91.5 -110.5t29 -147q0 -75 -27.5 -150t-78.5 -138.5t-133.5 -103t-181.5 -39.5v40q154 14 239 108.5t98 223.5q-75 -93 -195 -93q-94 0 -160 58t-66 157q0 43 14 84t41.5 76t74.5 56.5t107 21.5zM138 364q0 -88 51 -135t126 -47q100 0 168 71
q1 5 1 16q0 122 -54 198t-141 76q-72 0 -111.5 -52.5t-39.5 -126.5z" />
    <glyph glyph-name="zero.tf" horiz-adv-x="620" 
d="M311 -11q-117 0 -184 99.5t-67 267.5q0 169 67 267t183 98q118 0 185 -99.5t67 -268.5t-67.5 -266.5t-183.5 -97.5zM145 399q0 -172 46.5 -269.5t137.5 -97.5q151 0 151 279q0 172 -47 269.5t-138 97.5q-150 0 -150 -279z" />
    <glyph glyph-name="one.tf" horiz-adv-x="620" 
d="M120 0v40l122 4q26 1 41 14.5t15 36.5v533q-30 -19 -80.5 -29t-86.5 -10v44q133 0 202 78h37v-616q0 -23 14.5 -36.5t41.5 -14.5l114 -4v-40h-420z" />
    <glyph glyph-name="two.tf" horiz-adv-x="620" 
d="M71 0v45l118 110q136 126 192.5 203t56.5 170q0 70 -32.5 112.5t-91.5 42.5q-64 0 -108 -60t-47 -181h-92q13 146 83 212.5t167 66.5q93 0 148.5 -50t55.5 -137q0 -49 -17.5 -94t-57 -92.5t-69.5 -77t-88 -81.5l-138 -123h400v-66h-480z" />
    <glyph glyph-name="three.tf" horiz-adv-x="620" 
d="M322 -11q-96 0 -162.5 49.5t-88.5 137.5h95q9 -69 54.5 -109t108.5 -40q62 0 100.5 37t38.5 98q0 84 -73.5 129t-199.5 45v51q264 2 264 166q0 63 -36 96.5t-93 33.5q-63 0 -108.5 -40t-55.5 -109h-94q22 89 88 138t165 49t157 -49t58 -129q0 -72 -48 -117.5t-129 -63.5
q86 -23 136.5 -70.5t50.5 -113.5q0 -75 -60 -132t-168 -57z" />
    <glyph glyph-name="four.tf" horiz-adv-x="620" 
d="M374 0v227h-323v58l335 426h60v-417h124v-67h-124v-227h-72zM118 294h256v325z" />
    <glyph glyph-name="five.tf" horiz-adv-x="620" 
d="M313 -11q-91 0 -153.5 55.5t-73.5 165.5h94q0 -89 40.5 -136t107.5 -47q61 0 99 37.5t38 104.5q0 99 -85.5 158.5t-248.5 66.5l28 317h335v-67h-295l-17 -177q179 -14 267 -86t88 -180q0 -96 -63 -154t-161 -58z" />
    <glyph glyph-name="six.tf" horiz-adv-x="620" 
d="M327 -11q-89 0 -151 48t-90 124.5t-28 173.5q0 99 29.5 184.5t96 143.5t157.5 58t150 -53.5t66 -133.5h-95q-2 60 -38 104.5t-91 44.5q-82 0 -134.5 -99t-57.5 -234q76 92 198 92q93 0 159 -58.5t66 -156.5q0 -94 -61 -166t-176 -72zM141 316q2 -129 50 -209t140 -80
q75 0 114.5 52t39.5 127q0 88 -50.5 135t-126.5 47q-99 0 -167 -72z" />
    <glyph glyph-name="seven.tf" horiz-adv-x="620" 
d="M166 0l340 625h-451v65h510v-44l-327 -646h-72z" />
    <glyph glyph-name="eight.tf" horiz-adv-x="620" 
d="M318 -11q-109 0 -176.5 48.5t-67.5 133.5q0 64 43 113t126 67q-73 37 -113 80t-40 112q0 86 62.5 132t150.5 46q89 0 152 -46t63 -121q0 -60 -43 -109.5t-110 -70.5l28 -14q72 -34 113 -78t41 -115q0 -85 -62.5 -131.5t-166.5 -46.5zM154 173q0 -64 42 -105t122 -41
q71 0 110 33t39 91q0 57 -37 93.5t-107 69.5l-50 23q-60 -23 -89.5 -67t-29.5 -97zM168 561q0 -34 12.5 -61t38.5 -48t50 -34t64 -30q106 54 106 156q0 64 -37 101t-104 37q-60 0 -95 -31t-35 -90z" />
    <glyph glyph-name="nine.tf" horiz-adv-x="620" 
d="M294 -11q-92 0 -157 54t-72 133h94q3 -59 44.5 -104t97.5 -45q55 0 96 49t60.5 122t22.5 161q-75 -91 -197 -91q-93 0 -159 58t-66 157q0 94 61 166t176 72q89 0 151 -48t90 -124.5t28 -173.5q0 -74 -16 -141t-47 -123t-84.5 -89t-122.5 -33zM137 504q0 -88 50.5 -135
t126.5 -47q98 0 166 71q-2 130 -50 210t-140 80q-75 0 -114 -52t-39 -127z" />
    <glyph glyph-name="zero.dnom" horiz-adv-x="371" 
d="M185 -6q-72 0 -114 61t-42 167t42 167t113 61q73 0 115 -61.5t42 -167.5t-41.5 -166.5t-114.5 -60.5zM91 237q0 -206 102 -206q86 0 86 175q0 101 -26 154t-76 53q-86 0 -86 -176z" />
    <glyph glyph-name="one.dnom" horiz-adv-x="371" 
d="M42 0v36l91 3q28 2 28 29v315q-52 -31 -119 -31v36q90 0 144 61h28v-381q0 -27 28 -29l91 -3v-36h-291z" />
    <glyph glyph-name="two.dnom" horiz-adv-x="373" 
d="M40 0v36l73 68q80 77 115 124t35 102q0 38 -19 60.5t-53 22.5q-39 0 -64.5 -34t-27.5 -110h-67q7 95 52 137.5t110 42.5q60 0 95.5 -32.5t35.5 -85.5q0 -30 -11 -58t-35.5 -57.5t-43 -48t-54.5 -50.5l-74 -66h232v-51h-299z" />
    <glyph glyph-name="three.dnom" horiz-adv-x="371" 
d="M193 -6q-61 0 -103 33.5t-55 93.5h70q4 -43 29.5 -67.5t63.5 -24.5q36 0 56.5 20.5t20.5 57.5q0 98 -164 98v44q158 0 158 93q0 35 -19.5 53.5t-51.5 18.5q-38 0 -63.5 -23.5t-29.5 -65.5h-70q13 59 54.5 92t105.5 33q62 0 98.5 -32t36.5 -83q0 -82 -110 -108
q54 -7 85 -38t31 -72q0 -50 -38 -86.5t-105 -36.5z" />
    <glyph glyph-name="four.dnom" horiz-adv-x="371" 
d="M223 0v120h-203v43l211 277h46v-268h75v-52h-75v-120h-54zM75 172h148v194z" />
    <glyph glyph-name="five.dnom" horiz-adv-x="371" 
d="M194 -6q-59 0 -100 37t-50 106h70q0 -54 24.5 -81t64.5 -27q37 0 57 22.5t20 59.5q0 57 -50 91t-150 37l14 202h216v-51h-180l-8 -96q105 -9 159.5 -54t54.5 -109q0 -57 -37 -97t-105 -40z" />
    <glyph glyph-name="six.dnom" horiz-adv-x="371" 
d="M195 -6q-81 0 -124 61t-43 153q0 63 18.5 116.5t59.5 89.5t98 36q58 0 95.5 -37t39.5 -91h-69q0 38 -19.5 65t-52.5 27q-44 0 -72.5 -52t-34.5 -128q47 45 111 45q58 0 99.5 -36.5t41.5 -99.5q0 -57 -38.5 -103t-109.5 -46zM90 196q2 -75 28.5 -121t78.5 -46
q43 0 65 29.5t22 72.5q0 51 -28.5 77t-71.5 26q-55 0 -94 -38z" />
    <glyph glyph-name="seven.dnom" horiz-adv-x="371" 
d="M87 0l207 389h-268v51h318v-33l-199 -407h-58z" />
    <glyph glyph-name="eight.dnom" horiz-adv-x="371" 
d="M188 -6q-69 0 -110.5 31t-41.5 85q0 40 26.5 69.5t76.5 42.5q-92 40 -92 115q0 51 37 82t97 31q58 0 97.5 -30t39.5 -76q0 -36 -25 -66.5t-69 -45.5l24 -11q87 -38 87 -114q0 -52 -39.5 -82.5t-107.5 -30.5zM95 110q0 -38 26 -60.5t69 -22.5q40 0 63 18.5t23 52.5
q0 54 -77 90l-36 17q-68 -24 -68 -95zM104 348q0 -19 7 -34.5t22.5 -27.5t28.5 -19.5t37 -18.5q61 29 61 89q0 37 -22 58.5t-60 21.5q-35 0 -54.5 -18.5t-19.5 -50.5z" />
    <glyph glyph-name="nine.dnom" horiz-adv-x="371" 
d="M176 -6q-64 0 -103 36.5t-41 91.5h69q0 -39 21 -65.5t59 -26.5q47 0 71.5 50.5t27.5 129.5q-46 -45 -111 -45q-58 0 -99.5 36.5t-41.5 99.5q0 58 38 103.5t110 45.5q81 0 124 -61t43 -153q0 -65 -14.5 -116.5t-53.5 -88.5t-99 -37zM87 313q0 -51 28.5 -77t71.5 -26
q55 0 94 38q-2 76 -28.5 121.5t-78.5 45.5q-43 0 -65 -29.5t-22 -72.5z" />
    <glyph glyph-name="zero.numr" horiz-adv-x="371" 
d="M185 265q-72 0 -114 61t-42 167t42 167t113 61q73 0 115 -61.5t42 -167.5t-41.5 -166.5t-114.5 -60.5zM91 508q0 -206 102 -206q86 0 86 175q0 101 -26 154t-76 53q-86 0 -86 -176z" />
    <glyph glyph-name="one.numr" horiz-adv-x="371" 
d="M42 272v36l91 3q28 2 28 29v315q-52 -31 -119 -31v36q90 0 144 61h28v-381q0 -27 28 -29l91 -3v-36h-291z" />
    <glyph glyph-name="two.numr" horiz-adv-x="373" 
d="M40 272v36l73 68q80 77 115 124t35 102q0 38 -19 60.5t-53 22.5q-39 0 -64.5 -34t-27.5 -110h-67q7 95 52 137.5t110 42.5q60 0 95.5 -32.5t35.5 -85.5q0 -30 -11 -58t-35.5 -57.5t-43 -47.5t-54.5 -51l-74 -66h232v-51h-299z" />
    <glyph glyph-name="three.numr" horiz-adv-x="371" 
d="M193 265q-61 0 -103 33.5t-55 93.5h70q4 -43 29.5 -67.5t63.5 -24.5q36 0 56.5 20.5t20.5 57.5q0 98 -164 98v44q158 0 158 93q0 35 -19.5 53.5t-51.5 18.5q-38 0 -63.5 -23.5t-29.5 -65.5h-70q13 59 54.5 92t105.5 33q62 0 98.5 -32t36.5 -83q0 -82 -110 -108
q54 -7 85 -38t31 -72q0 -50 -38 -86.5t-105 -36.5z" />
    <glyph glyph-name="four.numr" horiz-adv-x="371" 
d="M223 272v120h-203v43l211 277h46v-268h75v-52h-75v-120h-54zM75 444h148v194z" />
    <glyph glyph-name="five.numr" horiz-adv-x="371" 
d="M194 265q-59 0 -100 37t-50 106h70q0 -54 24.5 -81t64.5 -27q37 0 57 22.5t20 59.5q0 57 -50 91t-150 37l14 202h216v-51h-180l-8 -96q105 -9 159.5 -54t54.5 -109q0 -57 -37 -97t-105 -40z" />
    <glyph glyph-name="six.numr" horiz-adv-x="371" 
d="M195 265q-81 0 -124 61t-43 153q0 63 18.5 116.5t59.5 89.5t98 36q58 0 95.5 -37t39.5 -91h-69q0 38 -19.5 65t-52.5 27q-44 0 -72.5 -52t-34.5 -128q47 45 111 45q58 0 99.5 -36.5t41.5 -99.5q0 -57 -38.5 -103t-109.5 -46zM90 467q2 -75 28.5 -121t78.5 -46
q43 0 65 29.5t22 72.5q0 51 -28.5 77t-71.5 26q-55 0 -94 -38z" />
    <glyph glyph-name="seven.numr" horiz-adv-x="371" 
d="M87 272l207 389h-268v51h318v-33l-199 -407h-58z" />
    <glyph glyph-name="eight.numr" horiz-adv-x="371" 
d="M188 265q-69 0 -110.5 31t-41.5 85q0 40 26.5 69.5t76.5 42.5q-92 40 -92 115q0 51 37 82t97 31q58 0 97.5 -30t39.5 -76q0 -36 -25 -66.5t-69 -45.5l24 -11q87 -38 87 -114q0 -52 -39.5 -82.5t-107.5 -30.5zM95 381q0 -38 26 -60.5t69 -22.5q40 0 63 18.5t23 52.5
q0 54 -77 90l-36 17q-68 -24 -68 -95zM104 619q0 -19 7 -34.5t22.5 -27.5t28.5 -19.5t37 -18.5q61 29 61 89q0 37 -22 58.5t-60 21.5q-35 0 -54.5 -18.5t-19.5 -50.5z" />
    <glyph glyph-name="nine.numr" horiz-adv-x="371" 
d="M176 265q-64 0 -103 36.5t-41 91.5h69q0 -39 21 -65.5t59 -26.5q47 0 71.5 50.5t27.5 129.5q-46 -45 -111 -45q-58 0 -99.5 36.5t-41.5 99.5q0 58 38 103.5t110 45.5q81 0 124 -61t43 -153q0 -65 -14.5 -116.5t-53.5 -88.5t-99 -37zM87 584q0 -51 28.5 -77t71.5 -26
q55 0 94 38q-2 76 -28.5 121.5t-78.5 45.5q-43 0 -65 -29.5t-22 -72.5z" />
    <glyph glyph-name="exclamdown.cap" horiz-adv-x="336" 
d="M185 475l29 -526h-93l30 526h34zM106 621q0 25 17 42t45 17q27 0 44.5 -17t17.5 -42t-17.5 -42.5t-44.5 -17.5q-28 0 -45 17.5t-17 42.5z" />
    <glyph glyph-name="questiondown.cap" horiz-adv-x="489" 
d="M312 420q5 -22 5 -37q0 -68 -93 -147l-40 -34q-23 -19 -35.5 -31.5t-25.5 -37t-13 -50.5q0 -42 31 -67t74 -25q51 0 89.5 36.5t41.5 106.5h93q-8 -87 -73 -136.5t-146 -49.5q-72 0 -121 40t-49 113q0 36 15 67t29.5 45t41.5 37l39 32q41 33 63.5 66.5t22.5 82.5v52h36z
M216 638q0 25 17 42t46 17q27 0 44 -17t17 -42t-17 -42.5t-44 -17.5q-28 0 -45.5 17.5t-17.5 42.5z" />
    <glyph glyph-name="periodcentered.cap" horiz-adv-x="244" 
d="M121 352q-27 0 -44 17t-17 42t17 42.5t44 17.5q28 0 45.5 -17.5t17.5 -42.5t-17 -42t-46 -17z" />
    <glyph glyph-name="bullet.cap" horiz-adv-x="306" 
d="M152 329q-41 0 -66.5 25.5t-25.5 63.5q0 37 25.5 63.5t66.5 26.5q42 0 68 -26.5t26 -63.5q0 -38 -25.5 -63.5t-68.5 -25.5z" />
    <glyph glyph-name="hyphen.cap" horiz-adv-x="415" 
d="M60 348v66h296v-66h-296z" />
    <glyph glyph-name="endash.cap" horiz-adv-x="599" 
d="M60 355v56h480v-56h-480z" />
    <glyph glyph-name="emdash.cap" horiz-adv-x="1080" 
d="M60 355v56h961v-56h-961z" />
    <glyph glyph-name="guillemotleft.cap" horiz-adv-x="521" 
d="M207 138l-168 191v44l168 190l35 -29l-130 -184l130 -183zM258 329v44l168 190l35 -29l-130 -184l130 -183l-35 -29z" />
    <glyph glyph-name="guillemotright.cap" horiz-adv-x="521" 
d="M95 138l-35 29l130 183l-130 184l35 29l168 -190v-44zM279 167l130 183l-130 184l35 29l168 -190v-44l-168 -191z" />
    <glyph glyph-name="guilsinglleft.cap" horiz-adv-x="302" 
d="M207 138l-168 191v44l168 190l35 -29l-130 -184l130 -183z" />
    <glyph glyph-name="guilsinglright.cap" horiz-adv-x="302" 
d="M95 138l-35 29l130 183l-130 184l35 29l168 -190v-44z" />
    <glyph glyph-name="at.cap" horiz-adv-x="940" 
d="M432 -45q-166 0 -271.5 102.5t-105.5 269.5q0 129 63.5 234t168.5 163t228 58q54 0 106 -11.5t100.5 -37.5t85 -64t58.5 -95.5t22 -127.5q0 -127 -63 -210t-148 -83q-42 0 -76.5 21.5t-48.5 61.5q-60 -85 -144 -85q-69 0 -112 50.5t-43 130.5q0 99 60 176t155 77
q39 0 74 -14.5t54 -38.5l9 45h64l-55 -244q-7 -31 -7 -52q0 -81 77 -81q70 0 112 69.5t42 163.5q0 139 -95.5 221.5t-233.5 82.5q-115 0 -209 -59.5t-144.5 -153t-50.5 -197.5q0 -143 97 -234.5t243 -91.5q54 0 102 14l7 -39q-48 -21 -121 -21zM322 342q0 -60 27 -99t79 -39
q32 0 60.5 14.5t43.5 38.5l47 220q-11 30 -36.5 50.5t-62.5 20.5q-67 0 -112.5 -63t-45.5 -143z" />
    <glyph glyph-name="dieresis.cap" horiz-adv-x="303" 
d="M252 799q-22 0 -35.5 14.5t-13.5 38.5q0 22 13.5 36t35.5 14q23 0 37 -13.5t14 -36.5q0 -24 -14 -38.5t-37 -14.5zM0 852q0 22 14 36t37 14q22 0 36 -14t14 -36q0 -24 -14 -38.5t-36 -14.5q-23 0 -37 14.5t-14 38.5z" />
    <glyph glyph-name="dotaccent.cap" horiz-adv-x="125" 
d="M61 800q-27 0 -44 17t-17 42t17 42.5t44 17.5q28 0 45.5 -17.5t17.5 -42.5t-17 -42t-46 -17z" />
    <glyph glyph-name="grave.cap" horiz-adv-x="178" 
d="M130 799l-130 150h98l80 -150h-48z" />
    <glyph glyph-name="acute.cap" horiz-adv-x="178" 
d="M0 799l78 150h100l-130 -150h-48z" />
    <glyph glyph-name="hungarumlaut.cap" horiz-adv-x="231" 
d="M0 799l41 155h62l-54 -155h-49zM130 799l41 153h60l-51 -153h-50z" />
    <glyph glyph-name="circumflex.cap" horiz-adv-x="300" 
d="M0 799l128 162h45l127 -162h-61l-89 98l-87 -98h-63z" />
    <glyph glyph-name="caron.cap" horiz-adv-x="300" 
d="M128 799l-128 162h63l87 -98l89 98h61l-127 -162h-45z" />
    <glyph glyph-name="breve.cap" horiz-adv-x="233" 
d="M116 796q-58 0 -87 31t-29 74q0 25 7 42h56q-6 -13 -6 -34q0 -63 59 -63q60 0 60 62q0 22 -6 35h56q7 -21 7 -42q0 -43 -28.5 -74t-88.5 -31z" />
    <glyph glyph-name="ring.cap" horiz-adv-x="189" 
d="M95 789q-41 0 -68 27.5t-27 68.5t27.5 67.5t67.5 26.5t67 -26.5t27 -67.5t-27.5 -68.5t-66.5 -27.5zM41 885q0 -24 15.5 -41t38.5 -17q22 0 37.5 17t15.5 41q0 23 -15.5 39t-37.5 16q-23 0 -38.5 -16t-15.5 -39z" />
    <glyph glyph-name="tilde.cap" horiz-adv-x="311" 
d="M222 799q-28 0 -71 32.5t-63 32.5q-43 0 -53 -61h-35q4 59 29.5 92.5t62.5 33.5q29 0 72 -33t64 -33q17 0 32.5 15t18.5 51h32q0 -60 -25.5 -95t-63.5 -35z" />
    <glyph glyph-name="macron.cap" horiz-adv-x="307" 
d="M0 799v56h307v-56h-307z" />
    <glyph glyph-name="cedilla.cap" horiz-adv-x="198" 
d="M101 -219q-57 0 -101 39l23 34q39 -36 79 -36q51 0 51 40q0 51 -98 51l14 92h32v-68q44 1 70.5 -20t26.5 -53t-25 -55.5t-72 -23.5z" />
    <glyph glyph-name="ffl" horiz-adv-x="1016" 
d="M50 0v40l33 2q55 3 55 51v383h-125v43h125v40q0 120 59 182.5t146 62.5q43 0 75 -12v-80q-51 19 -101 19q-59 0 -95.5 -30.5t-36.5 -87.5q0 -94 97 -94h200v40q0 119 63.5 182t163.5 63q94 0 189 -59v-652q0 -48 56 -51l34 -2v-40h-248v40l33 1q53 5 53 52v593
q-70 48 -154 48q-62 0 -102 -31.5t-40 -90.5q0 -45 25.5 -69t70.5 -24h102v-43h-174v-383q0 -21 14 -35t39 -16l51 -2v-40h-262v40l33 1q53 5 53 52v383h-272v-383q0 -46 53 -51l51 -2v-40h-264z" />
    </font>
</defs>
</svg>
