<svg width="100" height="34" viewBox="0 0 100 34" fill="none" xmlns="http://www.w3.org/2000/svg">
<g id="Sidara" clip-path="url(#clip0_3715_11653)">
<path id="Vector" d="M30.7007 26.0866C29.6018 25.5476 28.7214 24.7871 28.0563 23.7988C27.3913 22.8138 27.0081 21.6651 26.9004 20.3527H29.7697C29.8235 21.0875 30.0579 21.7581 30.4727 22.3582C30.8876 22.9582 31.4386 23.4331 32.1195 23.786C32.8004 24.1357 33.5415 24.3122 34.3364 24.3122C35.5399 24.3122 36.509 24.0427 37.2437 23.5036C37.9784 22.9646 38.3458 22.2555 38.3458 21.3763C38.3458 20.6415 38.1146 20.0351 37.6554 19.5602C37.1962 19.0853 36.5501 18.7292 35.7172 18.4981L32.3159 17.5035C30.8623 17.0895 29.7253 16.4799 28.9019 15.6745C28.0785 14.8659 27.6668 13.7108 27.6668 12.2028C27.6668 11.1985 27.9455 10.3064 28.5029 9.52354C29.0603 8.74383 29.8298 8.1374 30.8148 7.70744C31.7965 7.27748 32.9271 7.0625 34.2034 7.0625C35.4797 7.0625 36.5881 7.28069 37.5889 7.72027C38.5896 8.15986 39.3909 8.80159 39.9926 9.64547C40.5943 10.4893 40.9395 11.4744 41.0282 12.6071H38.1589C38.0006 11.7086 37.5731 10.9867 36.8827 10.4412C36.1923 9.89574 35.296 9.6198 34.2002 9.6198C33.1045 9.6198 32.186 9.85403 31.5558 10.3193C30.9288 10.7845 30.6121 11.4134 30.6121 12.2028C30.6121 12.867 30.8243 13.3964 31.2486 13.791C31.673 14.1857 32.2842 14.5002 33.0823 14.7344L36.509 15.7291C37.5002 16.0179 38.3363 16.3708 39.0204 16.7911C39.7013 17.2115 40.2523 17.7954 40.6672 18.5399C41.082 19.2843 41.2911 20.2116 41.2911 21.325C41.2911 22.4384 41.0029 23.4106 40.4265 24.2448C39.8501 25.0791 39.0362 25.7304 37.9816 26.1957C36.927 26.661 35.7109 26.8952 34.3301 26.8952C32.9493 26.8952 31.787 26.6257 30.6912 26.0866" fill="#D6D6D6"/>
<path id="Vector_2" d="M46.0981 12.6104H43.3872V26.6771H46.0981V12.6104Z" fill="#D6D6D6"/>
<path id="Vector_3" d="M71.5259 23.5718C72.2163 22.8082 72.5615 21.791 72.5615 20.5172V19.9524L68.682 20.5717C67.8681 20.6969 67.26 20.9471 66.861 21.3258C66.462 21.7012 66.2624 22.1953 66.2624 22.8049C66.2624 23.3793 66.4841 23.8413 66.9275 24.1911C67.3709 24.5408 67.9536 24.7173 68.682 24.7173C69.8854 24.7173 70.8324 24.3355 71.5228 23.575M65.8254 26.3858C65.1065 26.0457 64.5491 25.574 64.1532 24.974C63.7542 24.374 63.5547 23.6873 63.5547 22.914C63.5547 21.7108 63.9569 20.7418 64.7645 20.007C65.5689 19.2722 66.7343 18.7973 68.2576 18.5824L71.2852 18.1781C71.6938 18.1235 72.001 17.9984 72.2163 17.8026C72.4285 17.6069 72.5362 17.3374 72.5362 16.9941C72.5362 16.3299 72.2575 15.7844 71.7001 15.3512C71.1427 14.9213 70.4017 14.7063 69.4832 14.7063C68.5648 14.7063 67.8713 14.9309 67.3044 15.3801C66.7375 15.8293 66.4176 16.4486 66.348 17.2379H63.6909C63.7795 16.2689 64.0772 15.4315 64.5808 14.7223C65.0843 14.0132 65.7589 13.4678 66.5981 13.0795C67.4406 12.6945 68.4001 12.502 69.4801 12.502C70.6297 12.502 71.6399 12.7137 72.5077 13.1341C73.3754 13.5544 74.0437 14.148 74.5124 14.9117C74.9811 15.6753 75.2154 16.5481 75.2154 17.5363V23.3761C75.2154 23.7707 75.2915 24.0531 75.4403 24.2232C75.5891 24.3932 75.8172 24.4799 76.118 24.4799C76.2764 24.4799 76.4284 24.4638 76.5709 24.4253V26.6874C76.1275 26.7965 75.7127 26.8478 75.3231 26.8478C74.5979 26.8478 74.0088 26.6585 73.556 26.2831C73.1031 25.9077 72.8529 25.3334 72.7991 24.5601C72.4634 25.2788 71.887 25.8467 71.0731 26.2703C70.2591 26.6906 69.3281 26.9024 68.283 26.9024C67.3614 26.9024 66.5443 26.7323 65.8254 26.3922" fill="#D6D6D6"/>
<path id="Vector_4" d="M46.0984 7.48926H43.3906V10.438H46.0984V7.48926Z" fill="#D6D6D6"/>
<g id="Group">
<path id="Vector_5" d="M58.5031 22.225C58.1579 22.9533 57.6765 23.5116 57.0558 23.9063C56.4351 24.301 55.7193 24.4999 54.9054 24.4999C54.0915 24.4999 53.3695 24.3042 52.7392 23.9063C52.1122 23.5116 51.6245 22.9469 51.2793 22.2121C50.9341 21.4774 50.7599 20.6335 50.7599 19.6805C50.7599 18.7275 50.9309 17.8901 51.2793 17.1649C51.6245 16.4366 52.1122 15.8783 52.7392 15.4836C53.3663 15.0889 54.0884 14.89 54.9054 14.89C55.7225 14.89 56.4383 15.0889 57.0558 15.4836C57.6765 15.8783 58.1579 16.4398 58.5031 17.1649C58.8483 17.8901 59.0225 18.7308 59.0225 19.6805C59.0225 20.6303 58.8483 21.4966 58.5031 22.225ZM58.8103 14.5691C58.3859 13.9595 57.7842 13.4621 57.0051 13.0771C56.2261 12.6921 55.4027 12.4995 54.5349 12.4995C53.1889 12.4995 52.0235 12.8076 51.0417 13.4268C50.06 14.0461 49.3062 14.8996 48.7837 15.9841C48.2612 17.0687 48.0015 18.304 48.0015 19.6837C48.0015 21.0634 48.2612 22.3277 48.7837 23.4122C49.3062 24.4967 50.0632 25.3502 51.0544 25.9695C52.0457 26.5887 53.2143 26.8968 54.5602 26.8968C55.5167 26.8968 56.3844 26.6946 57.1635 26.2903C57.9426 25.8861 58.4904 25.3887 58.8103 24.7983V26.6818H61.5181V5.90576L58.8103 7.49084V14.5691Z" fill="#D6D6D6"/>
<path id="Vector_6" d="M94.9517 23.5728C95.6421 22.8091 95.9873 21.792 95.9873 20.5181V19.9534L92.1078 20.5727C91.2939 20.6978 90.6858 20.9481 90.2868 21.3267C89.8877 21.7021 89.6882 22.1963 89.6882 22.8059C89.6882 23.3803 89.9099 23.8423 90.3533 24.1921C90.7967 24.5418 91.3794 24.7183 92.1078 24.7183C93.3112 24.7183 94.2581 24.3364 94.9485 23.576M89.2512 26.3868C88.5355 26.0467 87.9749 25.575 87.579 24.975C87.18 24.375 86.9805 23.6883 86.9805 22.915C86.9805 21.7118 87.3827 20.7428 88.1903 20.008C88.9947 19.2732 90.1601 18.7983 91.6834 18.5833L94.711 18.179C95.1196 18.1245 95.4268 17.9994 95.6421 17.8036C95.8543 17.6079 95.962 17.3384 95.962 16.995C95.962 16.3309 95.6833 15.7854 95.1259 15.3522C94.5685 14.9223 93.8274 14.7073 92.909 14.7073C91.9906 14.7073 91.297 14.9319 90.7302 15.3811C90.1633 15.8303 89.8434 16.4496 89.7737 17.2389H87.1166C87.2053 16.2699 87.503 15.4324 88.0066 14.7233C88.5101 14.0142 89.1847 13.4687 90.0239 13.0805C90.8663 12.6954 91.8259 12.5029 92.9059 12.5029C94.0555 12.5029 95.0657 12.7147 95.9335 13.135C96.8012 13.5554 97.4694 14.149 97.9382 14.9126C98.4069 15.6763 98.6412 16.549 98.6412 17.5373V23.3771C98.6412 23.7717 98.7172 24.0541 98.8661 24.2241C99.0149 24.3942 99.243 24.4808 99.5438 24.4808C99.7022 24.4808 99.8542 24.4648 99.9967 24.4263V26.6884C99.5533 26.7975 99.1384 26.8488 98.7489 26.8488C98.0237 26.8488 97.4346 26.6595 96.9817 26.2841C96.5289 25.9087 96.2787 25.3343 96.2248 24.5611C95.8891 25.2798 95.3128 25.8477 94.4988 26.2713C93.6849 26.6916 92.7538 26.9034 91.7087 26.9034C90.7872 26.9034 89.9701 26.7333 89.2512 26.3932" fill="#D6D6D6"/>
<path id="Vector_7" d="M80.9189 18.8526C80.9189 18.4451 80.9664 18.0633 81.0646 17.7039C81.1375 17.4344 81.2356 17.1777 81.3623 16.9339C81.4035 16.8537 81.451 16.7734 81.4985 16.6932C81.7899 16.2216 82.1699 15.8301 82.6449 15.5156C82.8001 15.413 82.968 15.3199 83.1453 15.2333H83.1516C83.6552 15.0087 84.2126 14.8964 84.8238 14.8964C85.3305 14.8964 85.7961 14.983 86.2331 15.1338V12.5701C85.9006 12.5252 85.5554 12.4995 85.1975 12.4995C84.3298 12.4995 83.5063 12.692 82.7273 13.0771C81.9482 13.4621 81.3465 13.9594 80.9221 14.5691V12.6118H78.2144V26.6786H80.9221V18.8494L80.9189 18.8526Z" fill="#D6D6D6"/>
</g>
<path id="Vector_8" d="M8.31006 33.2042L19.3913 26.7227V13.7598L8.31006 20.2412V33.2042Z" fill="#D6D6D6"/>
<path id="Vector_9" d="M8.31006 10.5186L13.8522 7.27787V0.796387L8.31006 4.03713V10.5186Z" fill="#D6D6D6"/>
<path id="Vector_10" d="M8.31011 20.241L0 15.3799V5.65771L8.31011 10.5188V20.241Z" fill="#D6D6D6"/>
</g>
<defs>
<clipPath id="clip0_3715_11653">
<rect width="100" height="32.4074" fill="white" transform="translate(0 0.796387)"/>
</clipPath>
</defs>
</svg>
