<svg width="100" height="33" viewBox="0 0 100 33" fill="none" xmlns="http://www.w3.org/2000/svg">
<g id="Sidara" clip-path="url(#clip0_4261_6495)">
<path id="Vector" d="M30.7007 25.5696C29.6018 25.0373 28.7214 24.2865 28.0563 23.3106C27.3913 22.3379 27.0081 21.2037 26.9004 19.9078H29.7697C29.8235 20.6334 30.0579 21.2956 30.4727 21.888C30.8876 22.4805 31.4386 22.9494 32.1195 23.2979C32.8004 23.6433 33.5415 23.8175 34.3364 23.8175C35.5399 23.8175 36.509 23.5514 37.2437 23.0191C37.9784 22.4868 38.3458 21.7866 38.3458 20.9185C38.3458 20.193 38.1146 19.5942 37.6554 19.1253C37.1962 18.6564 36.5501 18.3047 35.7172 18.0765L32.3159 17.0944C30.8623 16.6857 29.7253 16.0837 28.9019 15.2884C28.0785 14.49 27.6668 13.3494 27.6668 11.8603C27.6668 10.8686 27.9455 9.98784 28.5029 9.21477C29.0603 8.44487 29.8298 7.84605 30.8148 7.4215C31.7965 6.99695 32.9271 6.78467 34.2034 6.78467C35.4797 6.78467 36.5881 7.00011 37.5889 7.43417C38.5896 7.86823 39.3909 8.5019 39.9926 9.33516C40.5943 10.1684 40.9395 11.1411 41.0282 12.2595H38.1589C38.0006 11.3724 37.5731 10.6595 36.8827 10.1209C36.1923 9.58229 35.296 9.30982 34.2002 9.30982C33.1045 9.30982 32.186 9.5411 31.5558 10.0005C30.9288 10.4599 30.6121 11.0809 30.6121 11.8603C30.6121 12.5162 30.8243 13.0389 31.2486 13.4286C31.673 13.8183 32.2842 14.1288 33.0823 14.3601L36.509 15.3423C37.5002 15.6274 38.3363 15.976 39.0204 16.391C39.7013 16.8061 40.2523 17.3827 40.6672 18.1177C41.082 18.8528 41.2911 19.7684 41.2911 20.8678C41.2911 21.9672 41.0029 22.9272 40.4265 23.751C39.8501 24.5748 39.0362 25.2179 37.9816 25.6773C36.927 26.1367 35.7109 26.368 34.3301 26.368C32.9493 26.368 31.787 26.1019 30.6912 25.5696" fill="#DEDEDE"/>
<path id="Vector_2" d="M46.0981 12.2625H43.3872V26.1524H46.0981V12.2625Z" fill="#DEDEDE"/>
<path id="Vector_3" d="M71.5259 23.0863C72.2163 22.3323 72.5615 21.3279 72.5615 20.0701V19.5125L68.682 20.124C67.8681 20.2475 67.26 20.4946 66.861 20.8685C66.462 21.2392 66.2624 21.7271 66.2624 22.3291C66.2624 22.8962 66.4841 23.3525 66.9275 23.6978C67.3709 24.0432 67.9536 24.2174 68.682 24.2174C69.8854 24.2174 70.8324 23.8404 71.5228 23.0895M65.8254 25.8649C65.1065 25.5291 64.5491 25.0634 64.1532 24.4709C63.7542 23.8784 63.5547 23.2004 63.5547 22.4368C63.5547 21.2487 63.9569 20.2919 64.7645 19.5663C65.5689 18.8408 66.7343 18.3719 68.2576 18.1596L71.2852 17.7604C71.6938 17.7065 72.001 17.583 72.2163 17.3897C72.4285 17.1964 72.5362 16.9303 72.5362 16.5913C72.5362 15.9354 72.2575 15.3968 71.7001 14.9691C71.1427 14.5446 70.4017 14.3323 69.4832 14.3323C68.5648 14.3323 67.8713 14.5541 67.3044 14.9976C66.7375 15.4412 66.4176 16.0527 66.348 16.8321H63.6909C63.7795 15.8752 64.0772 15.0483 64.5808 14.3481C65.0843 13.6479 65.7589 13.1093 66.5981 12.7259C67.4406 12.3457 68.4001 12.1556 69.4801 12.1556C70.6297 12.1556 71.6399 12.3647 72.5077 12.7798C73.3754 13.1948 74.0437 13.781 74.5124 14.535C74.9811 15.2891 75.2154 16.1509 75.2154 17.1267V22.8931C75.2154 23.2828 75.2915 23.5616 75.4403 23.7295C75.5891 23.8974 75.8172 23.983 76.118 23.983C76.2764 23.983 76.4284 23.9671 76.5709 23.9291V26.1628C76.1275 26.2705 75.7127 26.3212 75.3231 26.3212C74.5979 26.3212 74.0088 26.1343 73.556 25.7636C73.1031 25.3929 72.8529 24.8257 72.7991 24.0622C72.4634 24.7719 71.887 25.3327 71.0731 25.7509C70.2591 26.1659 69.3281 26.375 68.283 26.375C67.3614 26.375 66.5443 26.2071 65.8254 25.8713" fill="#DEDEDE"/>
<path id="Vector_4" d="M46.0984 7.20605H43.3906V10.1177H46.0984V7.20605Z" fill="#DEDEDE"/>
<g id="Group">
<path id="Vector_5" d="M58.5031 21.7562C58.1579 22.4754 57.6765 23.0266 57.0558 23.4163C56.4351 23.8061 55.7193 24.0025 54.9054 24.0025C54.0915 24.0025 53.3695 23.8092 52.7392 23.4163C52.1122 23.0266 51.6245 22.469 51.2793 21.7435C50.9341 21.0179 50.7599 20.1847 50.7599 19.2437C50.7599 18.3027 50.9309 17.4758 51.2793 16.7597C51.6245 16.0405 52.1122 15.4892 52.7392 15.0995C53.3663 14.7098 54.0884 14.5134 54.9054 14.5134C55.7225 14.5134 56.4383 14.7098 57.0558 15.0995C57.6765 15.4892 58.1579 16.0437 58.5031 16.7597C58.8483 17.4758 59.0225 18.3059 59.0225 19.2437C59.0225 20.1815 58.8483 21.0369 58.5031 21.7562ZM58.8103 14.1965C58.3859 13.5946 57.7842 13.1035 57.0051 12.7233C56.2261 12.3431 55.4027 12.153 54.5349 12.153C53.1889 12.153 52.0235 12.4571 51.0417 13.0686C50.06 13.6801 49.3062 14.5229 48.7837 15.5938C48.2612 16.6647 48.0015 17.8845 48.0015 19.2468C48.0015 20.6092 48.2612 21.8575 48.7837 22.9284C49.3062 23.9993 50.0632 24.8421 51.0544 25.4536C52.0457 26.0651 53.2143 26.3692 54.5602 26.3692C55.5167 26.3692 56.3844 26.1696 57.1635 25.7704C57.9426 25.3712 58.4904 24.8801 58.8103 24.2971V26.1569H61.5181V5.64209L58.8103 7.20724V14.1965Z" fill="#DEDEDE"/>
<path id="Vector_6" d="M94.9517 23.0869C95.6421 22.3328 95.9873 21.3285 95.9873 20.0706V19.513L92.1078 20.1245C91.2939 20.2481 90.6858 20.4952 90.2868 20.8691C89.8877 21.2398 89.6882 21.7277 89.6882 22.3297C89.6882 22.8968 89.9099 23.353 90.3533 23.6984C90.7967 24.0437 91.3794 24.218 92.1078 24.218C93.3112 24.218 94.2581 23.8409 94.9485 23.0901M89.2512 25.8655C88.5355 25.5297 87.9749 25.0639 87.579 24.4714C87.18 23.879 86.9805 23.2009 86.9805 22.4374C86.9805 21.2493 87.3827 20.2924 88.1903 19.5669C88.9947 18.8413 90.1601 18.3724 91.6834 18.1602L94.711 17.7609C95.1196 17.7071 95.4268 17.5835 95.6421 17.3902C95.8543 17.197 95.962 16.9308 95.962 16.5918C95.962 15.936 95.6833 15.3974 95.1259 14.9697C94.5685 14.5451 93.8274 14.3328 92.909 14.3328C91.9906 14.3328 91.297 14.5546 90.7302 14.9982C90.1633 15.4417 89.8434 16.0532 89.7737 16.8326H87.1166C87.2053 15.8758 87.503 15.0489 88.0066 14.3487C88.5101 13.6485 89.1847 13.1099 90.0239 12.7265C90.8663 12.3463 91.8259 12.1562 92.9059 12.1562C94.0555 12.1562 95.0657 12.3653 95.9335 12.7803C96.8012 13.1954 97.4694 13.7815 97.9382 14.5356C98.4069 15.2897 98.6412 16.1514 98.6412 17.1273V22.8936C98.6412 23.2833 98.7172 23.5621 98.8661 23.7301C99.0149 23.898 99.243 23.9835 99.5438 23.9835C99.7022 23.9835 99.8542 23.9677 99.9967 23.9297V26.1633C99.5533 26.271 99.1384 26.3217 98.7489 26.3217C98.0237 26.3217 97.4346 26.1348 96.9817 25.7641C96.5289 25.3934 96.2787 24.8263 96.2248 24.0627C95.8891 24.7724 95.3128 25.3332 94.4988 25.7514C93.6849 26.1665 92.7538 26.3756 91.7087 26.3756C90.7872 26.3756 89.9701 26.2077 89.2512 25.8718" fill="#DEDEDE"/>
<path id="Vector_7" d="M80.9189 18.4265C80.9189 18.0241 80.9664 17.6471 81.0646 17.2922C81.1375 17.0261 81.2356 16.7726 81.3623 16.5318C81.4035 16.4526 81.451 16.3734 81.4985 16.2942C81.7899 15.8284 82.1699 15.4419 82.6449 15.1314C82.8001 15.03 82.968 14.9381 83.1453 14.8526H83.1516C83.6552 14.6308 84.2126 14.5199 84.8238 14.5199C85.3305 14.5199 85.7961 14.6055 86.2331 14.7544V12.2229C85.9006 12.1785 85.5554 12.1532 85.1975 12.1532C84.3298 12.1532 83.5063 12.3433 82.7273 12.7235C81.9482 13.1037 81.3465 13.5948 80.9221 14.1968V12.2641H78.2144V26.154H80.9221V18.4233L80.9189 18.4265Z" fill="#DEDEDE"/>
</g>
<path id="Vector_8" d="M8.31006 32.5976L19.3913 26.1976V13.3976L8.31006 19.7976V32.5976Z" fill="#DEDEDE"/>
<path id="Vector_9" d="M8.31006 10.1972L13.8522 6.99717V0.597168L8.31006 3.79717V10.1972Z" fill="#DEDEDE"/>
<path id="Vector_10" d="M8.31011 19.7976L0 14.9976V5.39758L8.31011 10.1976V19.7976Z" fill="#DEDEDE"/>
</g>
<defs>
<clipPath id="clip0_4261_6495">
<rect width="100" height="32" fill="white" transform="translate(0 0.597168)"/>
</clipPath>
</defs>
</svg>
