<svg width="40" height="40" viewBox="0 0 40 40" fill="none" xmlns="http://www.w3.org/2000/svg">
<g clip-path="url(#clip0_4740_11306)">
<rect width="40" height="40" rx="4" fill="#303030"/>
<path d="M29.25 23.7V13.9875C29.25 12.1964 27.8036 10.75 26.0125 10.75H13.9875C12.1964 10.75 10.75 12.1964 10.75 13.9875V26.0125C10.75 27.8036 12.1964 29.25 13.9875 29.25H23.7L29.25 23.7ZM13.9875 27.4C13.2223 27.4 12.6 26.7777 12.6 26.0125V13.9875C12.6 13.2223 13.2223 12.6 13.9875 12.6H26.0125C26.7777 12.6 27.4 13.2223 27.4 13.9875V22.775H26.0125C24.2214 22.775 22.775 24.2214 22.775 26.0125V27.4H13.9875ZM17.9314 17.9482C17.6875 17.0905 16.7961 16.5859 15.9384 16.8298C15.0807 17.0736 14.5761 17.965 14.82 18.8311C14.8873 19.0666 15.005 19.2768 15.1564 19.4534L17.965 18.663C18.007 18.4275 17.9986 18.1836 17.9314 17.9482ZM23.7168 16.3168C23.4814 15.4591 22.5816 14.9545 21.7239 15.1984C20.8661 15.4423 20.3616 16.3336 20.6055 17.1998C20.6727 17.4352 20.7905 17.6455 20.9418 17.822L23.7505 17.0316C23.7925 16.7961 23.7841 16.5523 23.7168 16.3168ZM24.5409 19.2095L15.6273 21.7239C16.8298 23.3132 18.9152 24.0868 20.9418 23.515C22.9684 22.9432 24.3391 21.1857 24.5409 19.2095Z" fill="white"/>
</g>
<defs>
<clipPath id="clip0_4740_11306">
<rect width="40" height="40" rx="4" fill="white"/>
</clipPath>
</defs>
</svg>
