<svg width="164" height="28" viewBox="0 0 164 28" fill="none" xmlns="http://www.w3.org/2000/svg">
<g id="logo">
<g id="Group">
<path id="Vector" d="M102.374 7.5751C101.418 7.5751 100.664 8.3501 100.664 9.2751C100.664 9.9751 101.167 10.5001 102.047 11.3751L102.123 11.4251C103.607 10.4751 104.11 10.0501 104.11 9.2751C104.11 8.3501 103.33 7.5751 102.374 7.5751ZM101.619 15.6751C100.135 16.6001 99.4311 17.2501 99.4311 18.3751C99.4311 19.7001 100.513 20.7751 101.846 20.7751C102.5 20.7751 103.028 20.5501 103.556 20.0751L104.789 18.8501L101.619 15.6751ZM101.846 24.1251C98.6513 24.1251 96.0605 21.5501 96.0605 18.3751C96.0605 15.7751 97.6955 14.2751 99.1796 13.2501C98.1734 12.2251 97.2931 11.0251 97.2931 9.2751C97.2931 6.5001 99.582 4.2251 102.374 4.2251C105.166 4.2251 107.455 6.5001 107.455 9.2751C107.455 11.5501 106.072 12.8251 104.537 13.8501L107.178 16.4751L111.102 12.5751L112.209 16.2001L109.543 18.8501L114.523 23.8001H109.769L107.178 21.2251L105.946 22.4501C104.864 23.5251 103.405 24.1251 101.846 24.1251Z" fill="#53544A"/>
<path id="Vector_2" d="M11.671 13C12.6016 13 13.3563 12.75 13.9348 12.275C14.5133 11.8 14.79 11.15 14.79 10.275C14.79 9.4 14.5133 8.75 13.9348 8.275C13.3563 7.8 12.6016 7.575 11.671 7.575H8.8538V13H11.671ZM5.15625 23.8V4.25H11.5955C12.6016 4.25 13.5323 4.4 14.3624 4.65C15.1924 4.925 15.9219 5.325 16.5256 5.825C17.1293 6.325 17.6072 6.975 17.9342 7.725C18.2612 8.475 18.4372 9.35 18.4372 10.3C18.4372 11.25 18.2612 12.125 17.9342 12.85C17.6072 13.6 17.1293 14.225 16.5256 14.75C15.9219 15.25 15.1924 15.65 14.3624 15.925C13.5323 16.2 12.6016 16.325 11.5955 16.325H8.82864V23.8H5.15625Z" fill="#53544A"/>
<path id="Vector_3" d="M29.5048 15.3501C29.4293 15.0251 29.3287 14.7001 29.1778 14.4001C28.9766 14.0251 28.7502 13.7251 28.4483 13.4751C28.1465 13.2251 27.7944 13.0001 27.4171 12.8751C27.0146 12.7251 26.587 12.6501 26.1342 12.6501C25.6815 12.6501 25.2539 12.7501 24.8766 12.9001C24.4741 13.0751 24.122 13.3001 23.8201 13.5751C23.5183 13.8501 23.2668 14.1501 23.0655 14.5001C22.9146 14.7751 22.814 15.0751 22.7385 15.3501H29.5048ZM26.3606 24.1251C25.3042 24.1251 24.3232 23.9501 23.4428 23.6001C22.5625 23.2501 21.7827 22.7501 21.1539 22.1001C20.525 21.4751 20.022 20.7001 19.6698 19.8251C19.3177 18.9501 19.1416 17.9751 19.1416 16.9001C19.1416 15.8751 19.3177 14.9251 19.6698 14.0251C20.022 13.1501 20.525 12.3751 21.1539 11.7251C21.7827 11.0751 22.5373 10.5751 23.3925 10.2001C24.2477 9.82514 25.1784 9.65015 26.1845 9.65015C27.1907 9.65015 28.1465 9.82514 28.9766 10.2001C29.8066 10.5751 30.5612 11.0751 31.1649 11.7251C31.7686 12.3751 32.2465 13.1501 32.5987 14.0251C32.9257 14.9001 33.1017 15.8751 33.1017 16.8751C33.1017 17.1251 33.1017 17.4501 33.0766 17.8501V18.0251H22.7134C22.7637 18.4251 22.8895 18.7751 23.0655 19.1001C23.2668 19.5001 23.5434 19.8251 23.8704 20.1251C24.1974 20.4251 24.5999 20.6501 25.0275 20.8001C25.4551 20.9751 25.933 21.0501 26.3858 21.0501C27.2158 21.0501 27.895 20.8751 28.3729 20.5001C28.876 20.1251 29.3036 19.6501 29.6809 19.1001L29.7815 18.9501L32.7244 20.3501L32.6238 20.5251C32.0453 21.6001 31.2152 22.4751 30.1588 23.1251C29.1023 23.8001 27.8195 24.1251 26.3606 24.1251Z" fill="#53544A"/>
<path id="Vector_4" d="M35.4155 23.8001V10.0001H38.937V11.7251C39.264 11.2251 39.7168 10.8001 40.245 10.4501C40.9996 9.9751 41.8548 9.7251 42.7603 9.7251C43.0873 9.7251 43.2885 9.7501 43.5652 9.8251V9.9251V13.4501C43.5652 13.4501 43.2634 13.3751 43.1125 13.3251C42.9615 13.3001 42.8358 13.2751 42.5591 13.2751C41.4272 13.2501 40.572 13.7001 39.918 14.5001C39.2891 15.3001 38.9622 16.3751 38.9622 17.7001V23.8001H35.4155Z" fill="#53544A"/>
<path id="Vector_5" d="M55.111 23.8L50.3571 17.95L49.8791 18.375V23.8H46.3325V4.25H49.8791V14.775L54.6834 10H59.1356L53.0485 16.025L59.5129 23.8H55.111Z" fill="#53544A"/>
<path id="Vector_6" d="M62.9837 8.55015C62.4052 8.55015 61.9021 8.32515 61.4745 7.92515C61.0469 7.50015 60.8457 7.00015 60.8457 6.42515C60.8457 5.82515 61.0721 5.30015 61.4745 4.90015C61.9021 4.47515 62.4052 4.27515 62.9837 4.27515C63.6126 4.27515 64.1408 4.50015 64.5433 4.92515C64.9457 5.35015 65.1721 5.87514 65.1721 6.45014C65.1721 7.02514 64.9709 7.52514 64.5433 7.95014C64.1156 8.32514 63.6126 8.55015 62.9837 8.55015Z" fill="#53544A"/>
<path id="Vector_7" d="M61.1978 23.8V16.4V10H64.7947V16.4V23.8H61.1978Z" fill="#53544A"/>
<path id="Vector_8" d="M76.9188 23.8V16.125C76.9188 15.125 76.6673 14.35 76.1894 13.8C75.7115 13.25 75.0072 12.975 74.1017 12.975C73.1961 12.975 72.4918 13.275 71.9385 13.925C71.3851 14.575 71.1084 15.45 71.1084 16.55V23.8H67.5366V10H71.1084V11.4C71.4857 10.95 71.9636 10.575 72.4918 10.275C73.1961 9.87505 74.0765 9.67505 75.0575 9.67505C76.7679 9.67505 78.101 10.2 79.0569 11.25C80.0127 12.3 80.4906 13.725 80.4906 15.525V23.8H76.9188Z" fill="#53544A"/>
<path id="Vector_9" d="M87.8101 24.1251C86.5021 24.1251 85.3702 23.8001 84.4144 23.1501C83.4586 22.5001 82.7794 21.6501 82.377 20.5751L82.3267 20.4251L85.2696 18.9001L85.3451 19.1001C85.5714 19.6751 85.9236 20.1501 86.3512 20.5001C86.804 20.8501 87.2819 21.0251 87.8604 21.0251C88.3132 21.0251 88.7156 20.9251 89.0426 20.7001C89.3445 20.5001 89.4954 20.2251 89.4954 19.8001C89.4954 19.5001 89.3948 19.2501 89.1935 19.0751C88.9672 18.8751 88.5899 18.7001 88.0868 18.5501L86.4518 18.0251C84.0874 17.2751 82.88 15.9001 82.88 13.9501C82.88 13.3001 83.0058 12.7001 83.2825 12.1751C83.534 11.6501 83.8862 11.1751 84.3389 10.8001C84.7917 10.4251 85.2948 10.1501 85.8733 9.95014C86.4518 9.75014 87.0806 9.65015 87.7346 9.65015C88.8665 9.65015 89.8978 9.92514 90.8034 10.5001C91.7089 11.0751 92.388 11.8501 92.8156 12.8001L92.8911 12.9751L89.9984 14.5251L89.8978 14.3501C89.6463 13.8501 89.3445 13.4251 88.9672 13.1251C88.615 12.8251 88.1874 12.6751 87.7346 12.6751C87.307 12.6751 86.9549 12.7751 86.6782 12.9751C86.4267 13.1501 86.3009 13.4001 86.3009 13.7251C86.3009 14.2751 86.7537 14.7001 87.6843 15.0001L89.269 15.5251C90.577 15.9501 91.5076 16.5251 92.0862 17.1751C92.6647 17.8501 92.9665 18.6751 92.9665 19.6001C92.9665 20.3251 92.8156 20.9751 92.5389 21.5251C92.2622 22.0751 91.8849 22.5501 91.407 22.9501C90.9291 23.3501 90.3757 23.6251 89.7721 23.8251C89.1432 24.0251 88.4892 24.1251 87.8101 24.1251Z" fill="#53544A"/>
<path id="Vector_10" d="M141.588 8.55015C141.01 8.55015 140.481 8.32515 140.079 7.92515C139.651 7.50015 139.45 7.00015 139.45 6.42515C139.45 5.82515 139.677 5.30015 140.079 4.90015C140.507 4.47515 141.01 4.27515 141.588 4.27515C142.217 4.27515 142.745 4.50015 143.148 4.92515C143.55 5.35015 143.777 5.87514 143.777 6.45014C143.777 7.02514 143.575 7.52514 143.148 7.95014C142.72 8.32514 142.192 8.55015 141.588 8.55015Z" fill="#53544A"/>
<path id="Vector_11" d="M139.802 23.8V16.9V10H143.399V17V23.8H139.802Z" fill="#53544A"/>
<path id="Vector_12" d="M146.166 23.8V14.625V4.25H149.738V14.625V23.8H146.166Z" fill="#53544A"/>
<path id="Vector_13" d="M152.505 23.8V14.825V4.25H156.077V14.825V23.8H152.505Z" fill="#53544A"/>
<path id="Vector_14" d="M118.875 23.8L112.989 4.25H116.837L120.434 17.175L124.081 4.25H127.1L130.722 17.175L134.344 4.25H138.142L132.231 23.8H129.213L125.54 10.75L121.893 23.8H118.875Z" fill="#53544A"/>
</g>
</g>
</svg>
