<?xml version="1.0" encoding="utf-8"?>
<!-- Generator: Adobe Illustrator 25.4.1, SVG Export Plug-In . SVG Version: 6.00 Build 0)  -->
<svg version="1.1" id="Layer_1" xmlns="http://www.w3.org/2000/svg" xmlns:xlink="http://www.w3.org/1999/xlink" x="0px" y="0px"
	 viewBox="0 0 180 50.4" style="enable-background:new 0 0 180 50.4;" xml:space="preserve">
<g>
	<path d="M125.1,11.8c-1-1-1.5-2.2-1.5-3.7c0-1.5,0.5-2.8,1.5-3.7c1-1,2.2-1.4,3.7-1.4c1.4,0,2.6,0.5,3.6,1.5c1,1,1.5,2.2,1.5,3.7
		c0,1.4-0.6,2.7-1.5,3.7c-1,1-2.2,1.5-3.6,1.5C127.3,13.3,126.1,12.8,125.1,11.8z"/>
	<polygon points="38.2,5.3 51.6,22 50.3,5.3 	"/>
	<g>
		<polygon points="3.5,22 16.8,5.3 4.7,5.3 		"/>
		<path d="M30.7,41.2c0,0.9,0.3,1.8,1,2.4l3.7,3.9H17.6l3.7-3.9c0.6-0.7,1-1.5,1-2.4V5.3H35l-3.4,3.8c-0.6,0.6-0.9,1.5-0.9,2.3V41.2
			z"/>
	</g>
	<g>
		<polygon points="104,47.5 116.1,47.5 117.4,30.8 		"/>
		<path d="M96.9,47.5H84.2l3.4-3.8c0.6-0.6,0.9-1.5,0.9-2.3V11.6c0-0.9-0.3-1.8-1-2.4l-3.7-3.9h17.8l-3.7,3.9c-0.6,0.7-1,1.5-1,2.4
			V47.5z"/>
	</g>
	<path d="M133.1,42c0,0.7,0.2,1.4,0.6,2l2.4,3.4h-14l2.4-3.4c0.4-0.6,0.6-1.3,0.6-2V26.2c0-1-0.4-1.9-1.1-2.6l-2.6-2.4l11.6-4.4V42z
		"/>
	<path d="M173.3,43.9c-0.3-0.5-0.5-1.2-0.5-1.8l0-14.9c0-2.1-0.4-4-1.3-5.6c-0.8-1.6-2-2.8-3.5-3.6c-1.5-0.8-3.1-1.2-4.8-1.2
		c-2,0-4,0.6-5.9,1.8c-1.9,1.2-3.5,2.9-4.7,5v-6.8l-6.9,2.6l0,0l-4.4,1.7l2.6,2.4c0.7,0.7,1.1,1.6,1.1,2.6v16c0,0.7-0.2,1.4-0.6,2
		l-2.4,3.4h14l-2.4-3.4c-0.4-0.6-0.6-1.3-0.6-2V25.2c0.8-0.8,1.8-1.5,2.9-2c1.1-0.5,2.1-0.7,3.1-0.7c1.8,0,3.3,0.6,4.3,1.7
		c1.1,1.2,1.6,2.9,1.6,5.1v12.8c0,0.6-0.2,1.3-0.5,1.8l-2.1,3.5h13.1L173.3,43.9z"/>
	<path d="M80.6,5.3h-9.2L54.7,28.7l0,12.4c0,0.9-0.3,1.8-1,2.4L50,47.5h17.8L64,43.6c-0.6-0.7-1-1.5-1-2.4l0-10.8L80.6,5.3z"/>
</g>
</svg>
